<?xml version="1.0" encoding="UTF-8"?>
<svg id="Laag_2" data-name="Laag 2" xmlns="http://www.w3.org/2000/svg" viewBox="0 0 39.63 40.11">
  <defs>
    <style>
      .cls-1 {
        fill: #8d685c;
      }

      .cls-2 {
        fill: #493431;
      }

      .cls-3 {
        fill: #a6796f;
      }

      .cls-4 {
        fill: #cc8e6a;
      }

      .cls-5 {
        fill: #8c665a;
      }

      .cls-6 {
        fill: #66524a;
      }

      .cls-7 {
        fill: #362c2b;
      }

      .cls-8 {
        fill: #e5b385;
      }

      .cls-9 {
        fill: #913736;
      }

      .cls-10 {
        fill: #e2b184;
      }

      .cls-11 {
        fill: #f36a58;
      }

      .cls-12 {
        fill: #fac695;
      }

      .cls-13 {
        fill: #493605;
      }
    </style>
  </defs>
  <g id="Laag_1-2" data-name="Laag 1">
    <g>
      <path class="cls-8" d="M.98,12.24c.72-.2,4.33-.72,4.77-.45.4.81.27,1.73.27,2.61l-.48-.24c-.18-1.55-.73-.73-1.91-.71-.26,1.02.41,1.64.71,2.39.52,1.28.49,2.62,2.46,2.1.46-.12,1.6-1.05,1.86-1.14.11-.04.33.02.48,0,.13,2.56.33,5.23.75,7.77.17,1,1.04,5.85,1.84,6.14s2.88.44,3.65,0c.78.53,3.5.67,4.56.96-.18.55.33,1.52.88,1.64.44.09,1.3-.71,1.28-1.16l2.64-.96c.57.68,2.36-.32,2.16.72-.04.06.04.19,0,.24-.65.05-3.56,2.06-3.72,2.4-.43.88.04,4.04-.36,5.28-.26,0-1.12.05-1.19-.01-.23-.22-.37-3.39-.53-3.91-.22-.72-1.17-.39-1.35.25-.17.59-.19,3.58-.55,3.89-.07.06-1.82.08-1.88.01-.15-.14-.4-3.42-.6-4.09s-.51-.38-.61-.46c-.32-.26-.36-.44-.87-.69-2.38-1.2-6.17-2.19-8.23-3.53-.35-.22-2.09-2.64-2.42-2.26-.17,1.18.34,2.47,1,3.44.4.59,2.04,1.81,2.06,1.95.09.55-.99,1.78-1.08,2.21-.06.27.13.54.17.8l-1.43,2.28c-.5.18-1.71.32-1.89-.28-.34-2.82-.38-5.79-1.06-8.54-.13-.52-.37-1.74-.54-2.1-.16-.33-.69-.52-.8-.9-.16-.56.22-1.04.15-1.36-.06-.29-.56-.48-.62-.77-.03-.13-.08-2.44-.06-2.57.02-.09.46-.19.62-.86.91-3.86-.4-6.06-1.11-9.71.06-.27.73-.33.98-.4ZM19.46,35.76h-1.44s.24,3.6.24,3.6c1.44-.34.7-2.51,1.2-3.6Z"/>
      <path class="cls-10" d="M17.06,5.76c1.06,0,3.92.24,4.87.53.16.05,1.38.97,1.51,1.13.96,1.15-.75,3.18-.37,3.61,1.85.64,4.14.92,3.83-1.67.59.06,2.77-.93,2.64-1.56-.15-.74-2.68-.09-2.88.6-.02-.04-.56-.21-.48-.59.09-.42,2.91-1.72,3.44-1.55.43.14.44.7.65,1.01.48.72.13.22.35.88.19.56.44,1.12.6,1.69-.34.14-2.67,1.48-2.76,1.68-.26.55-.12,2.62.12,3.19s3.69.43,4.32.89l-.24.96c-1.85-.35-3.01-.36-4.8-1.44-.03-.02-.03-.44-.24-.59-1.04-.76-2.01-.65-3.12-.37-1.28.32-1.17.78-1.44.96-.18.12-3.64,1.5-4.02,1.62-1.38.42-6.39.52-7.04,1.36-.3.4-.23.89-.22,1.34,0-.61-.23-1.73-.24-2.64-.02-1.36.01-2.72,0-4.08,1.09-.64,1.88-1.7,3.12-2.16-.27.54-.54,4.47-.3,4.98.74,1.6,6.33,0,6.66-.66.28-.57.06-3.04-.36-3.49-.19-.21-3.57-1.27-4-1.31-.39-.03-1.59.32-2.01.47.32-.65,2.47-1.44,2.59-2.06.02-.09-.19-1.74-.23-1.86-.09-.28-.43-.3-.59-.48-.12-.13-.06-.37-.08-.39.24,0,.48,0,.72,0ZM23.03,7.94c-.1-.11-2.63-.98-2.63.1,0,.56,1.95,1.38,2.27,1.3.41-.1.52-1.21.35-1.41Z"/>
      <path class="cls-3" d="M35.78,11.52c-.66-.41-1.31-1.21-2.15-1.32.33,1.5,1.42,4.1,0,5.16-.09.07-.2.23-.24.24-.14.03-.33-.02-.48,0-.64-.46-4.09-.33-4.32-.89s-.38-2.64-.12-3.19c.09-.19,2.42-1.54,2.76-1.68s1.05-.14,1.44-.24c-.19-.63-1.22-.78-1.39-1.36-.21-.69.05-1.72-.04-2.48,1.62-.85,5.15-3.94,6.83-1.67.49.66,1.55,6.05,1.59,7.06.02.48-.01,2.09-.81,2.01-.36-.03-2.54-1.34-3.04-1.65ZM32.66,12.48c-.69.06-3.01.4-3.46.7-.25.17-.19.36-.11.58.42,1.1,2.61.49,3.57.64.04-.79-.65-.19-.5-1.33.08-.59.54-.15.5-.59Z"/>
      <path class="cls-1" d="M16.34,5.76s-.03.26.08.39c.16.19.5.2.59.48.04.13.25,1.77.23,1.86-.12.62-2.27,1.42-2.59,2.06.42-.15,1.62-.51,2.01-.47.42.03,3.8,1.1,4,1.31.42.45.64,2.92.36,3.49-.33.67-5.92,2.26-6.66.66-.24-.51.03-4.45.3-4.98-1.24.46-2.03,1.52-3.12,2.16-3.43,1.99-3.01-.02-2.57-2.93.13-.83.92-4.77,1.26-5.22.41-.55,1.95-.81,2.61-.72.55.08,3.06,1.53,3.5,1.91ZM19.17,13.02c-.3-.29-2.39-.74-2.59-.54-.39,2.56.98,1.87,2.88,1.92-.26-.37-.02-1.12-.29-1.38Z"/>
      <path class="cls-12" d="M35.78,11.52c.6,2.18.07,4.44,0,6.59-.13,3.53.04,7.12-.92,10.55-.12.17-3.56.58-4.11.62l.24-2.64c.34-.37.65-1,.96-1.44.1-.04.21-.13.24-.24.02-.08-.02-.17,0-.24.67-.14,2.54-2.17,2.75-2.65.17-.38.67-4.08.56-4.27-.29-.5-2.22-1.13-2.84-1.25l.24-.96c.15-.02.34.03.48,0l.24-.24c1.42-1.06.34-3.66,0-5.16.84.11,1.5.92,2.15,1.32Z"/>
      <path class="cls-12" d="M17.06,5.76l.24-1.44,1.92.48c.16-.17-.35-1.08.36-.97.89.14,1.79,1.64,2.93,1.87.69.14,4.35.17,4.86-.07.77-.35,2.12-3.48,1.92-.6,1.19,0,1.73-.82,1.92.72.09.75-.16,1.79.04,2.48.18.59,1.2.73,1.39,1.36-.39.1-1.11.11-1.44.24-.16-.57-.41-1.13-.6-1.69-.22-.66.13-.16-.35-.88-.21-.31-.21-.87-.65-1.01-.53-.17-3.35,1.13-3.44,1.55-.08.38.46.55.48.59.09.24.21.7.24.96.31,2.59-1.98,2.31-3.83,1.67-.37-.43,1.33-2.46.37-3.61-.13-.16-1.35-1.08-1.51-1.13-.95-.29-3.8-.54-4.87-.53Z"/>
      <path class="cls-4" d="M6.74,37.44c-.04-.26-.23-.52-.17-.8.09-.43,1.16-1.66,1.08-2.21-.02-.14-1.66-1.36-2.06-1.95-.66-.97-1.17-2.26-1-3.44.33-.38,2.07,2.04,2.42,2.26,2.06,1.34,5.85,2.33,8.23,3.53.5.25.55.43.87.69-2.19.14-4.33-.16-6.48-.48,0,.7-.24,4.71-.63,4.81-1.84.51-2.03-1-2.25-2.41Z"/>
      <path class="cls-4" d="M9.62,16.8l.36.24.12-.24h1.44c.01.91.23,2.03.24,2.64,0,.55-.02,1.05,0,1.68,0,.03-.26.28-.25.58.06,1.62.08,6.27,1.62,7.04.57.28.97.21,1.5.3-.07.45.4,1.46.72,1.68-.78.43-2.87.27-3.65,0s-1.67-5.14-1.84-6.14c-.42-2.54-.61-5.21-.75-7.77.15-.02.32.01.48,0Z"/>
      <path class="cls-12" d="M26.9,32.16c-.5.73-1.99,2.3-2.19,2.73-.56,1.22-.28,3.86-.91,4.81-.19.28-.71.13-.99.14.4-1.24-.07-4.4.36-5.28.16-.34,3.07-2.35,3.72-2.4Z"/>
      <path class="cls-12" d="M.98,12.24c-.12-.59.28-.51.65-.66.84-.34,4-1.44,4.7-1.27.34.08,1.45,2.23,1.38,2.76-.15,1.12-1.49,1.16-1.69,1.34-.07.06.22.7-.48.48-.02-.23.03-.48,0-.72l.48.24c0-.87.12-1.79-.27-2.61-.44-.27-4.04.25-4.77.45Z"/>
      <path class="cls-4" d="M28.58,29.04c-.04.05.04.18,0,.24-.55.95-1.1,1.73-1.68,2.64.2-1.04-1.59-.04-2.16-.72.76-.68,1.8-1.63.24-1.68v-.48c1.2,0,2.4,0,3.6,0Z"/>
      <path class="cls-12" d="M4.34,15.84c.65.02,1.2.66,1.8.72.68.07.22-.58.36-.72.09-.08,2.38.16,2.16.96-.26.09-1.39,1.02-1.86,1.14-1.97.52-1.95-.82-2.46-2.1Z"/>
      <path class="cls-8" d="M30.74,29.28c-.71.05-1.45-.04-2.16,0,.04-.06-.04-.19,0-.24.67-1,1.67-1.59,2.4-2.4l-.24,2.64Z"/>
      <path class="cls-8" d="M10.1,16.8l-.12.24-.36-.24c.16-.01.32,0,.48,0Z"/>
      <path class="cls-12" d="M3.62,0h.24S3.88.06,3.62,0Z"/>
      <path class="cls-8" d="M11.54.24V0h.24c-.03.12-.13.22-.24.24Z"/>
      <path class="cls-2" d="M24.98,29.52c1.56.05.52,1-.24,1.68l-2.64.96c-.03-.99-.19-1.8-1.28-1.4-.07.03-.86.86-.88.92-1.06-.29-3.78-.43-4.56-.96-.32-.22-.79-1.23-.72-1.68,1.19.2,2.36.11,3.45.27,1,.14,2.25.81,3.15.81,1.1,0,2.14-.65,3.72-.6Z"/>
      <path class="cls-11" d="M19.94,31.68c.02-.06.81-.89.88-.92,1.09-.4,1.25.41,1.28,1.4.01.45-.84,1.25-1.28,1.16-.55-.11-1.06-1.09-.88-1.64Z"/>
      <path class="cls-12" d="M19.46,35.76c-.5,1.09.24,3.26-1.2,3.6l-.24-3.6h1.44Z"/>
      <path class="cls-5" d="M23.06,15.12c.51,1.48,1.76,2.73,3.36,2.16.56-.2,1.23-.6,1.44-1.2.81-.25.68.45.72.48-.74-.06-.78.6-.72,1.2h.72s0-1.2,0-1.2c.08.05,1.48.84,1.61.9,1.5.73,5.33-.31,4.35,2.28-.62,1.64-1.77,3.17-2.35,4.98-.02.07.02.16,0,.24-.08.08-.17.15-.24.24-.31.44-.62,1.07-.96,1.44-.73.81-1.73,1.4-2.4,2.4-1.2,0-2.4,0-3.6,0-2.33,0-4.65.04-6.96-.36l-6.24-7.56c-.02-.63,0-1.13,0-1.68-.02-.46-.09-.95.22-1.34.65-.85,5.66-.94,7.04-1.36.38-.12,3.84-1.5,4.02-1.62ZM18.14,18c-.63.17-.34,1.18.48.96.63-.17.34-1.18-.48-.96ZM27.38,20.4l-.36-.48,1.16-.24c.47-.26-.02-1.14-.54-.93-.95,1.86-.92.51-1.83-.51-.2-.05-1.99,1.72-2.04,2.16-.04.01-.1.3-.25.35-.42.16-4.19-.07-5.03-.11-.4-.02-.8.03-1.2,0-.64-.05-1.3-.07-1.92-.24-.34-.1-1.14-.89-1.8-.72-.88.06,1.31,2.01,1.44,2.16,1.6,1.96,2.5,2.95,4.2,4.56.03.03-.04.28.08.4s.36.05.4.08c.03.03-.11.41.16.48.5.13,1.33-.09,1.89,0l4.67-.73c.32.04.71.31,1.04.21.42-.13.44-.7.64-.93.8-.94,3.3-3.59,3.6-4.56.84.15,2.74-2.29,2.4-2.64-.69-.2-1.18.35-1.68.48-.92.24-4.42,1.21-5.04,1.2Z"/>
      <path class="cls-3" d="M32.66,16.56c.61.12,2.55.75,2.84,1.25.11.19-.39,3.89-.56,4.27-.21.48-2.09,2.5-2.75,2.65.58-1.8,1.73-3.34,2.35-4.98.98-2.59-2.85-1.55-4.35-2.28-.12-.06-1.53-.85-1.61-.9-.04-.03.09-.73-.72-.48.08-.22-.05-.68,0-.96,1.79,1.08,2.95,1.09,4.8,1.44Z"/>
      <path class="cls-2" d="M27.86,15.12c-.05.28.08.74,0,.96-.21.6-.88,1-1.44,1.2.19-1.73-.19-.93-.96-1.31-.88-.44-1.08-.77-.96-1.81,1.11-.28,2.08-.39,3.12.37.21.16.21.58.24.59ZM26.06,14.4c-.63.17-.34,1.18.48.96.63-.17.34-1.18-.48-.96Z"/>
      <path class="cls-7" d="M24.5,14.16c-.12,1.04.07,1.37.96,1.81.77.38,1.16-.42.96,1.31-1.6.57-2.85-.68-3.36-2.16.27-.18.16-.64,1.44-.96Z"/>
      <path class="cls-6" d="M26.9,9.36c-.03-.26-.15-.72-.24-.96.2-.69,2.72-1.34,2.88-.6.13.63-2.04,1.62-2.64,1.56Z"/>
      <path class="cls-6" d="M23.03,7.94c.16.19.06,1.31-.35,1.41-.32.08-2.27-.74-2.27-1.3,0-1.09,2.53-.21,2.63-.1Z"/>
      <path class="cls-2" d="M32.66,12.48c.04.44-.43,0-.5.59-.14,1.14.54.54.5,1.33-.95-.15-3.14.47-3.57-.64-.09-.22-.14-.41.11-.58.45-.3,2.77-.64,3.46-.7Z"/>
      <path class="cls-10" d="M33.38,15.6s.15-.17.24-.24l-.24.24Z"/>
      <path class="cls-3" d="M31.94,25.2c.07-.09.16-.16.24-.24-.03.11-.14.2-.24.24Z"/>
      <path class="cls-10" d="M24.98,29.04v.48c-1.58-.05-2.62.6-3.72.6-.9,0-2.15-.67-3.15-.81-1.09-.15-2.27-.07-3.45-.27-.54-.09-.94-.01-1.5-.3-1.55-.77-1.56-5.42-1.62-7.04-.01-.3.25-.55.25-.58l6.24,7.56c2.31.4,4.62.36,6.96.36Z"/>
      <path class="cls-13" d="M31.7,20.4c-.08.24.08.72,0,.96-.3.97-2.8,3.62-3.6,4.56-.59-.03-1.19.06-1.78-.02-.8-.11-2.27-.58-3.1-.47-.18.02-.17.54-.62.63-.53.1-1.45-.22-2.15.07-.08-1.18-1.52-.76-1.74-1.07s-.13-1.16-.28-1.59c-.34-.94-1.18-1.78-1.13-2.83.4.03.8-.02,1.2,0,.24,1.52,1.24.67,1.99.76.43.05.92.61,1.29.63s.91-.57,1.45-.63c1.39-.13,4.11-.02,5.4-.33.38-.09.66-.59,1.29-.68.59-.08,1.19.26,1.78,0Z"/>
      <path class="cls-12" d="M17.3,20.64c-.06,1.05.79,1.89,1.13,2.83.15.43.05,1.27.28,1.59s1.66-.11,1.74,1.07c.7-.29,1.61.03,2.15-.07.45-.09.44-.61.62-.63.83-.11,2.3.36,3.1.47.59.08,1.19,0,1.78.02-.2.23-.22.81-.64.93-.33.1-.72-.18-1.04-.21-.76-.09-1.51-.28-2.28-.26-1.09.03-3.62,1-4.44.5-.02-.01.04-.29-.08-.39-.14-.12-.37-.06-.4-.09-.2-.22-1.93-2.32-1.99-2.47-.21-.54.16-.91-.04-1.36-.27-.62-1.77-1.26-1.81-2.17.62.17,1.28.19,1.92.24Z"/>
      <path class="cls-12" d="M32.42,19.2c.04.54-.6.81-.72,1.2-.59.26-1.19-.08-1.78,0-.63.09-.9.58-1.29.68-1.29.31-4.01.2-5.4.33-.55.05-1.09.65-1.45.63s-.86-.58-1.29-.63c-.74-.09-1.75.75-1.99-.76.85.05,4.61.27,5.03.11.15-.05.21-.34.25-.35,2.16-.78,2.11-.02,3.6,0,.62,0,4.12-.96,5.04-1.2Z"/>
      <path class="cls-9" d="M15.38,20.4c.04.91,1.54,1.55,1.81,2.17.2.45-.17.82.04,1.36.06.15,1.79,2.25,1.99,2.47.02.03.26-.04.4.09.12.11.06.38.08.39.82.5,3.35-.46,4.44-.5.77-.02,1.52.17,2.28.26l-4.67.73c-.56-.09-1.39.13-1.89,0-.27-.07-.13-.46-.16-.48-.03-.03-.26.04-.4-.08s-.05-.37-.08-.4c-1.69-1.61-2.59-2.6-4.2-4.56-.13-.15-2.32-2.1-1.44-2.16.66-.17,1.46.63,1.8.72Z"/>
      <path class="cls-6" d="M23.78,20.4c.04-.44,1.84-2.21,2.04-2.16.91,1.02.87,2.37,1.83.51.52-.21,1.01.67.54.93l-1.16.24.36.48c-1.49-.02-1.44-.78-3.6,0Z"/>
      <path class="cls-9" d="M32.42,19.2c.5-.13.99-.68,1.68-.48.34.35-1.56,2.79-2.4,2.64.08-.24-.08-.72,0-.96.12-.39.76-.66.72-1.2Z"/>
      <path class="cls-6" d="M18.14,18c.82-.22,1.1.79.48.96-.82.22-1.1-.79-.48-.96Z"/>
      <path class="cls-6" d="M28.58,16.56v1.2s-.72,0-.72,0c-.06-.6-.02-1.26.72-1.2Z"/>
      <path class="cls-7" d="M19.17,13.02c.27.26.03,1.02.29,1.38-1.9-.05-3.28.64-2.88-1.92.21-.2,2.3.25,2.59.54Z"/>
      <path class="cls-13" d="M26.06,14.4c.82-.22,1.1.79.48.96-.82.22-1.1-.79-.48-.96Z"/>
    </g>
  </g>
</svg>