<?xml version="1.0" encoding="UTF-8"?>
<svg id="Laag_2" data-name="Laag 2" xmlns="http://www.w3.org/2000/svg" viewBox="0 0 37.72 37.69">
  <defs>
    <style>
      .cls-1 {
        fill: #ebef00;
      }

      .cls-2 {
        fill: #060602;
      }

      .cls-3 {
        fill: #cae700;
      }
    </style>
  </defs>
  <g id="Laag_1-2" data-name="Laag 1">
    <g id="ugI5ja.tif">
      <g>
        <path class="cls-2" d="M33.77,30.36c-.77,1.02-1.65,1.91-2.61,2.73-6.67,5.7-16.32,6.17-23.48,1.07-1.1-.78-2.58-2.26-3.44-3.32C-4.67,19.93,1.21,3.1,15,.39c17.13-3.37,29.35,16.04,18.76,29.97ZM9.57,9.48c5.51.2,10.88-.68,16.13-2.25.08,0,.16,0,.24,0,.14,0,.25,0,.36-.12.72.05,2.16-.42,3.03-.47.79-.05,1.54.06,2.31.12.25-.22-.94-.91-1.03-.99C23.53-.68,12.4-.39,5.84,6.75c-.23.25-1.23,1.44-1.31,1.66-.06.17-.09.16.06.29.63.55,4.03.74,4.98.77ZM8.39,11.85c-1.45-.05-3.29-.14-4.62-.77-.3-.14-.43-.41-.71-.41C.32,16.23.47,22.79,3.71,28.09c.49.8.96,1.67,1.83,2.08,2.52,1.2,7.12,2.04,9.94,2.52,3.6.61,8.2,1.33,11.81.85,2.04-.27,2.83-.86,4.23-2.3,5.33-5.45,6.57-14.1,2.91-20.82-.18-.33-.83-1.48-1.07-1.66-.31-.25-2.52-.43-2.98-.36-.14.02-.23.11-.68.17-.9.12-1.7.36-2.57.55-3.45.74-6.98,1.78-10.48,2.27-2.79.39-5.33.56-8.26.46ZM26.41,34.75c-3.09.31-6.22.02-9.29-.37-3.34-.43-6.59-1.11-9.8-2.12,4.59,4.18,11.53,5.36,17.38,3.32l1.72-.83Z"/>
        <path class="cls-1" d="M27.13,9.13l1.47.61c5.46,6.88,3.23,17-4.27,21.43-3.69,2.18-9.84,1.57-13.03-1.28s-5.38-7.19-5.28-11.57c.03-1.13.6-4.87,1.38-5.62.34-.33,1.09-.3,1-.84,2.92.1,5.46-.07,8.26-.46,3.5-.49,7.03-1.52,10.48-2.27Z"/>
        <path class="cls-3" d="M27.13,9.13c.87-.19,1.68-.43,2.57-.55.45-.06.54-.15.68-.17.46-.06,2.67.12,2.98.36.23.18.89,1.33,1.07,1.66,3.66,6.72,2.42,15.37-2.91,20.82-1.4,1.43-2.19,2.02-4.23,2.3-3.61.48-8.21-.24-11.81-.85-2.82-.48-7.41-1.31-9.94-2.52-.87-.41-1.34-1.29-1.83-2.08C.47,22.79.32,16.23,3.05,10.67c.28,0,.41.27.71.41,1.33.63,3.17.72,4.62.77.09.54-.66.51-1,.84-.77.75-1.35,4.48-1.38,5.62-.11,4.38,2.06,8.69,5.28,11.57s9.34,3.46,13.03,1.28c7.5-4.43,9.73-14.55,4.27-21.43l-1.47-.61Z"/>
        <path class="cls-3" d="M9.57,9.48c-.95-.03-4.35-.22-4.98-.77-.15-.13-.12-.13-.06-.29.08-.22,1.07-1.41,1.31-1.66C12.4-.39,23.53-.68,30.6,5.77c.08.08,1.28.77,1.03.99-.77-.06-1.53-.16-2.31-.12-.86.05-2.31.53-3.03.47-.03,0-.4-.38-.36.12-.08,0-.16,0-.24,0-5.04-.48-10.6.59-15.52,1.86-.22.06-.69.06-.61.39Z"/>
        <path class="cls-3" d="M26.41,34.75l-1.72.83c-5.84,2.04-12.79.86-17.38-3.32,3.21,1,6.46,1.69,9.8,2.12,3.07.4,6.2.68,9.29.37Z"/>
        <path class="cls-1" d="M25.7,7.23c-5.25,1.57-10.62,2.45-16.13,2.25-.07-.34.4-.34.61-.39,4.92-1.27,10.48-2.34,15.52-1.86Z"/>
        <path class="cls-1" d="M26.3,7.11c-.1.11-.22.12-.36.12-.05-.5.32-.12.36-.12Z"/>
      </g>
    </g>
  </g>
</svg>