<?xml version="1.0" encoding="UTF-8"?>
<svg id="Laag_2" data-name="Laag 2" xmlns="http://www.w3.org/2000/svg" viewBox="0 0 53.73 40.51">
  <defs>
    <style>
      .cls-1 {
        fill: #71b9c8;
      }

      .cls-2 {
        fill: #c08562;
      }

      .cls-3 {
        fill: #4b96b1;
      }

      .cls-4 {
        fill: #62adba;
      }

      .cls-5 {
        fill: #fefefe;
      }

      .cls-6 {
        fill: #b17650;
      }
    </style>
  </defs>
  <g id="Laag_1-2" data-name="Laag 1">
    <g id="_9RmRfs.tif" data-name="9RmRfs.tif">
      <g>
        <path class="cls-1" d="M6.75,13.84c.3.4,2.22,1.5,2.77,1.74,8.12,3.58,26.22,3.56,34.38.12.71-.3,2.63-1.31,3.08-1.86.58,1.43,1.18,3.15,1.4,4.69.65,4.73-.41,8.93-4.05,12.06-2.65,2.28-5.64,3.28-8.9,4.28-.23.07-.4-.12-.33.3,1.11-.09,2.24-.02,3.35-.16,5.71-.72,10.45-3.57,13-8.76.18-.36.16-1.24.69-1.24.21.3.64.51.92,1.01,2.32,4.02-1.78,8.71-5.16,10.57-3.99,2.19-11,3.51-15.51,3.74-.01-.08.02-.27,0-.29-.07-.05-1.43.11-1.64.15-.13.02-.21.14-.22.14-.4.06-.65.12-1.15.14-.15-.24-.54-.14-.79-.15-1.19-.01-2.39-.01-3.58,0-.24,0-.64-.09-.79.15-6.12-.18-15.89-1.37-20.61-5.51-2.39-2.09-4.67-5.39-3.06-8.65.21-.43.69-1.21,1.2-1.3,0,.06.37.84.45,1.03.96,2.24,3.41,5.12,5.52,6.4,3.36,2.04,7.3,2.79,11.21,2.74.12-.48-.54-.24-.9-.32-4.94-1.17-10.56-4.46-12.22-9.53-1.21-3.7-.48-7.94.95-11.47ZM28.22,25.58c-.61-.24-1.71-.24-2.29,0-.58-.01-1.73.11-2.19-.03-.29-.09-.99-.91-1.34-1.1-1.77-.96-3.87.48-2.61,2.33.11.16.44.25.41.3-.13.24-.5.16-.65.92-.36,1.85,1.03,2.59,2.61,1.9.57-.25,1.12-.92,1.57-1.15.58-.3,5.19-.37,5.88-.05.62.3,1.06.99,1.87,1.14,1.63.31,3.1-.95,2.08-2.51-.19-.29-.44-.31-.46-.33-.13-.2.41-.56.5-.84.63-2-1.37-2.77-2.96-1.82-1.13.68-.68,1.12-2.41,1.24Z"/>
        <path class="cls-2" d="M31.23.1c.39-.03.94-.13,1.29-.09,1.6.18,2.78,1.64,2.72,3.24.7-.09,1.09-.23,1.8,0,.61.19,1.17.9,1.45.98.75.22,1.34-.17,2.1.61.16.16.34.64.4.67.17.1.71,0,1.01.06.92.19,1.65.95,1.67,1.91,0,.13-.14.19-.14.2,0,.1-.13.41.03.55.11.1.45-.11.4.16-.09-.01-.26-.02-.29.09-.11.44-.08,2.52-.44,2.75-.31.2-.99-.23-1.34-.24-.5-.02-1.22.26-1.71.4-.28-.06-.09-1.24-1.15-1.57-2.41-.76-5.22.71-5.09,3.44-.82-.31-1.42-.38-2.29-.14.02-2.11-1.81-3.52-3.87-3.09-.63.13-1.48.92-1.79.94-.22.02-1.21-.5-1.72-.56-1.6-.19-3.46.3-4.15,1.85-1.24.19-4.71-.95-5.14-2.15-.21-.58-.15-2.01-.03-2.62.11-.58,1.49-2.74,2.03-2.98.28-.13.49-.17.8-.13-.13-.01.11-.71.14-.75.34-.51,1.27-.79,1.87-.68l-.08-.28c.39.33.91.1,1.36.28-.19-.65.61-1.83,1.25-1.97.45-.1,2.78-.2,3.05.12.29.34-.19.29-.43,0l-.14.43c.16.11,1.38.06,1.61,0,.09-.03.3-.44.78-.53,1.4-.27,1.66.56,2.1.54.04,0,.48-.49.63-.57.54-.27.78.13.74-.73l.57-.14Z"/>
        <path class="cls-6" d="M31.23.1l-.57.14c.03.86-.2.46-.74.73-.15.08-.59.56-.63.57-.45.01-.7-.81-2.1-.54-.48.09-.69.5-.78.53-.23.07-1.46.12-1.61,0l.14-.43c.23.29.72.34.43,0-.27-.32-2.59-.22-3.05-.12-.64.14-1.44,1.33-1.25,1.97-.45-.18-.97.04-1.36-.28l.08.28c-.59-.11-1.53.17-1.87.68-.03.04-.26.74-.14.75-.31-.04-.52,0-.8.13-.54.24-1.92,2.4-2.03,2.98-.12.62-.18,2.04.03,2.62.43,1.2,3.9,2.34,5.14,2.15.69-1.55,2.55-2.04,4.15-1.85.51.06,1.5.58,1.72.56.32-.03,1.16-.81,1.79-.94,2.07-.43,3.89.97,3.87,3.09.87-.24,1.47-.17,2.29.14-.13-2.73,2.67-4.2,5.09-3.44,1.06.33.87,1.52,1.15,1.57.49-.14,1.22-.42,1.71-.4.34.01,1.03.44,1.34.24.36-.24.33-2.31.44-2.75.03-.12.19-.11.29-.09.05-.27-.29-.07-.4-.16-.16-.14-.03-.45-.03-.55,1.23.4.82.8,1.15,1.72.24.68.55.67.43,1.65-.31,2.66-4.16,4.46-6.41,5.04-6.65,1.69-19.34,1.84-25.65-.89-1.54-.67-3.14-1.41-3.3-3.28s.15-3.39,2.44-3.23c.09-.19-.14-.41-.14-.43.08-1.63,1.74-3.48,3.29-3.94.5-.15,1.89-.19,1.98-.24.08-.04.47-.81,1.08-1.14.77-.42,1.9-.41,2.25-.62.15-.09.26-.52.43-.72.9-1.04,1.69-1.24,3.06-1.06.59.08,1.6.69,1.88.7.34,0,.74-.6,1.03-.68.42-.12,1.1-.04,1.51.15.36.16.51.61.82.4l.14-.14c.48-.48.75-.9,1.53-.96.1,0,.17.1.19.1ZM28.08.67h-.71v.14h.71v-.14Z"/>
        <path class="cls-3" d="M12.05,8.26s.23.24.14.43c-2.28-.17-2.61,1.28-2.44,3.23s1.76,2.61,3.3,3.28c6.31,2.73,19,2.58,25.65.89,2.26-.57,6.1-2.37,6.41-5.04.11-.98-.19-.97-.43-1.65,1.12.38,2.06,1.1,2.7,2.1.11.17.1.38.16.48-.04.57-.21,1.41-.57,1.86-.44.55-2.36,1.56-3.08,1.86-8.16,3.44-26.27,3.46-34.38-.12-.54-.24-2.47-1.34-2.77-1.74-.06-.08-.27-.59-.33-.74-.14-.35.06-.8-.38-.69.53-.99.78-1.66,1.72-2.35,1.18-.86,2.88-1.45,4.29-1.8Z"/>
        <path class="cls-4" d="M52.13,25.01c-.53,0-.51.89-.69,1.24-2.55,5.19-7.29,8.04-13,8.76-1.11.14-2.23.07-3.35.16-.07-.42.1-.23.33-.3,3.25-1,6.24-2,8.9-4.28,3.64-3.13,4.69-7.32,4.05-12.06-.21-1.54-.81-3.26-1.4-4.69.36-.45.53-1.29.57-1.86.88,1.5,1.56,3.15,2.15,4.79.54,1.5,1.93,7.54,2.43,8.23Z"/>
        <path class="cls-4" d="M6.03,12.41c.44-.11.24.34.38.69.06.15.28.66.33.74-1.43,3.53-2.17,7.78-.95,11.47,1.67,5.08,7.28,8.36,12.22,9.53.35.08,1.01-.16.9.32-3.92.05-7.85-.7-11.21-2.74-2.11-1.28-4.56-4.16-5.52-6.4-.08-.19-.44-.97-.45-1.03-.06-.48.72-3.07.9-3.75.84-3.11,1.88-6.04,3.39-8.84Z"/>
        <path class="cls-4" d="M29.37,40.47c-1.64.07-3.5.05-5.15,0,.15-.24.54-.14.79-.15,1.19-.01,2.39-.01,3.58,0,.24,0,.64-.09.79.15Z"/>
        <path class="cls-4" d="M30.51,40.32s.08-.11.22-.14c.21-.04,1.58-.2,1.64-.15.02.02-.01.21,0,.29-.62.03-1.24-.02-1.86,0Z"/>
        <path class="cls-2" d="M29.37,1.1s.1-.1.14-.14l-.14.14Z"/>
        <path class="cls-5" d="M28.22,25.58c1.73-.12,1.28-.56,2.41-1.24,1.59-.95,3.59-.18,2.96,1.82-.09.29-.64.65-.5.84.02.02.27.04.46.33,1.03,1.55-.44,2.81-2.08,2.51-.81-.15-1.25-.84-1.87-1.14-.69-.33-5.3-.25-5.88.05-.45.23-.99.9-1.57,1.15-1.58.69-2.97-.05-2.61-1.9.15-.76.52-.68.65-.92.03-.05-.3-.14-.41-.3-1.26-1.85.84-3.29,2.61-2.33.35.19,1.04,1.01,1.34,1.1.46.14,1.61.02,2.19.03.73.01,1.57.05,2.29,0Z"/>
        <path class="cls-3" d="M28.22,25.58c-.72.05-1.56.01-2.29,0,.58-.24,1.68-.24,2.29,0Z"/>
        <rect class="cls-2" x="27.36" y=".67" width=".71" height=".14"/>
      </g>
    </g>
  </g>
</svg>