<?xml version="1.0" encoding="UTF-8"?>
<svg id="Laag_2" data-name="Laag 2" xmlns="http://www.w3.org/2000/svg" viewBox="0 0 39.15 38.85">
  <defs>
    <style>
      .cls-1 {
        fill: #8d685c;
      }

      .cls-2 {
        fill: #493431;
      }

      .cls-3 {
        fill: #a6796f;
      }

      .cls-4 {
        fill: #cc8e6a;
      }

      .cls-5 {
        fill: #772a2a;
      }

      .cls-6 {
        fill: #8c665a;
      }

      .cls-7 {
        fill: #66524a;
      }

      .cls-8 {
        fill: #362c2b;
      }

      .cls-9 {
        fill: #e5b385;
      }

      .cls-10 {
        fill: #913736;
      }

      .cls-11 {
        fill: #e2b184;
      }

      .cls-12 {
        fill: #f36a58;
      }

      .cls-13 {
        fill: #fac695;
      }

      .cls-14 {
        fill: #493605;
      }
    </style>
  </defs>
  <g id="Laag_1-2" data-name="Laag 1">
    <g>
      <path class="cls-9" d="M1.19,10.78c1.4-.29,3.1-.25,4.54-.46l.26,2.86c-.07-.03-.21.04-.24,0l-.24-.48c-.1-.22.11-.78-.38-.93-2.23.32-1.57.86-1.06,2.37.95,2.79,1.57,3.47,4.32,1.44.24.01.48,0,.72,0,.28,3.62.51,7.83,1.51,11.33.29,1.03.5,2.45,1.74,2.58h3.47c1.02.47,2.97.41,4.08.97-.74.66.34,1.81,1.31,1.7.45-.05.75-.3.37-.74.09-.05.15-.19.24-.24.21-.14.63-.43.72-.48.58-.32,1.26-.63,1.92-.72.02,0,.15.17.31.16.94-.1,1.86-.25,2.81-.16-.04.08-.18.15-.24.24-.11.15-.27.24-.24.48-.15.16-.29.23-.48.48-.86-.18-3.21,1.54-3.48,2.16-.41.97-.05,3.79-.36,5.04-.31-.04-1.02.1-1.17-.03-.19-.16-.54-3.48-.51-4.06-2.54-.87-.77,4.43-2.5,4.55-.12,0-1.25-.23-1.3-.27-.51-.44-.03-3.66-1.01-4.51-.43-.37-1.38-.79-1.95-1.05-2.17-1.02-5.27-1.86-7.26-3.06-.31-.19-2.29-2.67-2.55-2.36-.03,1.72.76,3.65,2.03,4.8.35.32,1.04.44,1.08.48.16.22-.97,2.21-.95,3.11-.83-.06-.8,2.09-1.24,2.36-.27.17-1.97.18-2.09-.35-.23-1.89-.24-4.09-.54-5.94-.58-3.62-2.19-7.05-1.89-10.82.12-1.5.66-2.63.48-4.33C1.29,15.62-.22,12.31.03,11.42c.08-.29.3-.29.44-.4l.24-.24c.14-.03.33.03.48,0ZM19.19,34.3h-1.2s.24,3.84.24,3.84c1.13.14,1.11-3.69.96-3.84Z"/>
      <path class="cls-11" d="M20.63,2.38c.66.8,1.87,1.63,2.37,2.55.32.6.44,2.16.52,2.24.14.13,3.64.32,3.8.22.28-.18.05-.99.11-1.12.01-.03.25-.08.37-.25.28-.41.1-.88.88-1.01.41-.07,1.71-.03,1.55.72-.73-.22-1.82-.56-1.7.6.09.83,2.83,1.45,2.9.12.15.13.23.53.36.48.28-.14-.07-.59.36-.48v1.68c-.6,0-3.47-.18-3.61.4.15,3.12-.69,4.42,2.89,4.64l-.48,2.16c-.09-.13-2.23-1.81-2.4-1.92-.24-.14-.35-.33-.72-.24.47-1.92-1.82-2.9-3.36-2.28-.15.06-.19.33-.24.36-.57.29-1.16.71-1.68.96-.15.07-.61.1-.96.24.38-.81.83-3.7.18-4.26-.54-.46-5.41-.54-5.82.18-.3.53-.6,4.14-.13,4.46,1.9.21,3.86-.29,5.78-.37-.85.35-1.56.53-2.39.85-2.37.9-5.69,1.26-6.16,4.19-.13.81.65,2.04,1.07,2.81,1.06,1.95,2.55,3.67,3.64,5.6-.31-.04-.65.04-.96,0-.95-.12-2.22-.24-3.12-.48-1.25-.34-1.29-.67-1.61-1.87-.7-2.6-.53-5.54-.55-8.21-.02-2.08.01-4.16,0-6.24.71-.43,5.53-3.59,5.71-3.89.37-.63-.08-2.18-.43-2.83.88.16,2.83.03,3.84,0ZM21.11,5.5c-1.02.02-3.03,0-2.64,1.44,1.32-.06,3.09.35,2.64-1.44Z"/>
      <path class="cls-6" d="M22.55,12.22c1.1,1.51,1.04,2.7,3.12,2.64.38-.01.85.1,1.2-.12.08-.05.94-1.47.96-1.56.37-.09.48.1.72.24.59,2.5,3.06,4.26,2.39,7.04-.04.18-.43.15-.47.33-.27,1.17-.45,2.71-.73,3.92-.02.08.02.16,0,.24-.51-.06-.54-.03-.48.48v.24c-.24.01-.48,0-.72,0-.77.03-1.28.17-1.92.24s-1.94-.19-2.4.24c-.84-.37-.65-1.5-.96-2.16.4,0,.8,0,1.2,0,.61-.01.98.11,1.57-.23.21-.12,1.92-2.07,2.16-2.4s.45-.49.35-.97c-1.33-.38-1.24.76-2.16.96.4-.61-.93-1.74-1.37-1.87-.31-.09-2.36-.25-2.87-.28-.57-.03-.8.12-.81.71-.03-.03-.34.01-.48,0-.76-2.28-3.72-1.96-5.76-2.4-.58.63,2,5.86,2.88,6.48.28.2.46-.02.48,0,.03.03-.07.32.05.42.23.19.83-.02.91.06.06.06-.01,1.34,0,1.68-.59.12-1.15-.18-1.68-.24-1.09-1.93-2.58-3.65-3.64-5.6-.41-.76-1.2-2-1.07-2.81.47-2.92,3.78-3.29,6.16-4.19.83-.31,1.54-.5,2.39-.85.35-.14.81-.17.96-.24ZM22.31,13.43c-.26-.26-.74.22-.48.48s.74-.22.48-.48ZM28.07,14.87c-.38-.39-1.35.57-.96.96.5.5,1.46-.45.96-.96ZM23.03,17.26c.48-.49-.84-1.56-1.2-.6-.34.89,1.13.66,1.2.6ZM28.43,17.03c-.59.13-.42,1.34.23,1.2.59-.13.42-1.34-.23-1.2Z"/>
      <path class="cls-13" d="M31.19,2.38c-.39.86-.75,1.67-.36,2.64,1.68,1.22,3.36,2.56,5.16,3.6-.25,5.43,0,10.98-1.09,16.31-.29.54-1.74.64-2.4.72-1.04.14-2.41-.04-3.24,0v-.24c.22-.08.43-.25.48-.48.02-.08-.02-.16,0-.24.8-.3,1.65-1.6,2.11-2.33,2.3-3.6,1.79-3.4-.69-6.19-.26-.3-.18-.78-.23-.84l.48-2.16c.61.04,3.01.14,3.25-.23.34-.5.45-4.46.09-4.8-.39-.06-.79,0-1.19-.01.09-.73-.19-.56-.48,0-.32,0-.64,0-.96,0v-1.68c-.43-.11-.08.34-.36.48-.13.04-.21-.35-.36-.48-.46-.4-.58-.53-1.2-.72.16-.75-1.13-.79-1.55-.72-.79.13-.6.59-.88,1.01-.12.17-.35.22-.37.25-.06.13.17.94-.11,1.12-.16.1-3.66-.09-3.8-.22-.08-.08-.2-1.64-.52-2.24-.5-.92-1.71-1.75-2.37-2.55.04,0,.38-.25.81-.26,3.26-.06,6.49.24,9.75.26Z"/>
      <path class="cls-3" d="M35.99,8.62c-1.79-1.04-3.48-2.38-5.16-3.6-.39-.97-.04-1.78.36-2.64,1.43-.78,3.08-2.65,4.86-2.35.27.04,1.48.58,1.64.78.38.46,1.32,5.2,1.39,6.05.32,3.88-.32,3.37-3.09,1.77Z"/>
      <path class="cls-1" d="M16.79,2.38c.35.65.79,2.19.43,2.83-.17.3-5,3.46-5.71,3.89-.84.51-2.32,1.72-2.63.11-.22-1.12.89-7.49,1.56-8.27.5-.58,1.84-.78,2.57-.67,1.44.21,2.77,1.92,3.78,2.11Z"/>
      <path class="cls-4" d="M11.51,15.34c.03,2.67-.14,5.61.55,8.21.32,1.2.35,1.53,1.61,1.87.38,1.16.98,3.56,2.16,4.08h-3.47c-1.25-.14-1.45-1.56-1.74-2.59-1-3.5-1.23-7.71-1.51-11.33.81,0,1.58-.36,2.4-.24Z"/>
      <path class="cls-4" d="M6.71,35.98c-.02-.9,1.11-2.89.95-3.11-.03-.05-.73-.17-1.08-.48-1.27-1.16-2.07-3.08-2.03-4.8.26-.31,2.24,2.18,2.55,2.36,1.99,1.2,5.09,2.04,7.26,3.06.56.27,1.52.68,1.95,1.05-.89.72-6.41-.56-6.72-.24-.08.71-.14,4.46-.64,4.57-.21.05-1.67.02-1.74-.03-.09-.08-.5-2.07-.5-2.38Z"/>
      <path class="cls-4" d="M28.55,25.66v.48c-.19,1.22-.42,2.74-.96,3.84-.95-.09-1.87.06-2.81.16-.16.02-.29-.16-.31-.16,1.47-1,1.69-2.47,2.16-4.08.64-.07,1.15-.21,1.92-.24Z"/>
      <path class="cls-13" d="M26.63,31.18c-.46.61-1.73,2-1.94,2.5-.33.79-.73,4.77-.96,4.92-.36.24-.8-.2-.94-.22.31-1.25-.04-4.07.36-5.04.26-.62,2.62-2.35,3.48-2.16Z"/>
      <path class="cls-13" d="M1.19,10.78c-.12-.59.28-.51.65-.66.9-.36,3.99-1.58,4.71-1.04.09.07.96,1.76,1.01,1.93.3,1.1,0,1.14-.72,1.83l-.85.34-.26-2.86c-1.45.21-3.14.17-4.54.46Z"/>
      <path class="cls-13" d="M8.39,15.58c-2.75,2.03-3.37,1.35-4.32-1.44,1.38,1.04,2.36,1.03,3.94,1.22.19.02.34.22.38.22Z"/>
      <path class="cls-13" d="M5.75,13.18c-.18-.25-.15-.27-.24-.48l.24.48Z"/>
      <path class="cls-13" d="M27.11,30.7c-.03-.24.13-.33.24-.48.03.25-.1.33-.24.48Z"/>
      <path class="cls-13" d="M28.55,26.14v-.24c.23.13,0,.2,0,.24Z"/>
      <path class="cls-13" d="M.47,11.02c.08-.06.16-.22.24-.24l-.24.24Z"/>
      <path class="cls-2" d="M16.79,25.9c-.04,2.16,2.35,1.97,2.88,2.4.02.02-.1.42.16.48.35.09,2.4.26,2.86.26s.54-.16.82-.27c1.21-.46.45-.96.48-1.92,0-.18.13-.61.24-.72.46-.43,1.75-.17,2.4-.24-.47,1.61-.69,3.08-2.16,4.08-.66.09-1.34.4-1.92.72-.13-.03-.43.05-.48,0-.02-.02-.2-.39-.24-.48-.16-.34.2-1.08-.84-.98-.84.09-.43.89-.65,1.17-.1.13-.39.01-.43.04-1.11-.56-3.06-.51-4.08-.96-1.18-.52-1.78-2.92-2.16-4.08.9.24,2.17.36,3.12.48Z"/>
      <path class="cls-13" d="M19.19,34.3c.15.15.17,3.98-.96,3.84l-.24-3.84h1.2Z"/>
      <path class="cls-12" d="M21.83,31.18c-.09.05-.15.19-.24.24-.18.1-.55.46-.6.46-1.29-.02,0-4.22.84-.7Z"/>
      <path class="cls-4" d="M21.83,30.22v.72s.24-.24.24-.24c.05.05.35-.03.48,0-.09.05-.51.34-.72.48-.84-3.52-2.13.67-.84.7.05,0,.42-.36.6-.46.39.44.08.68-.37.74-.98.12-2.06-1.03-1.31-1.7.04-.03.33.08.43-.04.22-.28-.18-1.09.65-1.17,1.04-.11.68.64.84.98Z"/>
      <path class="cls-3" d="M32.15,8.14c.32,0,.64,0,.96,0,.16,0,.32,0,.48,0,.39.02.8-.04,1.19.01.36.34.25,4.3-.09,4.8-.24.36-2.64.26-3.25.23-3.58-.22-2.74-1.52-2.89-4.64.13-.57,3-.4,3.61-.4ZM32.15,10.06s-.08-.29-.24-.36c-.7-.32-2.48-.14-2.64.71-.05.27-.06,1.62.04,1.77.26.41,3.04.31,3.29,0,.06-.07.3-1.62.29-1.74-.02-.3-.4-.08-.5-.14-.08-.06-.14-.18-.24-.24Z"/>
      <path class="cls-1" d="M21.59,12.46c-1.91.08-3.87.59-5.78.37-.46-.32-.17-3.92.13-4.46.41-.72,5.29-.64,5.82-.18.65.56.2,3.46-.18,4.26ZM19.67,9.82c-.84-.18-2.6-.77-2.87.61-.18.91-.2,1.69.82,1.81,2.38.28,3.11.17,2.77-2.41-.15-.03-.37.04-.48,0-.06-.02-.16.02-.24,0Z"/>
      <path class="cls-3" d="M28.55,13.42c.17.11,2.31,1.79,2.4,1.92.05.06-.04.54.23.84,2.48,2.79,2.99,2.6.69,6.19-.46.72-1.31,2.02-2.11,2.33.28-1.21.46-2.75.73-3.92.04-.18.43-.15.47-.33.67-2.78-1.81-4.54-2.39-7.04Z"/>
      <path class="cls-2" d="M27.83,13.18c-.02.09-.88,1.51-.96,1.56-.35.22-.82.11-1.2.12-.07-1.68.6-3.09-1.44-3.6.05-.02.09-.29.24-.36,1.54-.63,3.83.35,3.36,2.28Z"/>
      <path class="cls-8" d="M24.23,11.26c2.04.51,1.37,1.92,1.44,3.6-2.08.06-2.02-1.13-3.12-2.64.52-.25,1.11-.67,1.68-.96Z"/>
      <path class="cls-4" d="M17.75,25.9c.53.06,1.09.36,1.68.24.03.69-.02,1.52.24,2.16-.53-.43-2.92-.24-2.88-2.4.31.04.65-.04.96,0Z"/>
      <path class="cls-7" d="M30.23,5.74c.62.19.74.32,1.2.72-.06,1.33-2.81.71-2.9-.12-.12-1.16.96-.82,1.7-.6Z"/>
      <path class="cls-7" d="M21.11,5.5c.45,1.79-1.32,1.38-2.64,1.44-.39-1.44,1.62-1.42,2.64-1.44Z"/>
      <path class="cls-12" d="M18.47,23.98c.41-.62,1.06-.98,1.8-.98.85,0,2.65.21,3,.98.31.66.12,1.79.96,2.16-.11.11-.24.54-.24.72l-.72-.48c-.02.34.07.74,0,1.07-.18.76-.87.59.25,1.33-.29.11-.35.27-.82.27s-2.51-.18-2.86-.26c-.26-.06-.13-.47-.16-.48-.26-.64-.21-1.47-.24-2.16-.01-.34.06-1.62,0-1.68-.09-.08-.68.13-.91-.06-.12-.1-.02-.39-.05-.42Z"/>
      <path class="cls-5" d="M20.87,19.9c.14.01.45-.03.48,0,.04.04-.06.36.03.44.04.04.54-.22.94-.11.7.2,2.19,2.89,2.15,3.75-.4,0-.8,0-1.2,0-.36-.77-2.16-.99-3-.98-.74,0-1.38.37-1.8.98-.02-.02-.2.2-.48,0-.33-1.34-.24-2.71-.24-4.08,1.01.07,2.13-.1,3.12,0Z"/>
      <path class="cls-10" d="M21.35,19.9c0-.59.23-.74.81-.71.51.02,2.56.18,2.87.28.44.13,1.77,1.26,1.37,1.87.92-.2.83-1.34,2.16-.96.1.48-.1.64-.35.97s-1.95,2.28-2.16,2.4c-.59.34-.97.22-1.57.23.03-.87-1.46-3.55-2.15-3.75-.4-.12-.9.14-.94.11-.09-.08.02-.39-.03-.44Z"/>
      <path class="cls-10" d="M17.99,23.98c-.88-.62-3.46-5.85-2.88-6.48,2.04.44,5,.12,5.76,2.4-.99-.1-2.11.07-3.12,0,0,1.37-.09,2.74.24,4.08Z"/>
      <path class="cls-7" d="M23.03,17.26c-.06.06-1.53.3-1.2-.6.36-.96,1.68.11,1.2.6Z"/>
      <path class="cls-7" d="M28.43,17.03c.65-.15.82,1.06.23,1.2-.65.15-.82-1.06-.23-1.2Z"/>
      <path class="cls-7" d="M28.07,14.87c.5.51-.46,1.46-.96.96-.39-.39.57-1.35.96-.96Z"/>
      <path class="cls-1" d="M22.31,13.43c.26.26-.22.74-.48.48s.22-.74.48-.48Z"/>
      <path class="cls-3" d="M29.75,24.94c-.05.23-.26.4-.48.48-.06-.51-.03-.54.48-.48Z"/>
      <path class="cls-11" d="M33.59,8.14c-.16,0-.32,0-.48,0,.29-.56.57-.73.48,0Z"/>
      <path class="cls-14" d="M23.51,28.78c-1.12-.73-.42-.57-.25-1.33.08-.33-.01-.73,0-1.07l.72.48c-.03.96.73,1.46-.48,1.92Z"/>
      <path class="cls-9" d="M22.07,30.7l-.24.24v-.72c.04.09.22.46.24.48Z"/>
      <path class="cls-2" d="M32.15,10.06l-.48,1.44.72-1.2c.09.07.48-.16.5.14,0,.13-.24,1.67-.29,1.74-.25.31-3.04.41-3.29,0-.09-.15-.09-1.5-.04-1.77.16-.85,1.95-1.03,2.64-.71.16.07.19.33.24.36Z"/>
      <path class="cls-14" d="M32.15,10.06c.1.06.16.18.24.24l-.72,1.2.48-1.44Z"/>
      <path class="cls-2" d="M19.67,9.82c-1.19-.38-.91,1.66-.12,1.68l.36-1.68c.11.04.33-.03.48,0,.34,2.58-.39,2.69-2.77,2.41-1.02-.12-1-.9-.82-1.81.27-1.38,2.03-.78,2.87-.61Z"/>
      <path class="cls-14" d="M19.67,9.82c.08.02.18-.02.24,0l-.36,1.68c-.78-.02-1.07-2.06.12-1.68Z"/>
    </g>
  </g>
</svg>