<?xml version="1.0" encoding="UTF-8"?>
<svg id="Laag_2" data-name="Laag 2" xmlns="http://www.w3.org/2000/svg" viewBox="0 0 53 40.6">
  <defs>
    <style>
      .cls-1 {
        fill: #87a55f;
      }

      .cls-2 {
        fill: #40542e;
      }

      .cls-3 {
        fill: #35270a;
      }

      .cls-4 {
        fill: #4d4a51;
      }

      .cls-5 {
        fill: #493605;
      }
    </style>
  </defs>
  <g id="Laag_1-2" data-name="Laag 1">
    <g>
      <path class="cls-3" d="M35.78,16.44c-.35-.42-1.45-2.23-1.57-2.72-.03-.12-.05-.23-.03-.35.27-.07.27.19.37.26.04.03.11,0,.12.02.02.04,0,.14.03.21.39.87.82,1.74,1.36,2.52v.28c-.07-.05-.23-.15-.28-.21Z"/>
      <path class="cls-3" d="M1.33,38.03s.39-.69.45-.78c.03-.04.08-.25.18-.13.03.03-.24.61-.26.75-.03.19,0,.38-.02.58,0,.03,0,.13,0,.14-.03.02-.34-.05-.35-.07-.01-.02-.01-.43,0-.49Z"/>
      <path class="cls-3" d="M37.04,5.26c.27.7.69,1.57.91,2.24.12.37.23,1,.28,1.4.12.88.82,1.94.84,2.8,0,.12-.07.2-.07.21-.07-.05-.17-.14-.21-.21-.15-.28-.46-1.09-.56-1.4-.29-.89-.52-1.91-.77-2.8-.13-.46-.31-.94-.42-1.4-.03-.1-.17-.8-.14-.84,0,0,.1,0,.14,0Z"/>
      <path class="cls-3" d="M30.75,10.22s.02.12.07.14c.01.03-.01.1,0,.14l.28-.07c.08.18-.14.12-.14.18-.02.17,1.26,2.62,1.44,3.11.2.55.32,1.22.52,1.78l-.1.1c-.13-.07-.79-1.68-.91-1.96-.18-.44-.29-.92-.48-1.34-.41-.95-1.01-1.84-1.38-2.82-.03-.12.05-.14.14-.07.15.13.34.57.56.81Z"/>
      <path class="cls-1" d="M52.55,5.26l-.3,2.25c-.17.57-.23,1.23-.54,1.73-.06-.15-.3-.55-.4-.68-.07-.08-.08-.19-.23-.16.09.45.37.98.41,1.44.01.15.05.19-.13.17.12-.24-.61-1.05-.77-.91-.04.04.33.58.38.7.11.24.14.52.25.77-.05.02-.12.27-.14.35-.24-.42-.42-1.1-.98-1.19-.07.06.38.66.43.79.04.09.26.77.27.82,0,.12-.09.3-.21.35-.03-.35-.42-1.04-.74-1.18-.39-.16.15.54.2.64.07.17.14.34.13.54-.14-.11-.63-.83-.84-.63-.11.11.46.74.52.91.1.26.09.75.18.91-.8,1.11-1.59,2.24-2.48,3.29-2.07,2.42-3.55,3.64-6.59,4.73-1.41.51-2.94.97-4.42,1.21-.05-.3-.19-1.3-.29-1.49-.05-.09-.08-.14-.19-.12-.07.08.08,1.54.14,1.75h-.28c-.05-.45-.36-1.02-.31-1.54-.3.53-.16,1.13-.04,1.68-.06-.01-.14,0-.21,0-.09-.51-.23-.66-.17-1.26,0-.09.12-.24-.07-.21-.19.21-.27,1.43-.18,1.61-2.23.36-4.48.63-6.74.77-1.34.09-2.27-.06-3.57.42-3.37,1.25-5.55,4.98-7.72,7.65-2.97,3.66-8.18,9.82-13.52,8.08-.41-.13-.74-.39-1.15-.49.04-.49-.07-.7.14-1.19,0-.02.27-.35.1-.35-.2,0-.19.24-.24.35-.19.38-.23.45-.21.91l-.35-.21c0-.19-.02-.38.02-.58.02-.14.29-.72.26-.75-.1-.12-.15.09-.18.13-.06.09-.44.73-.45.78-.06-.03-.14-.08-.21-.07l.07-1.12c-.18.08-.31.37-.35.56h-.07c-.01-.2-.09-.39-.07-.67,0-.2.06-.44.14-.63l-.28.31c0-.23-.03-.47.03-.7.04-.17.17-.25.18-.41l-.31.21-.32.62c-.23-.24.19-1.19.14-1.26-.1-.12-.32.41-.28.11.1-.78.31-1.55.71-2.22.85-1.43,3.54-3.08,4.97-4.05,3.94-2.67,8.07-5.07,12.07-7.64.19-.11.99.87.89.23-.05-.3-.58-.42-.34-.58.33-.22.47.44.73.39.42-.09-.42-.61-.18-.74l3.36-2.16c.95-.74.75-2.07,1.01-3.18.49-2.05,1.63-4.11,2.87-5.8l.37.75c.04.18.19.4.14.59,0,.04-.31.66-.34.68-.04.03-.31-.11-.42-.07l.14.56c-.23-.1-.27-.48-.56-.49.17.56.52.7.21,1.33-.15.05-.24-.19-.31-.21-.38-.08.07.64.09.75.29,1.31.31,2.09,1.41,3.06,2.27,2,7.92,2.03,10.68,1.17,2.31-.72,4.72-2.46,6.65-3.9,2.69-2.01,7.7-6.28,5.75-10.14-.24-.48-.86-.93-1.01-1.23-.07-.15-.54-1.73-.47-1.8,2.09.37,3.3,1.96,3.89,3.9.11.35.15.71.23,1.06ZM24.53,12.81c-.12-.14-.45.6-.48.67-.45,1.03-.53,2.14-.36,3.24.13,0,.29.03.34-.11.1-.31-.02-1.3.02-1.73.06-.71.37-1.38.48-2.07ZM47.59,14.97c.13.13,1.8-1.4.77-1.29-.07.14-.82,1.24-.77,1.29ZM47.03,15.46c-.38-.07-.49.41-.7.66-.11.13-.83.74-.7.87.46.12,1.69-1.25,1.4-1.54ZM44.7,17.29c-.14.02-1.33,1.09-1.59,1.28-.8.58-1.86,1.15-2.8,1.46-.54.18-1.88.34-2.24.55-.24.14-.13.31.12.34,1.71.2,5.25-1.56,6.33-2.9.09-.12.59-.79.18-.73ZM32.42,20.72s-.2-.04-.2.02c.14,1.04.57.23.2-.02ZM31.66,21.47s.3.02.34-.12c.06-.17-.03-.4-.17-.51-.23-.05-.2.6-.17.63ZM27.61,21.82c1.02.12,2.59.08,3.55-.33.36-.15.25-.33-.07-.29-.5.07-1.07.33-1.63.4s-1.2.01-1.74.08c-.1.01-.21.05-.1.14ZM34.53,21.19c-.1-.11-2.42.54-2.78.61-1.31.27-2.83.48-4.17.51-1.74.05-2.85-.47-4.39.64-1.23.89-4.89,4.65-5.42,5.97-.04.1-.1.18-.08.3.07.08.6-.48.66-.56,1.6-1.82,2.85-3.64,4.82-5.17,1.72-1.34,3.16-.67,5.17-.77,1.3-.06,3.02-.29,4.28-.61.43-.11,1.53-.46,1.86-.72.07-.05.06-.2.04-.21ZM9.3,31.61c.05-.07.23-.14.28-.25.06-.16,1.05-1.22.98-1.29-.06-.06-.2.08-.25.14-.35.42-.72.92-1.08,1.33-.94,1.1-1.98,2.25-2.82,3.43-.2.28-.47.62-.46.97.24.25,1.03-1.15,1.13-1.28.72-1,1.47-2.09,2.22-3.05ZM8.08,31.47v.07s.05-.05,0-.07ZM8.01,31.61l-.1.1c0,.07.17-.04.1-.1ZM7.48,32.3s-.07,0-.07.03c.01.04.04.03.07.03.16.05.35-.41.42-.52-.22-.09-.36.31-.42.45ZM7.38,32.45c-.16.13-.31.24-.46.38-.54.55-1.35,1.43-1.81,2.03-.07.09-.53.6-.25.66.23.05,2.42-2.6,2.52-3.07ZM11.22,32.65c-.05.01-.22.23-.26.3-.11.17-.92,2.6-.95,2.83-.01.13-.04.21.09.29.32.1.61-.91.68-1.13.09-.27.64-2.07.6-2.18-.02-.06-.1-.13-.17-.11ZM8.67,36.99c.13.15.53-.57.57-.65.28-.58.47-1.23.55-1.86-.24.19-.3.58-.43.86-.12.26-.84,1.48-.69,1.65ZM12,34.83c-.32.1-1,1.1-.22.76.4-.18.93-.97.22-.76ZM8.74,35.03c-.14-.15-.39.65-.42.73-.12.35-.25.71-.21,1.08.18.02.26-.22.31-.35.18-.45.18-1,.32-1.47ZM11.17,35.82c-.29-.29-1.04.72-1.03.78.08.39,1-.34,1.09-.53.04-.08,0-.2-.06-.26ZM3.5,38.03c.01.56.97.86,1.43.91,1.37.14,2.53-.15,3.69-.85.51-.31,1.07-.67,1.24-1.28-.1-.49-1.18.56-1.3.65-1.46,1.02-3.42,1.36-5.05.57Z"/>
      <path class="cls-2" d="M1.33,38.03c-.01.05-.01.47,0,.49-.11-.13-.33-.27-.42-.45,0-.01.2-.1.21-.1.07,0,.15.04.21.07Z"/>
      <path class="cls-2" d="M1.33,38.52s.32.09.35.07c0,0,0-.11,0-.14l.35.21c0,.19-.02.54.21.49,0-.07,0-.14,0-.21.41.1.74.36,1.15.49,5.34,1.75,10.55-4.42,13.52-8.08,2.17-2.67,4.35-6.4,7.72-7.65,1.29-.48,2.23-.33,3.57-.42,2.26-.14,4.51-.41,6.74-.77,0,0,.08-.01.11.02.26.31.38.26.31-.16.07,0,.15-.01.21,0,.16.04.2.14.35.14,0-.09.01-.19,0-.28h.28c.05.17.21.4.42.35.05-.18-.04-.34-.07-.49,1.48-.24,3.01-.7,4.42-1.21,3.04-1.09,4.52-2.31,6.59-4.73.89-1.05,1.68-2.17,2.48-3.29,0,0,.13.1.14.1.33.11.18-.44.21-.63.04-.23.25-.2.21-.66.12-.05.22-.23.21-.35.34.06.23-.23.28-.42.02-.08.09-.33.14-.35.04-.02.16.04.22-.04.06-.1.05-.36.06-.38.12-.13.15.14.17.14.48.08.14-.82.04-1.05.31-.51.37-1.17.54-1.73l.3-2.25c.14.61.54,2.12.4,2.67-.02.1-.14.19-.18.31-2.25,7.4-8.07,12.97-15.65,14.67-3.66.82-6.92.7-10.6.93-1,.06-2.26.33-2.94,1.11-3.45,3.97-7.17,8.46-10.97,12.09-3.05,2.92-7.94,5.5-11.29,1.47Z"/>
      <path class="cls-4" d="M30.82,10.36s-.05-.12-.07-.14c0,.03.05.08.07.14Z"/>
      <path class="cls-4" d="M36.76,16.16c-.2.06-.45.2-.7.21-.55-.78-.98-1.65-1.36-2.52-.03-.07-.02-.17-.03-.21.35.31.59.67,1.08.84l1.02,1.67Z"/>
      <path class="cls-4" d="M30.82,10.36c.17.08.15-.1.12-.23-.1-.53-.86-2.17-.82-2.53.02-.2.63-.59.7-.53.54,1.5,1.16,2.98,1.68,4.47-.06.09-.8-1.55-.87-1.68s-.54-1.03-.73-.84c-.13.13.93,2.1,1.06,2.39.58,1.33,1.08,2.74,1.74,4.06.06.13.37.85.55.67.08-.07-.23-1.03-.3-1.21-.25-.68-.99-1.73-1.08-2.34-.01-.07-.07-.24.05-.23.14.48.37.92.67,1.33.22.11,0-.55-.02-.61-.34-1.08-1.01-2.23-1.45-3.3-.24-.58-.99-2.28-1.07-2.78-.03-.17-.01-.31.2-.3,0,.09.02.18.06.26,1.04,2.28,2.35,4.38,3.37,6.66,0,0-.08.02-.12-.02-.09-.07-.1-.34-.37-.26-.02.12,0,.23.03.35.12.49,1.22,2.31,1.57,2.72-2.73.34-5.86.61-8.46-.49-.23-.1-.57-.3-.68-.54-.05-.12-.08-.3-.09-.44.05,0,.54.62.49.24-.08-.55-.94-1.48-1.04-1.97-.03-.15,0-.33.07-.46.17-.3.2,0,.32.14.57.74,1.16,1.47,1.73,2.19.16.2.27.52.46.73.04.05.54.56.49.21s-.58-1.07-.76-1.41c.02-.29.16.23.25.25.09.02.28.04.23-.1l-2.16-3.02c-.05-.17.11-.49.27-.58,0,.19.41,1.09.63.91.01-.01-.01-.27.14-.28.07.37.62.94.69,1.24.04.19-.22.16-.03.58.14.3,1.87,2.73,2.03,2.79.09.04.13-.01.1-.1-.95-1.36-1.54-2.91-2.37-4.34l.13-.1c.07.19.73,1.37.8,1.4.4.13-.07-.58.17-.7l1.68,3.18c.06.07.13.03.18-.04.17-.26-.37-.88-.28-1.19.45.75.91,1.51,1.57,2.1l-1.39-2.97c-.05-.18.17-.07.2-.11.13-.15-.45-1.65-.56-1.91-.33-.74-.82-1.53-1.39-2.11-.16-.17-.53-.27-.56-.63-.02-.2.2-.31.32-.45.27.37.41.83.7,1.18.08.1.16.24.31.22.09-.09-.88-1.41-.67-1.75.03-.05.39-.3.49-.35.13.03.84,2.14.94,2.45-.22-.23-.41-.68-.56-.81-.09-.07-.18-.05-.14.07.37.98.96,1.87,1.38,2.82.18.42.29.9.48,1.34.12.28.78,1.89.91,1.96l.1-.1c-.2-.56-.33-1.23-.52-1.78-.18-.49-1.46-2.94-1.44-3.11,0-.06.23,0,.14-.18l-.28.07s.01-.11,0-.14Z"/>
      <path class="cls-4" d="M45.78,10.22c-.11-.5-.41-1.14-.49-1.64-.04-.29.14.15.24.1.06-.03.1-.1.1-.17.02-.31-.21-1.1-.31-1.44-.32-1.1-.85-2.03-1.31-3.02-.28-.58-.33-1.51-.68-2.11-.03-.17.16-.14.24-.03.22.28.31,1.3.6,1.64.06.07.11.12.21.1l.07-.42c.12.57.21,1.32.42,1.85.05.13.09.34.28.31,0-1.31-.56-2.52-.84-3.77.38-.12.35.31.49.39.09.05.24-.09.32.03.1.35.54,2.85.67,2.93.02.01.2.01.2,0,.11-.11-.54-2.87-.69-3.05-.14-.16-.36,0-.28-.31h1.15c.12,0,.17.61.35.7.2.1.06-.58.1-.63.04-.03.33,0,.34.12l1.62,5.82c-.07.05-.91.92-1.12,1.12-.1-.28-.08-.65-.14-.91.04-.01.1-.07.14-.07.01,0,.06.07.1.06.23-.06-.02-.38-.03-.55.04-.02.1-.06.14-.07.05-.02.19.02.21,0,.14-.16-.18-1.53-.24-1.82-.06-.27-.27-1.18-.39-1.35-.09-.12-.12-.13-.27-.11,0,.07,0,.14,0,.21h-.21c-.11-.77-.27-1.45-.61-2.15-.05-.09.05-.19-.16-.15l.62,2.57c-.27.69-.08,1.47.04,2.18.05.29.43,1.99.52,2.12.06.09.2.03.29.04-.54.49-1.05,1.07-1.68,1.47ZM45.78,5.19c-.44-.29-.21,1.03-.19,1.2.1.71.35,1.81.59,2.48.02.05.24.73.37.57-.13-.5-.59-4.14-.77-4.26Z"/>
      <path class="cls-5" d="M32.01,24.34v.49s.77-.07.77-.07c.17.6.48,1.62.73,2.17.09.2.17.36.35.49.22-.02.18-.2.16-.36-.04-.31-.54-1.67-.68-2.01l.77-.07c.41,1.35,1.09,2.77,1.68,4.05-.66-.05-1.33-.04-1.96-.28-.03-.36-.21-.22-.38-.42-.37-.42-.98-1.61-1.29-2.17-.09-.16-.15-.34-.25-.49-.29.03.08.42.11.49.15.32,1,2.16.98,2.34-.16.04-.82.32-.91.24l-1.96-3.84c.11.04.35-.02.49,0,0-.24.08-.45-.21-.49.5-.14,1.08-.05,1.61-.07Z"/>
      <path class="cls-5" d="M41.79,22.17l2.93-1.68c.03.87.35,1.7.48,2.56.1.68.13,1.37.22,2.05l-.84.14c.01-.24-.15-.27-.21-.46-.29-.93-.4-1.86-.76-2.8-.04-.1.07-.2-.15-.16.15,1.05.31,2.11.61,3.12-.24.39-.44.82-.68,1.21-.36.13-.69.33-1.05.49-.25-1.17-.62-2.38-1.05-3.49l1.05-.35c.06.45.51,2.8.73,3,.09.08.12.09.24.07.2-.2-.74-3.17-.84-3.63-.21-.03-.24,0-.21.21-.13.14-.39.1-.49.14v-.42ZM44.1,21.47h-.91s0,.49,0,.49c.27.04.21-.04.21-.28.27.08.53.04.7-.21Z"/>
      <path class="cls-5" d="M29.21,24.41v.56s.63,0,.63,0c.14.26.27.53.41.82.49,1.03,1.02,2.05,1.48,3.1l-2.87-.07c-.92-.94-1.36-2.45-2.17-3.56l1.05.14c.1.36.69,1.78.89,2.08.13.18.32.3.29-.01-.04-.41-.66-1.69-.91-2.06h.56c.13.39,1.15,3.02,1.36,3.07l.17-.11c-.41-1.34-1.09-2.6-1.47-3.95.19,0,.37,0,.56,0Z"/>
      <path class="cls-5" d="M50.6,15.88c.16,1.27.29,2.55.48,3.81,0,.24-.35.59-.48.8-.37.15-.61.55-.91.8s-.81.49-.98.87c-.08-.02-.31.03-.35,0-.11-.1-.41-2.61-.77-2.93.31-.31.59-.71.98-.91.06.49.35,2.31.51,2.67.09.19.32.3.39.08.05-.15.01-.44,0-.6-.07-.56-.48-2.1-.68-2.64.29-.05.36-.52.7-.56.03.21-.03.45,0,.66.12.14.28,1.04.35,1.09.3.2.29-.39.28-.52-.03-.49-.18-1.36-.28-1.85l.21-.07c.02.12.21.91.42.7.05-.04-.11-1.03-.14-1.19.08-.1.14-.22.28-.21Z"/>
      <path class="cls-5" d="M36.62,12.74s-.05-.04-.07-.07c0,.02.06.04.07.07Z"/>
      <path class="cls-2" d="M39.7,15.04c.01.22.26.3.35.49-.88.52-1.59.96-2.6,1.28-2.54.8-7.63.78-9.93-.66-.09-.06-.22-.02-.18-.2,2.6,1.1,5.72.83,8.46.49.05.06.21.16.28.21v-.28c.25,0,.5-.15.7-.21.04-.01.1.01.14,0,.93-.26,1.41-.49,2.24-.91.14-.07.43-.13.56-.21Z"/>
      <path class="cls-5" d="M47.52,19.38l.56,3.46c-.18.62-.62,1.4-1.33,1.43.13-1.16-.04-2.8-.42-3.91.43-.23.84-.63,1.19-.98Z"/>
      <path class="cls-1" d="M49.48,17.28c-.34.04-.41.5-.7.56-.04-.1-.14-.31-.28-.28.03.25.04.52.07.77-.39.2-.67.59-.98.91-.05.05-.06.13-.07.14-.35.35-.76.75-1.19.98-.02-.06-.24-.62-.35-.49-.03.04.12.71.14.84l-.91.49c-.06-.2-.42-.75-.32-.91.06-.1.99-.75,1.19-.91,1.13-.96,2.17-2.02,3.22-3.07.12.31.13.65.17.98Z"/>
      <path class="cls-5" d="M52.13,13.51c.03,1,.09,2.03.14,3.04.03.63.21,1.03-.02,1.66-.15.4-.37.74-.82.82-.22-1.25-.4-2.51-.56-3.77.3-.09.39-.58.63-.77.05.41.21,2.02.41,2.26.07.08.13.04.21.04.03-.93-.27-1.82-.42-2.73l.42-.56Z"/>
      <path class="cls-4" d="M30.1,12.48c.05.04.59,1.13.58,1.2,0,.04-.14.04-.15.09-.03.15.13.32.04.44-.35-.57-.64-1.2-1.09-1.71-.42-.48-1-.64-1.22-1.3-.06-.18.03-.3,0-.48-.08-.69-.69-1.11.13-1.68.28.64.59,1.27.89,1.91.25.55.37,1.18.81,1.53Z"/>
      <path class="cls-5" d="M46.13,20.7c.06.38.15.78.2,1.16.03.27.19,1.94.13,2.04-.02.04-.23.08-.3.23-.05.11-.14.65-.18.7-.03.04-.18.02-.14-.1-.23-1.16-.3-2.4-.63-3.53l.91-.49Z"/>
      <path class="cls-5" d="M41.02,23.36l.98,3.35s.02.1-.05.14c-.17.09-.58.13-.79.14.06-.12.08-.16.06-.29-.13-.93-.89-2.14-1.04-3.13l.84-.21Z"/>
      <path class="cls-5" d="M35.99,25.67c.06.29.74,1.97.9,2.13s.39.16.43-.08c.03-.19-.19-.47-.28-.66h.56v.77c-.17.04-.63.54-.8.67-.04.03-.1.02-.11.03-.04-.14-.49-.04-.49-.07v-1.4s-.68.03-.77,0c-.21-.46-.37-.93-.56-1.4h1.12Z"/>
      <path class="cls-5" d="M37.88,24.27c.15.57.73,2.28.98,2.8h-1.26c0-.38.02-.77,0-1.16,0-.13.07-.28-.14-.24,0-.35-.07-.93-.21-1.26l.63-.14Z"/>
      <path class="cls-1" d="M37.81,23.57c0,.07-.01.14,0,.21.02.14.04.39.07.49l-.63.14c-.03-.08-.32-.52-.42-.42.02.16.05.32.07.49-.31,0-.63.16-.91.21-.02,0-.05,0-.07,0-.44.08-.89.12-1.33.21,0,0-.09-.04-.12-.12-.04-.11-.28-.59-.23-.65,1.18-.18,2.4-.29,3.56-.56Z"/>
      <path class="cls-4" d="M49.2,6.8c.03.29-.24.41-.35.56l-1.47-5.52s.33.11.38.15c.28.22.22,1.94.57,2.3.09.09.21,0,.25.03.13.1.33,1.54.39,1.84.04.2.22.54.23.64Z"/>
      <path class="cls-5" d="M40.05,24.27c.09.31.79,2.33.69,2.44-.01.01-.23.07-.34.15v-1.19h-1.4v-1.4h1.05Z"/>
      <path class="cls-1" d="M28.59,25.39h-.56c-.08-.13-.21-.24-.32-.35.02.11,0,.25.04.35l-1.05-.14c-.18-.24-.56-.46-.56-.77.07-.07,1.86-.11,2.06-.07.26.05.3.74.38.98Z"/>
      <path class="cls-1" d="M28.79,7.97c-.19.01-1.05,1.04-1.11.99-.03-.36-.42-.86-.34-1.2.07-.3.73-.77.93-1.03.1.17.58,1.14.51,1.25Z"/>
      <path class="cls-4" d="M33.2,8.2c-.11.01-.3-.04-.34.11-.05.17.26.62.28.83,0,.06-.21.05-.27.02-.13-.07-1.13-2.37-1.27-2.7l.55-.29c.25.73.7,1.36,1.05,2.03Z"/>
      <path class="cls-1" d="M30.54,4.91c-.02.29.46,1.18.42,1.36-.01.06-.1.14-.17.04-.03-.05-.29-.95-.45-.77.1.79.5,1-.38,1.47l-.51-1.28c.12-.17.97-.91,1.1-.81Z"/>
      <path class="cls-5" d="M52.9,11.97c0,1.54.16,3.21.07,4.72-.01.18-.04.35-.07.52-.1.02-.11-.19-.12-.26-.15-1.03-.26-2.43-.3-3.48,0-.21-.04-.61,0-.8,0-.04.27-.66.29-.69.02-.03.09-.01.13,0Z"/>
      <path class="cls-1" d="M32.99,3.3c.06.2-.08.42-.07.59.02.24.3.74.2,1.04-.03.09-.61.43-.72.39-.14-.04-.52-1.22-.45-1.42.03-.08,1-.65,1.04-.61Z"/>
      <path class="cls-1" d="M45.99,1.07c-.3-.09-.97.17-1.19.04-.1-.06-.43-.86-.56-1.01.08-.08,1.36-.11,1.47-.04.07.04.32.97.28,1.02Z"/>
      <path class="cls-5" d="M41.79,22.17v.42c-.1.04-.43.3-.56.35-.06.02-.13.04-.21.07-.19.07-.87.28-1.05.28-.04,0-.22-.12-.28-.07-.02.02.02.17,0,.21s-.58.17-.7.21v-.42c.95-.29,1.86-.7,2.8-1.05Z"/>
      <path class="cls-5" d="M38.86,27.06s.12.19.14.21v.77c-.19.01-.72.04-.86,0-.07-.02-.09-.32-.54-.21v-.77h1.26Z"/>
      <path class="cls-1" d="M38.85,1c-.01.31.35,1.13.29,1.35,0,.03-.54.2-.59.19-.07-.01-.56-1.15-.6-1.33l.91-.21Z"/>
      <path class="cls-5" d="M35.92,24.69c0,.31,0,.68.07.98h-1.12c-.11-.26-.19-.55-.28-.77.44-.09.89-.13,1.33-.21Z"/>
      <polygon class="cls-1" points="40.88 .58 41.16 1.77 40.33 1.98 39.98 .72 40.88 .58"/>
      <path class="cls-1" d="M35.85,2.05c-.02.35.49,1.05.43,1.35,0,.04-.5.28-.59.25-.07-.02-.54-1.28-.52-1.35.03-.14.62-.31.69-.25Z"/>
      <path class="cls-1" d="M31.73,28.88c0,.14-.81.35-.98.38-.69.14-1.25.22-1.82-.28-.06-.05-.05-.16-.07-.18l2.87.07Z"/>
      <path class="cls-1" d="M35.78,29.02s.16.05.14.17c-.21.26-.6.49-.93.46-.18-.02-1.19-.55-1.22-.67-.02-.07.06-.18.06-.24.63.24,1.3.23,1.96.28Z"/>
      <path class="cls-1" d="M29.01,7.64c.02-.31-.45-.9-.42-1.15.01-.11.46-.45.6-.52.06.01.46,1.13.45,1.23,0,.18-.53.53-.62.45Z"/>
      <path class="cls-1" d="M43.4,26.15c-.29.45-.64.98-1.19,1.15-.23.07-1.19.19-1.19-.14,0-.13.13-.15.14-.17.21,0,.62-.05.79-.14.07-.04.04-.13.05-.14.02,0,.12.03.35-.07.36-.16.68-.36,1.05-.49Z"/>
      <path class="cls-1" d="M31.45,4.28c-.03.38.57,1.23.35,1.5-.12.15-.34.25-.48.06-.05-.07-.5-1.05-.5-1.11,0-.18.57-.5.63-.45Z"/>
      <path class="cls-1" d="M50.88,15.25c-.03-.28-.18-.63-.14-.94.01-.08.51-1.05.56-1.09,0,0,.15-.03.14.03.02.39.03.84.07,1.22-.24.19-.33.68-.63.77Z"/>
      <path class="cls-1" d="M52.9,11.97s-.11-.02-.13,0c-.02.03-.28.65-.29.69-.08-.31-.24-.91-.21-1.22,0-.06.47-1.08.52-1.16.02-.03.09-.09.1-.07,0,.58,0,1.17,0,1.75Z"/>
      <path class="cls-1" d="M36.9,1.63l.42,1.36s-.45.2-.52.19c-.07-.01-.49-1.21-.53-1.4l.63-.14Z"/>
      <path class="cls-1" d="M50.6,20.49c-.23.35-1.24,1.99-1.64,1.96-.03,0-.14-.25-.25-.28.17-.38.67-.6.98-.87s.54-.66.91-.8Z"/>
      <path class="cls-1" d="M52.13,13.51l-.42.56c-.04-.24-.22-.98-.2-1.14.04-.3.51-.82.55-1.17.12-.02.07.16.07.24.02.5-.02,1,0,1.5Z"/>
      <path class="cls-5" d="M35.43,27.06c.09.03.77-.04.77,0v1.4s.45-.07.49.07c-.1.08-.2.39-.42.25-.11-.07-.73-1.47-.84-1.72Z"/>
      <path class="cls-1" d="M44.38,1.21c-.42.12-.2-.28-.49-.28v.35c-.06,0-.15.02-.2,0-.05-.03-.38-.95-.43-1.11.2.06.55-.14.7-.04.07.04.46,1.05.42,1.09Z"/>
      <path class="cls-1" d="M41.93.37s.33,1.14.29,1.18l-.63.07c.07-.44-.28-.76-.28-1.19.15.05.54-.12.62-.06Z"/>
      <path class="cls-1" d="M47.44.1c.05.05.2,1.14.29,1.32-.16,0-.41-.02-.52-.14-.04-.04-.42-1.04-.45-1.16-.04-.2.66-.04.68-.02Z"/>
      <path class="cls-1" d="M33.34,25.04c-.04-.11-.47-.71-.42-.77l1.01-.14c.08,0,.15.74.18.84l-.77.07Z"/>
      <path class="cls-1" d="M26.98,8.27c.07.65.67,1.11.04,1.68-.06,0-.51-1.1-.51-1.16,0-.13.38-.6.48-.51Z"/>
      <path class="cls-1" d="M42.84.23c0,.19.15,1.11.07,1.18-.01.01-.4.09-.41.07-.05-.04-.4-1.14-.35-1.19l.7-.07Z"/>
      <path class="cls-5" d="M40.19,27.06c-.48.63-.24.93-1.19.98v-.77c.29.39.5.29.42-.21h.77Z"/>
      <path class="cls-5" d="M30.4,24.41c.29.04.21.25.21.49-.14-.02-.38.03-.49,0-.09-.03-.14-.29-.35-.21-.02.02.05.23.07.28h-.63s0-.56,0-.56c.34,0,.88-.05,1.19,0Z"/>
      <path class="cls-5" d="M39,23.22v.42c-.3.1-.59.23-.91.28,0-.01-.24-.14-.28-.14-.01-.07,0-.14,0-.21.34-.08.83-.24,1.19-.35Z"/>
      <path class="cls-1" d="M39.7,23.43c.2-.04.16.14.21.28-.59.1-1.14.41-1.75.42-.04-.08-.06-.2-.07-.21.32-.05.61-.18.91-.28.12-.04.68-.17.7-.21Z"/>
      <path class="cls-1" d="M37.74,2.81c-.01-.19-.48-1.35-.42-1.39.04-.03.25,0,.32.07.04.04.51,1.04.51,1.1.01.16-.28.25-.41.23Z"/>
      <path class="cls-1" d="M46.54.02s.19,1.02.28,1.18c-.03.03-.37-.05-.42-.12-.03-.04-.31-.87-.34-.98-.04-.16.46-.11.48-.09Z"/>
      <path class="cls-4" d="M30.82,13.23c-.29-.33-.43-.74-.67-1.12-.06-.1-.19-.11-.24-.2-.13-.23-.26-.85-.35-1.13.3.39.58.89.8,1.33.18.35.37.74.45,1.12Z"/>
      <path class="cls-1" d="M50.6,15.88c-.14,0-.2.11-.28.21-.12-.55-.51-.72.11-1.26.16.31.13.71.17,1.05Z"/>
      <path class="cls-1" d="M45.43,25.11c.02.13.1.27.07.42l-.98.07c-.02-.12.07-.24.07-.35l.84-.14Z"/>
      <path class="cls-5" d="M32.71,24.27s0,.09,0,.14c0,.17.03.21.07.35l-.77.07v-.49c.22,0,.46-.12.7-.07Z"/>
      <polygon class="cls-1" points="39.63 .79 39.98 2.12 39.29 1.02 39.28 .86 39.63 .79"/>
      <path class="cls-1" d="M49.83,16.65s-.1-.08-.12-.19c-.06-.28-.2-.71.16-.86.15-.06.09.1.1.18.03.24.03.57.07.8l-.21.07Z"/>
      <path class="cls-1" d="M41.02,23.01v.35l-.84.21-.21-.28c.18,0,.86-.21,1.05-.28Z"/>
      <path class="cls-4" d="M27.33,13.65c-.3-.33-.65-.8-.88-1.19-.05-.09-.14-.14-.1-.28.36.41.97.89.98,1.47Z"/>
      <path class="cls-1" d="M43.12.23s.32,1.08.28,1.12c-.29.27-.38-.9-.4-1.03-.02-.14.09-.12.12-.09Z"/>
      <path class="cls-2" d="M43.05,1.91c.06.06.28,1.46.35,1.68l-.47-1.45c-.07-.07,0-.36.12-.23Z"/>
      <path class="cls-4" d="M44.31,2.88c-.1.02-.09-.12-.12-.19-.05-.14-.34-.95-.3-1,.2-.23.43,1.09.42,1.19Z"/>
      <path class="cls-1" d="M36.48,6.73h-.07c-.14-.29-.38-.59-.49-.91.03,0,.06-.04.07-.07.14.31.42.62.49.98Z"/>
      <path class="cls-4" d="M32.01,26.15c-.03-.07-.4-.46-.11-.49.09.15.15.33.25.49h-.14Z"/>
      <path class="cls-2" d="M.84,37.41c-.02.09.04.49-.03.49-.21-.15-.03-.44-.03-.49h.07Z"/>
      <path class="cls-2" d="M43.75,4.56l-.07.07c-.02-.1-.21-.3-.14-.49.14.04.16.3.21.42Z"/>
      <path class="cls-2" d="M40.05,3.72c-.14-.05-.12-.37-.14-.49.16.05.14.35.14.49Z"/>
      <path class="cls-4" d="M27.26,10.5s.22.21.17.28c-.09-.09-.2-.15-.17-.28Z"/>
      <path class="cls-4" d="M41.3,13.93s.19.02.21,0c.1-.12-.58-1.8-.67-2.09-.38-1.22-.72-2.38-1.25-3.57-.29-.65-.94-1.6-1.07-2.22-.07-.33.25.04.18-.39-.07-.39-.8-2.13-.75-2.31.03-.11.42-.22.48-.18l1.3,2.51c.15-.11.1-.13.05-.26-.11-.33-1.1-2.34-.99-2.46l.56-.14.49,1.57c-.09.13-.07-.27-.21-.1-.12.14.9,3.15,1.05,3.53.18.46.32.61.35-.04.04,0,.08.04.1.07.33.51.65,2.02.89,2.67.05.14.37.86.44.89.18.08.09-.33.09-.37-.25-1.53-1.28-3.16-1.89-4.54-.07-.16-.52-1.4-.47-1.45.39-.1.08.44.49.35.08-.98-.34-1.87-.56-2.8.12.02.12.14.16.23.2.44.32.93.51,1.38.22.56.72,2.08.95,2.47.08.13.21.08.27.16.16.25.95,2.45,1.12,2.92.15.4.38,1.85.8,1.92.25.04-.03-.25-.06-.36-.5-1.82-.9-3.58-1.8-5.25-.15-.28-.39-.5-.51-.74-.41-.82-.5-2.04-.87-2.9,0-.05.56-.15.62-.1.07.06.36,1.47.58,1.83.05.09.07.15.19.12l.07-.28.35,1.36-.2.07,2.2,5.49.17-.17c-.19-1.12-.41-2.23-.65-3.34-.07-.33-.31-.96-.32-1.23,0-.16.22-.1.2-.26-.11-.41-.13-.89-.22-1.3l.07-.07c.06.15.18.7.38.7.16,0-.15-.65.03-.7.41,1.26.81,2.54,1.08,3.84l-1.03-2.81c-.16-.25-.22-.14-.18.11.21,1.26.98,3.56,1.52,4.73l-2.45,2.2c-.15.34-.47.61-.74.87-.07.07-.18.06-.22.09-.12.12.04.41-.12.54-.18.16-.27-.11-.32-.07-.05.03-.23.57-.53.35.13.59-.36.32-.38.35-.02.02.01.21,0,.28-.04.21-.37.33-.57.45-.07.04-.18.02-.2.04-.09-.19-.33-.27-.35-.49.02-.01.05-.09.11-.13.21-.12.54-.19.59-.43.44-.05.59-.38.91-.56ZM41.65,11.55c.12-.1-.96-2.54-1.07-2.88-.34-1.05-.53-1.95-1.09-2.97-.1-.19-.27-.57-.5-.58-.15.16.79,2.14.91,2.48.27.76.43,1.58.73,2.34.12.3.61,1.39.8,1.56.06.05.18.07.21.05ZM42.35,12.6c-.1-.88-.37-1.81-.67-2.65-.15-.44-.37-1.05-.59-1.44s-.23-.11-.18.18c.18.99.81,2.8,1.26,3.7.04.08.06.19.17.21ZM43.33,11.9c-.18-.82-.33-1.73-.58-2.53-.04-.13-.21-.71-.36-.68-.24.05.02,1.07.07,1.26.16.62.49,1.45.88,1.95Z"/>
      <polygon class="cls-2" points="43.54 4.07 43.47 4.07 43.4 3.65 43.47 3.65 43.54 4.07"/>
      <path class="cls-4" d="M44.38,3.16h-.07c-.03-.29.1-.29.07,0Z"/>
      <path class="cls-2" d="M39.84,2.95h-.07c-.03-.29.1-.29.07,0Z"/>
      <path class="cls-2" d="M39.91,3.16s-.12-.04-.07-.14c.02-.05.12.04.07.14Z"/>
      <path class="cls-1" d="M32.71,24.41s0-.09,0-.14c.1,0,.09.1,0,.14Z"/>
      <path class="cls-4" d="M43.61,7.85s-.12-.04-.07-.14c.02-.05.12.04.07.14Z"/>
      <path class="cls-4" d="M27.71,11.2c.06.06.17.19.14.28-.06-.06-.17-.19-.14-.28Z"/>
      <path class="cls-4" d="M41.02,7.64s-.12-.04-.07-.14c.02-.05.12.04.07.14Z"/>
      <path class="cls-4" d="M28.03,11.76c-.03.07-.13-.14-.1-.21.08.06.13.11.1.21Z"/>
      <path class="cls-2" d="M40.81,15.04c.01-.07-.02-.26,0-.28.02-.03.51.24.38-.35.3.22.48-.32.53-.35.05-.04.14.23.32.07.16-.14,0-.42.12-.54.03-.03.15-.02.22-.09.27-.26.6-.53.74-.87l2.45-2.2c.03.07.07.13.07.21.28.01.18-.25.14-.42.63-.4,1.14-.97,1.68-1.47.21-.19,1.05-1.07,1.12-1.12.03-.02.18.03.25-.07.05-.07.02-.19.03-.21.11-.15.38-.27.35-.56h.28c0-.16,0-.33,0-.49.23-.1.16-.41.35-.56-.45,3.54-5.27,6.83-8.01,8.72-.3.21-.65.5-1,.57Z"/>
      <path class="cls-4" d="M32.64,11.9s-.12-.04-.07-.14c.02-.05.12.04.07.14Z"/>
      <path class="cls-4" d="M42.56,5.61s-.12-.04-.07-.14c.02-.05.12.04.07.14Z"/>
      <path class="cls-4" d="M27.36,13.72s.05.05,0,.07v-.07Z"/>
      <path class="cls-4" d="M30.65,14.28s.05.05,0,.07v-.07Z"/>
      <path class="cls-4" d="M42.42,2.05s0,.25.03.35c.2.84.39,1.16.72,1.86.19.39.21,1.11.43,1.53-.06.04-.24-.08-.28-.04-.13.14.22,1.6.21,1.89l-.6-1.26c.05-1.25-.67-2.41-1.09-3.52-.04-.09-.16-.72-.13-.74.13.02.64-.13.7-.07Z"/>
      <path class="cls-4" d="M32.53,11.62s.05.05,0,.07v-.07Z"/>
      <path class="cls-4" d="M30.72,14.41s.05.05,0,.07v-.07Z"/>
      <path class="cls-4" d="M26.52,14.83s.05.05,0,.07v-.07Z"/>
      <path class="cls-4" d="M30.86,13.3s.05.05,0,.07v-.07Z"/>
      <path class="cls-4" d="M27.64,11.06s.05.05,0,.07v-.07Z"/>
      <path class="cls-4" d="M27.5,10.85s.05.05,0,.07v-.07Z"/>
      <path class="cls-1" d="M47.66.16c.14,0,.37-.05.46.07.15.2.24,1.3.35,1.61-.62-.24-.54-1.13-.8-1.68Z"/>
      <path class="cls-3" d="M34.53,21.19s.02.16-.04.21c-.32.25-1.43.61-1.86.72-1.26.32-2.98.55-4.28.61-2.02.1-3.45-.57-5.17.77-1.97,1.53-3.22,3.35-4.82,5.17-.07.07-.59.64-.66.56-.02-.12.04-.2.08-.3.52-1.32,4.19-5.09,5.42-5.97,1.54-1.11,2.66-.59,4.39-.64,1.34-.03,2.86-.25,4.17-.51.36-.07,2.68-.71,2.78-.61Z"/>
      <path class="cls-3" d="M44.7,17.29c.41-.06-.09.61-.18.73-1.07,1.35-4.62,3.1-6.33,2.9-.25-.03-.37-.2-.12-.34.36-.21,1.7-.37,2.24-.55.95-.31,2-.88,2.8-1.46.26-.19,1.45-1.26,1.59-1.28Z"/>
      <path class="cls-3" d="M3.5,38.03c1.64.79,3.6.45,5.05-.57.13-.09,1.21-1.14,1.3-.65-.17.61-.73.97-1.24,1.28-1.16.7-2.32.99-3.69.85-.46-.05-1.42-.35-1.43-.91Z"/>
      <path class="cls-3" d="M9.3,31.61c-.75.96-1.5,2.06-2.22,3.05-.1.13-.89,1.53-1.13,1.28-.01-.35.26-.69.46-.97.84-1.18,1.88-2.33,2.82-3.43l.07.07Z"/>
      <path class="cls-3" d="M11.22,32.65c.07-.02.15.05.17.11.03.11-.51,1.91-.6,2.18-.07.22-.36,1.23-.68,1.13-.13-.09-.11-.16-.09-.29.02-.23.84-2.67.95-2.83.04-.07.21-.29.26-.3Z"/>
      <path class="cls-3" d="M24.53,12.81c-.11.69-.42,1.36-.48,2.07-.04.43.08,1.42-.02,1.73-.05.15-.21.12-.34.11-.17-1.1-.09-2.21.36-3.24.03-.07.35-.81.48-.67Z"/>
      <path class="cls-3" d="M50.6,11.69c.04.47-.16.43-.21.66-.04.19.12.74-.21.63,0,0-.13-.1-.14-.1-.09-.16-.08-.65-.18-.91-.07-.17-.63-.8-.52-.91.21-.2.7.52.84.63.02-.19-.05-.37-.13-.54-.04-.1-.59-.8-.2-.64.33.13.72.83.74,1.18Z"/>
      <path class="cls-3" d="M7.38,32.45c-.09.48-2.28,3.12-2.52,3.07-.28-.06.18-.57.25-.66.46-.6,1.27-1.48,1.81-2.03.14-.15.3-.25.46-.38Z"/>
      <path class="cls-3" d="M51.72,9.24c.1.23.45,1.13-.04,1.05-.02,0-.06-.27-.17-.14-.01.01,0,.28-.06.38-.06.08-.18.02-.22.04-.11-.24-.14-.53-.25-.77-.05-.11-.42-.66-.38-.7.16-.14.89.66.77.91.18.02.15-.02.13-.17-.04-.46-.32-.98-.41-1.44.14-.03.16.07.23.16.1.13.34.53.4.68Z"/>
      <path class="cls-3" d="M27.61,21.82c-.11-.09,0-.13.1-.14.54-.07,1.2-.02,1.74-.08.57-.07,1.13-.33,1.63-.4.33-.04.43.13.07.29-.96.41-2.53.45-3.55.33Z"/>
      <path class="cls-3" d="M47.03,15.46c.29.29-.94,1.66-1.4,1.54-.14-.14.59-.74.7-.87.21-.25.32-.73.7-.66Z"/>
      <path class="cls-3" d="M8.67,36.99c-.15-.17.57-1.4.69-1.65.13-.28.19-.67.43-.86-.07.64-.26,1.29-.55,1.86-.04.08-.44.8-.57.65Z"/>
      <path class="cls-3" d="M36.55,22.1c.03.15.12.3.07.49-.21.06-.37-.18-.42-.35-.06-.2-.21-1.67-.14-1.75.12-.02.14.03.19.12.1.18.24,1.19.29,1.49Z"/>
      <path class="cls-3" d="M51.09,10.92c-.05.19.06.48-.28.42,0-.04-.23-.73-.27-.82-.05-.13-.5-.73-.43-.79.56.09.73.76.98,1.19Z"/>
      <path class="cls-3" d="M11.17,35.82c.06.06.09.17.06.26-.08.19-1.01.92-1.09.53-.01-.07.74-1.07,1.03-.78Z"/>
      <path class="cls-3" d="M47.59,14.97c-.05-.05.7-1.15.77-1.29,1.03-.11-.64,1.42-.77,1.29Z"/>
      <path class="cls-3" d="M34.94,22.52c-.1-.18-.02-1.39.18-1.61.19-.03.08.12.07.21-.06.6.09.75.17,1.26.07.42-.04.47-.31.16-.03-.04-.11-.02-.11-.02Z"/>
      <path class="cls-3" d="M35.92,22.24c.01.09,0,.19,0,.28-.14,0-.19-.1-.35-.14-.12-.55-.27-1.15.04-1.68-.05.52.26,1.09.31,1.54Z"/>
      <path class="cls-3" d="M8.74,35.03c-.14.46-.14,1.02-.32,1.47-.05.13-.13.37-.31.35-.04-.38.09-.73.21-1.08.03-.08.28-.88.42-.73Z"/>
      <path class="cls-3" d="M12,34.83c.71-.21.18.58-.22.76-.78.34-.1-.67.22-.76Z"/>
      <path class="cls-3" d="M2.38,37.75c-.21.49-.1.7-.14,1.19,0,.07,0,.14,0,.21-.23.05-.2-.3-.21-.49-.02-.45.02-.52.21-.91h.14Z"/>
      <path class="cls-2" d="M9.23,31.54c.36-.42.73-.91,1.08-1.33.05-.05.19-.19.25-.14.07.07-.92,1.13-.98,1.29-.05.11-.22.18-.28.25l-.07-.07Z"/>
      <path class="cls-3" d="M31.66,21.47s-.06-.68.17-.63c.13.11.22.34.17.51-.04.13-.31.15-.34.12Z"/>
      <path class="cls-2" d="M32.42,20.72c.37.25-.05,1.06-.2.02,0-.06.15-.05.2-.02Z"/>
      <path class="cls-2" d="M7.48,32.3c.06-.15.2-.55.42-.45-.07.11-.26.57-.42.52v-.07Z"/>
      <path class="cls-2" d="M2.24,37.75c.06-.11.04-.35.24-.35.17,0-.1.33-.1.35h-.14Z"/>
      <path class="cls-2" d="M8.01,31.61c.07.06-.11.18-.1.1l.1-.1Z"/>
      <path class="cls-2" d="M8.08,31.47s.05.05,0,.07v-.07Z"/>
      <path class="cls-3" d="M7.48,32.37s-.06,0-.07-.03c0-.04.07-.03.07-.03v.07Z"/>
      <path class="cls-3" d="M41.65,11.55s-.15,0-.21-.05c-.19-.18-.68-1.26-.8-1.56-.3-.76-.46-1.59-.73-2.34-.12-.34-1.06-2.31-.91-2.48.23.02.4.39.5.58.56,1.02.74,1.92,1.09,2.97.11.34,1.18,2.78,1.07,2.88Z"/>
      <path class="cls-3" d="M42.35,12.6c-.11-.02-.13-.13-.17-.21-.46-.89-1.08-2.71-1.26-3.7-.05-.29-.04-.57.18-.18s.44,1,.59,1.44c.29.84.57,1.77.67,2.65Z"/>
      <path class="cls-3" d="M43.33,11.9c-.39-.5-.72-1.33-.88-1.95-.05-.19-.31-1.21-.07-1.26.15-.03.32.56.36.68.25.8.4,1.71.58,2.53Z"/>
      <path class="cls-3" d="M47.45,8.75c-.09-.01-.23.05-.29-.04-.09-.14-.47-1.83-.52-2.12-.13-.71-.31-1.5-.04-2.18l-.62-2.57c.2-.04.11.06.16.15.34.7.5,1.38.61,2.15.01.09.05.19.07.28,0,.04,0,.1,0,.14,0,.06.07.13.07.14-.02.61,0,.8.07,1.4.08.64.22,1.16.35,1.75.06.26.04.63.14.91Z"/>
      <path class="cls-3" d="M45.78,5.19c.18.12.64,3.76.77,4.26-.13.15-.35-.52-.37-.57-.24-.67-.49-1.77-.59-2.48-.02-.17-.25-1.49.19-1.2Z"/>
      <path class="cls-3" d="M46.96,4.14c0-.07,0-.14,0-.21.15-.02.18,0,.27.11.13.18.33,1.08.39,1.35.07.29.38,1.66.24,1.82-.02.02-.16-.02-.21,0-.06-.38-.2-.75-.28-1.12-.1-.47-.24-.95-.35-1.4,0-.04,0-.1,0-.14-.03-.15-.07-.26-.07-.42Z"/>
      <path class="cls-3" d="M47.45,7.78c-.02-.25-.17-.33.07-.49,0,.17.25.5.03.55-.04.01-.09-.06-.1-.06Z"/>
      <path class="cls-5" d="M47.03,4.56h-.21s0-.1,0-.14.13-.17.07-.28h.07c0,.16.04.27.07.42Z"/>
      <path class="cls-3" d="M41.23,22.94c0,.08.04.14.07.21.43,1.12.8,2.32,1.05,3.49-.23.1-.33.06-.35.07l-.98-3.35v-.35c.08-.03.15-.05.21-.07Z"/>
      <path class="cls-3" d="M42.28,22.45c-.04-.21,0-.24.21-.21.1.47,1.04,3.43.84,3.63-.12.02-.16,0-.24-.07-.23-.21-.67-2.55-.73-3-.02-.13-.05-.25-.07-.35Z"/>
      <path class="cls-1" d="M42.35,22.8l-1.05.35c-.03-.07-.07-.13-.07-.21.13-.05.46-.31.56-.35s.36,0,.49-.14c.02.1.05.22.07.35Z"/>
      <path class="cls-5" d="M44.1,21.47c-.16.25-.43.29-.7.21,0,.24.06.32-.21.28v-.49s.91,0,.91,0Z"/>
      <path class="cls-3" d="M28.03,25.39c.25.37.87,1.65.91,2.06.03.32-.17.2-.29.01-.2-.29-.8-1.71-.89-2.08-.03-.1-.01-.24-.04-.35.11.11.23.22.32.35Z"/>
      <path class="cls-3" d="M48.78,17.84c.2.54.61,2.08.68,2.64.02.16.05.45,0,.6-.07.22-.3.12-.39-.08-.16-.36-.44-2.18-.51-2.67-.03-.25-.04-.52-.07-.77.14-.03.24.18.28.28Z"/>
      <path class="cls-3" d="M34.04,8.89c-.24-.5-.87-1.87-.96-2.36-.04-.19-.02-.18.19-.15.39.76.81,1.5,1.19,2.27.1.2.24.68.35.82.07.09.22,0,.35.16.27.33.67,1.66.9,2.17.16.34.31.56.5.86.02.03.07.06.07.07.01.04.01.34,0,.35-.04.04-.41-.1-.35.1.19.44.43.86.63,1.29.04.09.5,1.02.08.75l-1.2-2.15c-.09-.46-.35-.94-.42-1.4-.06-.34.16-.44-.15-.86-.47-.65-.82-1.19-1.18-1.93Z"/>
      <path class="cls-3" d="M36.55,12.67c-.02-.05-.01-.16-.05-.26-.28-.67-.8-1.56-.99-2.23-.04-.12.06-.14.14-.07.87,1.74,1.93,3.43,2.44,5.31-.3.17-.27-.29-.49-.38-.03-.22-.16-.3-.21-.42-.25-.63-.51-1.27-.77-1.89-.01-.03-.06-.05-.07-.07Z"/>
      <path class="cls-3" d="M36.9,10.29c.34,1.44,1.28,2.71,1.47,4.19-.18.18-.59-.61-.64-.72-.39-.9-.85-2.09-1.17-3.02-.17-.48-.37-.99-.35-1.5.25.06.45.9.7,1.05Z"/>
      <path class="cls-3" d="M35.92,5.82c.11.31.35.62.49.91.1.22.27.56.35.77.15.41.28.96.42,1.4.1.33.25.66.35.98.03.1.13.38.14.42.02.12-.07.23-.07.28-.16.08-.35-.22-.42-.35-.17-.34-.35-.94-.49-1.33s-.28-.8-.42-1.19c-.02-.07-.05-.14-.07-.21-.13-.38-.44-1.05-.49-1.4s0-.25.21-.28Z"/>
      <path class="cls-3" d="M38.37,11.69c.26.57.88,2.21.98,2.8.08.46-.1.46-.35.14-.07-.58-.91-2.17-1.12-2.93-.03-.12-.17-.69.1-.63.15.14.17.34.26.52.03.06.12.1.13.11Z"/>
      <path class="cls-3" d="M37.81,23.78s.27.13.28.14c0,0,.03.13.07.21.25.48,1.19,2.5,1.26,2.93.08.5-.13.6-.42.21-.02-.02-.13-.2-.14-.21-.24-.51-.83-2.22-.98-2.8-.03-.1-.05-.35-.07-.49Z"/>
      <path class="cls-3" d="M36.41,25.67c.2.47.41.93.63,1.4.09.19.31.47.28.66-.04.24-.26.23-.43.08s-.84-1.85-.9-2.13-.07-.67-.07-.98c.02,0,.05,0,.07,0,.13.33.28.65.42.98Z"/>
      <path class="cls-3" d="M38.37,7.5c.06,0,.09-.03.15.04.05.06.28.77.34.94.23.6.49,1.22.7,1.82.29.8.79,2.09.98,2.87.06.22.12.73.07.94-.02.08-.11.02-.14.04-.3-.39-.47-.87-.63-1.33-.12-.34-.24-.76-.35-1.12-.29-.92-.57-1.87-.84-2.8-.05-.18-.07-.46-.13-.67-.06-.24-.23-.42-.15-.72Z"/>
      <path class="cls-5" d="M36.9,24.48c.04.32.12.89.21,1.19h-.7c-.14-.33-.29-.65-.42-.98.28-.05.6-.2.91-.21Z"/>
      <path class="cls-3" d="M37.25,24.41c.14.32.21.9.21,1.26,0,.12,0,.23,0,.35-.15.15-.31-.23-.35-.35-.09-.3-.17-.86-.21-1.19-.02-.16-.05-.33-.07-.49.09-.1.39.34.42.42Z"/>
      <path class="cls-5" d="M47.03,4.56s0,.1,0,.14h-.14s-.07-.08-.07-.14h.21Z"/>
    </g>
  </g>
</svg>