<?xml version="1.0" encoding="UTF-8"?>
<svg id="Laag_2" data-name="Laag 2" xmlns="http://www.w3.org/2000/svg" viewBox="0 0 39.21 38.72">
  <defs>
    <style>
      .cls-1 {
        fill: #8d685c;
      }

      .cls-2 {
        fill: #493431;
      }

      .cls-3 {
        fill: #a6796f;
      }

      .cls-4 {
        fill: #cc8e6a;
      }

      .cls-5 {
        fill: #8c665a;
      }

      .cls-6 {
        fill: #66524a;
      }

      .cls-7 {
        fill: #362c2b;
      }

      .cls-8 {
        fill: #e5b385;
      }

      .cls-9 {
        fill: #e2b184;
      }

      .cls-10 {
        fill: #f36a58;
      }

      .cls-11 {
        fill: #fac695;
      }

      .cls-12 {
        fill: #493605;
      }
    </style>
  </defs>
  <g id="Laag_1-2" data-name="Laag 1">
    <g>
      <path class="cls-11" d="M31.13,2.44c-.6.71-.5,1.77-.48,2.64-.78-.34-.45-.43-.96-.84-1.16-.91-1.59.56-2.57.79-.52.12-2.07.14-2.58.04-.81-.15-1.24-1.29-1.81-1.55-.2-.09-2.78-.78-3.11-.85l11.52-.24Z"/>
      <g>
        <path class="cls-8" d="M.17,11.08c.86-.03,5.09-1.12,5.51-.71.06.06.24,1.51.26,1.79.03.45.2.98-.49.84-.06-.33.11-.63-.24-.96.12-.51-.19-.73-.48-.24-.2-.02-.52.16-.72.24l-.48.24c-.08.07-.23-.01-.2.3.22.43.28.94.44,1.38.29.78,1.07,2.55,1.91,2.78.42.11,2.77-.41,2.41-1.34.24.02.48-.01.72,0,.89,3.79.53,9.17,2.06,12.7.88,2.03,2.99,1.25,4.66,1.46.08.01.16,0,.24,0,.04,0,.28.18.72.24,1.13.15,2.22.4,3.36.48-.36,1.11.87,2.58,1.67,1.91.1-.08-.05-.58.01-.71.04-.08.22-.16.24-.24.02-.06.22-.14.24-.48.87-.16,1.49-.61,2.4-.72.72-.08,1.65,0,2.4,0-.04.18.05.67,0,.72-.03.02-.45-.03-.69.14-.47.33-2.91,2.02-3.03,2.26-.45.92.11,4-.36,5.28-.28-.02-1.1.07-1.19-.01-.18-.17-.38-3.18-.53-3.67-.19-.6-1.19-.56-1.37,0-.21.69-.1,3.29-.38,3.7-.2.3-1.87.33-2.03.2-.4-.34-.14-3.66-.99-4.53-.31-.32-2.64-1.36-3.27-1.65-1.78-.82-4.49-1.55-6.07-2.57-.95-.61-1.25-2.04-2.42-2.26-.21,2.04,1.09,4.6,3.11,5.3-.33,1.23-1,1.72-.95,3.1-.74.17-1.04,2.24-1.23,2.37-.23.15-2,.18-2.09-.36-.37-1.98-.24-4.25-.53-6.19-.39-2.55-1.63-5.36-1.87-7.97-.23-2.4.67-4.75.45-6.93-.15-1.53-1.92-4.67-1.2-5.88ZM19.37,34.36h-1.44c-.14.13.09,3.65.24,3.84.32.4.53-.25.6-.47.11-.38.73-3.25.6-3.37Z"/>
        <path class="cls-9" d="M19.61,2.68c.34.07,2.91.76,3.11.85.57.25,1.01,1.39,1.81,1.55.52.1,2.06.07,2.58-.04.98-.22,1.41-1.7,2.57-.79.52.41.18.5.96.84s.67-.14.96.72c-.48-.19-2.35-.83-2.65-.62-1.4,1.01,1.92,2.3,2.65,1.1.05.05.45-.09.45.1,0,.46-.44,1.41-.21,2.06-1.12-.02-2.24.01-3.36,0,0,.4,0,.8,0,1.2,0,.24-.01.48,0,.72.01.26-.08.6.24.72-.02.19-.03.54,0,.72.2,1.17,2.09,1.06,3.12,1.2v1.92c-.66-.94-3.92-1.99-4.08-2.16-.03-.03.02-.53-.23-.84-.92-1.14-1.77-1.33-3.13-.84-.07.03-.18-.03-.24,0-.09.04-.17.16-.24.24-1.04.4-1.17.9-1.68,1.2-.3.17-.85.34-1.2.48-.09.04-.17.21-.24.24-.12.05-.36-.05-.48,0-.49.18-.91.46-.96.48-1.1.39-2.74.46-3.82,1.1-.61.36-2.63,2.68-2.66,3.36-.05,1.13,4.46,6.24,5.28,7.54-.29.22.41.48-1.2.48-.72,0-2.48-.1-3.12-.24-.25-.06-1.06-.55-1.15-.89-.54-2.93-.41-5.89-.53-8.84-.01-.35-.24-.69-.24-.83,0-.11.26-.49.25-.84-.05-1.8-.47-3.76-.25-5.64.86-1.22,4.79-2.84,5.4-3.84.33-.55.02-1.73.12-2.4.6.13,1.55-.13,2.16,0ZM17.93,5.8c-.93,1.41,3.86,1.2,2.65-.38-.4-.52-2.57.26-2.65.38ZM21.77,12.28v-3.72c-1.84-.94-4.2-.58-6.24-.36-.01.67-.09,4.97.37,5.05l5.86-.97Z"/>
        <path class="cls-3" d="M34.97,7.96c-1.21-.76-1.97-1.59-3.36-2.16-.29-.86-.19-.38-.96-.72-.02-.87-.12-1.93.48-2.64.38-.45,3.19-2.22,3.77-2.35,2.65-.55,3.11,1.49,3.59,3.5.25,1.04,1.36,5.91.16,6.28-.48.14-3.08-1.52-3.69-1.91Z"/>
        <path class="cls-1" d="M17.45,2.68c-.1.66.21,1.85-.12,2.4-.61,1-4.53,2.62-5.4,3.84-1.12.38-2.54,1.94-2.86-.14-.15-.95,1.04-7.33,1.55-8.01.46-.61,2.09-.83,2.81-.68,1.35.28,3.23,2.42,4.02,2.59Z"/>
        <path class="cls-11" d="M34.97,7.96c-.04,5.86.96,12.03-.51,17.73-1.12,0-2.22.16-3.33.27v-.24c.1-.93.58-2.02,0-2.88.19-.28.47-.77.71-1.14.29-.45,1.92-2.88,1.93-3.08.04-.52-1.38-2.43-1.79-3.01-.16-.22-.09-.63-.14-.69v-1.92c.79.1,1.54.4,2.4.24v-4.8c-.8,0-1.6.01-2.4,0-.22-.65.22-1.6.21-2.06,0-.19-.4-.05-.45-.1s.04-.35,0-.48c1.39.57,2.15,1.4,3.36,2.16Z"/>
        <path class="cls-4" d="M11.93,15.4c0,.14.23.48.24.83.12,2.95-.01,5.91.53,8.84.09.34.9.84,1.15.89.15,1.34.99,2.49,1.68,3.6-1.67-.21-3.78.58-4.66-1.46-1.52-3.53-1.17-8.91-2.06-12.7,1.03.05,2.09-.03,3.12,0Z"/>
        <path class="cls-4" d="M16.25,34.12c-2.26.08-4.5-.03-6.72-.48-.06.71-.22,4.7-.63,4.81-1.75.48-2.2-.96-2.25-2.41s.61-1.87.95-3.1c-2.01-.7-3.32-3.26-3.11-5.3,1.17.22,1.47,1.64,2.42,2.26,1.58,1.02,4.29,1.75,6.07,2.57.63.29,2.96,1.33,3.27,1.65Z"/>
        <path class="cls-11" d="M.17,11.08c.41-.7,5.05-2.33,5.83-2.12s1.81,2.36,1.62,3.15c-.03.11-1.71,1.32-1.82,1.37-.49.19-.31-.26-.36-.48.69.14.52-.39.49-.84-.02-.28-.2-1.73-.26-1.79-.42-.41-4.64.67-5.51.71Z"/>
        <path class="cls-11" d="M27.29,30.04c-.39.76-.25.41-.48.72-.49.66-2.09,2.54-2.29,3.11-.36,1.02-.26,4.51-1.25,4.79-.34.09-.5-.21-.54-.21.47-1.28-.1-4.36.36-5.28.12-.24,2.56-1.93,3.03-2.26.24-.17.66-.11.69-.14.05-.05-.04-.54,0-.72h.48Z"/>
        <path class="cls-4" d="M28.49,26.2c-.02.23.03.49,0,.72-.11.03-.22.13-.24.24-.23,1.42-.35,1.69-.96,2.88h-.48c-.75,0-1.68-.08-2.4,0-.07-.79.76-.45,1.16-1.13.33-.56.71-2.02.76-2.71.72-.02,1.45.04,2.16,0Z"/>
        <path class="cls-11" d="M8.09,15.4c.36.93-1.99,1.45-2.41,1.34-.84-.22-1.62-2-1.91-2.78,1.27,1.03,2.72,1.31,4.32,1.44Z"/>
        <path class="cls-8" d="M31.13,25.72v.24c-.91.09-1.7.19-2.64.24-.71.04-1.44-.02-2.16,0-.53.02-1.2-.08-1.68,0v-.24c1.63-.04,3.26-.45,4.56-.48.23,0,1.35.5,1.92.24Z"/>
        <path class="cls-11" d="M4.73,11.8c.29-.49.6-.27.48.24-.02-.02-.45-.24-.48-.24Z"/>
        <path class="cls-11" d="M4.01,12.04c-.06.02-.46.22-.48.24l.48-.24Z"/>
        <path class="cls-8" d="M28.25,27.16c.02-.11.13-.21.24-.24-.02.11-.13.21-.24.24Z"/>
        <path class="cls-2" d="M16.97,26.2c-.08,2.33,4.8,3.09,6.23,2.03.74-.55.35-1.86,1.45-2.03.48-.08,1.15.02,1.68,0-.05.7-.44,2.16-.76,2.71-.4.68-1.23.34-1.16,1.13-.91.11-1.53.56-2.4.72.04-.85-.54-1.9-1.44-1.32-.05.03-.7.79-.72.84-1.14-.08-2.23-.33-3.36-.48l-.72-.24c-.08,0-.16.01-.24,0-.69-1.11-1.53-2.26-1.68-3.6.64.14,2.4.24,3.12.24Z"/>
        <path class="cls-11" d="M19.37,34.36c.12.12-.49,2.98-.6,3.37-.06.22-.27.88-.6.47-.15-.19-.38-3.71-.24-3.84h1.44Z"/>
        <path class="cls-4" d="M22.01,30.76c-.02.34-.22.42-.24.48-.5-.25-.11-1.56-.24-1.68-.61-.59-1.29,1.15-1.2,1.8l1.2.12c-.06.13.09.62-.01.71-.8.68-2.03-.8-1.67-1.91.02-.05.67-.81.72-.84.9-.58,1.48.47,1.44,1.32Z"/>
        <path class="cls-10" d="M21.53,31.48l-1.2-.12c-.09-.65.59-2.38,1.2-1.8.13.13-.26,1.43.24,1.68-.02.08-.2.16-.24.24Z"/>
        <path class="cls-4" d="M16.49,29.8c-.44-.06-.68-.24-.72-.24l.72.24Z"/>
        <path class="cls-5" d="M22.25,12.52c1.07,2.45,2.21,1.99,4.32,2.16,1.97.16,1.92,1.39,3.23,2.17.68.4,1.4-.1,1.08,1.02-.04.16-.39.16-.45.35-.66,2.06-.75,4.84-1.22,7.02v.24c-1.3.03-2.93.44-4.56.48-1.12.02-6.22-.44-6.48-.24-.83-1.3-5.34-6.41-5.28-7.54.03-.68,2.05-3,2.66-3.36,1.08-.64,2.72-.71,3.82-1.1.43.04.83-.04.96-.48.12-.05.36.05.48,0-.12.93.1.75.96.72l-.72-.96c.35-.14.9-.31,1.2-.48ZM26.33,17.08c-1.06-.02-.5,1.15-.94,1.82-.29.45-1.87,1.34-2.07,1.79-.13.29.04,1.12.13,1.19.58.42,1.85-2.13,2.08-2.17,1.06-.21,1.32.73,1.4.74,2.19.29-.43-1.56-.49-1.69-.24-.5-.09-1.14-.12-1.68ZM28.38,17.32c-.78.17-.9,1.83.45,1.42.75-.22.05-1.53-.45-1.42ZM22.49,18.28h-.96v1.2h.96v-1.2Z"/>
        <path class="cls-3" d="M27.77,12.76c.16.17,3.42,1.22,4.08,2.16.05.07-.02.47.14.69.41.58,1.83,2.49,1.79,3.01-.02.2-1.64,2.63-1.93,3.08-.25.37-.52.86-.71,1.14-.52.76-1.35,1.63-1.92,2.4.47-2.18.56-4.95,1.22-7.02.06-.19.41-.19.45-.35.32-1.12-.41-.62-1.08-1.02-1.31-.78-1.25-2.02-3.23-2.17.11-.23.13-.82.24-.96.12-.15.98-.25.96-.96Z"/>
        <path class="cls-5" d="M21.77,12.28l-5.86.97c-.47-.09-.39-4.38-.37-5.05,2.04-.23,4.39-.59,6.24.36v3.72ZM20.33,9.4c-1.99-.05-3.95-.18-3.5,2.42.23.31,3.13.33,3.25.21.09-.09.36-2.52.25-2.63Z"/>
        <path class="cls-3" d="M31.85,8.44c.8.01,1.6,0,2.4,0v4.8c-.86.16-1.61-.14-2.4-.24-1.03-.14-2.92-.03-3.12-1.2,1.16.4,2.4.2,3.6.24.56-2.8-1.69-2.98-3.84-2.4,0-.4,0-.8,0-1.2,1.12.02,2.24-.02,3.36,0Z"/>
        <path class="cls-4" d="M24.65,25.96v.24c-1.1.17-.71,1.48-1.45,2.03-1.43,1.06-6.31.3-6.23-2.03,1.61,0,.91-.26,1.2-.48.26-.2,5.36.26,6.48.24Z"/>
        <path class="cls-2" d="M28.49,9.64c2.15-.58,4.4-.4,3.84,2.4-1.2-.04-2.44.16-3.6-.24-.03-.18-.02-.53,0-.72.03-.26.72-.83-.24-.72-.01-.24,0-.48,0-.72Z"/>
        <path class="cls-7" d="M23.93,11.32c.07-.02.16.02.24,0,.26.35.56,1.41.71,1.57.31.33.92.23,1.26.37.25.1.2.6.67.46-.11.14-.13.73-.24.96-2.11-.17-3.25.29-4.32-2.16.51-.3.64-.8,1.68-1.2Z"/>
        <path class="cls-7" d="M24.17,11.32v-.24c.06-.03.17.03.24,0-.04.11-.13.21-.24.24Z"/>
        <path class="cls-6" d="M24.17,11.32c-.08.02-.17-.02-.24,0,.07-.08.15-.2.24-.24v.24Z"/>
        <path class="cls-6" d="M27.77,12.76c.02.71-.84.81-.96.96-.47.14-.42-.36-.67-.46-.35-.15-.95-.04-1.26-.37-.15-.16-.45-1.22-.71-1.57.11-.03.2-.13.24-.24,1.37-.49,2.21-.3,3.13.84.25.31.2.81.23.84ZM25.01,11.56v.24c.16-.08.16-.16,0-.24Z"/>
        <path class="cls-6" d="M31.61,5.8c.04.13-.05.43,0,.48-.73,1.21-4.05-.09-2.65-1.1.3-.22,2.17.42,2.65.62Z"/>
        <path class="cls-6" d="M17.93,5.8c.08-.12,2.26-.9,2.65-.38,1.21,1.58-3.58,1.79-2.65.38Z"/>
        <path class="cls-1" d="M21.05,13l.72.96c-.86.03-1.08.21-.96-.72.07-.03.15-.2.24-.24Z"/>
        <path class="cls-1" d="M20.33,13.24c-.13.44-.53.52-.96.48.05-.02.47-.3.96-.48Z"/>
        <path class="cls-3" d="M28.49,10.36c.96-.11.27.46.24.72-.32-.12-.23-.46-.24-.72Z"/>
        <path class="cls-9" d="M31.13,25.72c-.57.26-1.69-.25-1.92-.24v-.24c.57-.77,1.4-1.64,1.92-2.4.58.86.1,1.95,0,2.88Z"/>
        <path class="cls-7" d="M26.33,17.08c.03.54-.12,1.18.12,1.68.06.12,2.68,1.98.49,1.69-.08-.01-.34-.96-1.4-.74-.23.05-1.5,2.6-2.08,2.17-.1-.07-.27-.9-.13-1.19.2-.45,1.78-1.34,2.07-1.79.43-.67-.12-1.84.94-1.82Z"/>
        <path class="cls-6" d="M28.38,17.32c.5-.11,1.2,1.2.45,1.42-1.35.41-1.24-1.25-.45-1.42Z"/>
        <rect class="cls-6" x="21.53" y="18.28" width=".96" height="1.2"/>
        <path class="cls-2" d="M20.33,9.4c.1.1-.16,2.54-.25,2.63-.12.11-3.02.1-3.25-.21-.45-2.59,1.51-2.46,3.5-2.42ZM19.85,11.56c0-.66.23-1.72-.72-1.68v1.68s.72,0,.72,0Z"/>
        <path class="cls-7" d="M25.01,11.56c.16.08.16.16,0,.24v-.24Z"/>
        <path class="cls-12" d="M19.85,11.56h-.72s0-1.68,0-1.68c.95-.04.72,1.02.72,1.68Z"/>
      </g>
    </g>
  </g>
</svg>