<svg width="582" height="524" viewBox="0 0 582 524" fill="none" xmlns="http://www.w3.org/2000/svg">
<path d="M553.627 238.372C540.137 224.881 522.949 215.692 504.239 211.968C485.529 208.244 466.137 210.151 448.514 217.448C430.891 224.746 415.829 237.106 405.234 252.965C394.638 268.825 388.984 287.472 388.987 306.548C388.99 325.624 394.649 344.272 405.25 360.135C415.85 375.997 430.915 388.362 448.54 395.665C466.165 402.967 485.559 404.88 504.267 401.161C522.976 397.443 540.161 388.259 553.648 374.772C571.733 356.687 581.891 332.156 581.887 306.576C581.883 280.996 571.718 256.462 553.627 238.372ZM456.213 335.786C450.431 330.005 446.493 322.639 444.897 314.62C443.301 306.602 444.118 298.29 447.245 290.738C450.373 283.185 455.67 276.73 462.467 272.189C469.264 267.648 477.255 265.225 485.431 265.226C493.606 265.227 501.598 267.653 508.397 272.196C515.195 276.739 520.494 283.196 523.624 290.749C526.754 298.303 527.573 306.614 525.98 314.632C524.386 322.65 520.45 330.015 514.67 335.795C506.919 343.546 496.406 347.899 485.443 347.898C474.48 347.896 463.966 343.539 456.213 335.786ZM144.384 -34.4909C157.871 -47.9776 167.054 -65.162 170.773 -83.8709C174.492 -102.58 172.579 -121.973 165.276 -139.598C157.974 -157.223 145.609 -172.288 129.746 -182.889C113.884 -193.489 95.2353 -199.149 76.1593 -199.151C57.0833 -199.154 38.4365 -193.5 22.577 -182.905C6.71745 -172.309 -5.64255 -157.247 -12.94 -139.624C-20.2375 -122.002 -22.1446 -102.609 -18.4203 -83.899C-14.696 -65.189 -5.50744 -48.0019 7.98333 -34.5111C26.0739 -16.4206 50.6078 -6.25527 76.188 -6.25147C101.768 -6.24767 126.299 -16.4057 144.384 -34.4909ZM46.9492 -73.477C41.1675 -79.2588 37.2295 -86.6247 35.6334 -94.6432C34.0372 -102.662 34.8546 -110.973 37.9821 -118.526C41.1096 -126.078 46.4067 -132.533 53.2036 -137.074C60.0006 -141.615 67.9921 -144.038 76.1675 -144.037C84.3429 -144.036 92.3351 -141.61 99.1334 -137.067C105.932 -132.524 111.231 -126.068 114.36 -118.514C117.49 -110.961 118.31 -102.649 116.716 -94.6312C115.123 -86.6131 111.187 -79.2484 105.407 -73.4683C97.6559 -65.7175 87.1427 -61.3641 76.1798 -61.3657C65.2169 -61.3674 54.7023 -65.7239 46.9492 -73.477ZM241.813 -34.4764C255.304 -20.9856 272.491 -11.7971 291.201 -8.07276C309.911 -4.34844 329.304 -6.2556 346.927 -13.5531C364.55 -20.8505 379.611 -33.2105 390.207 -49.07C400.803 -64.9296 406.456 -83.5764 406.454 -102.652C406.451 -121.728 400.791 -140.377 390.191 -156.24C379.591 -172.102 364.525 -184.467 346.9 -191.769C329.275 -199.072 309.882 -200.985 291.173 -197.266C272.464 -193.547 255.28 -184.364 241.793 -170.877C223.708 -152.792 213.55 -128.261 213.554 -102.681C213.557 -77.1009 223.723 -52.567 241.813 -34.4764ZM339.228 -131.891C345.01 -126.109 348.948 -118.743 350.544 -110.725C352.14 -102.706 351.323 -94.3952 348.195 -86.8425C345.068 -79.2899 339.771 -72.8349 332.974 -68.2939C326.177 -63.7529 318.185 -61.3298 310.01 -61.331C301.834 -61.3322 293.842 -63.7577 287.044 -68.3007C280.246 -72.8437 274.947 -79.3003 271.817 -86.8539C268.687 -94.4074 267.867 -102.719 269.461 -110.737C271.055 -118.755 274.991 -126.12 280.771 -131.9C288.521 -139.651 299.035 -144.004 309.998 -144.002C320.96 -144.001 331.475 -139.644 339.228 -131.891ZM417.212 140.922C430.703 154.413 447.89 163.601 466.6 167.326C485.31 171.05 504.702 169.143 522.325 161.846C539.948 154.548 555.01 142.188 565.605 126.329C576.201 110.469 581.855 91.8222 581.852 72.7462C581.849 53.6702 576.19 35.0217 565.59 19.1591C554.989 3.29636 539.924 -9.06809 522.299 -16.3708C504.674 -23.6735 485.281 -25.5864 466.572 -21.8676C447.863 -18.1488 430.678 -8.96544 417.192 4.52133C399.107 22.6065 388.948 47.1374 388.952 72.7175C388.956 98.2977 399.121 122.832 417.212 140.922ZM514.627 43.5075C520.408 49.2892 524.346 56.6551 525.942 64.6737C527.539 72.6923 526.721 81.0034 523.594 88.556C520.466 96.1087 515.169 102.564 508.372 107.105C501.575 111.646 493.584 114.069 485.408 114.068C477.233 114.066 469.241 111.641 462.442 107.098C455.644 102.555 450.345 96.0983 447.215 88.5447C444.086 80.9911 443.266 72.6798 444.86 64.6617C446.453 56.6436 450.389 49.2788 456.169 43.4988C463.92 35.748 474.433 31.3946 485.396 31.3962C496.359 31.3978 506.874 35.7544 514.627 43.5075ZM325.318 345.461C320.878 330.102 319.51 314.02 321.293 298.134C323.075 282.248 327.972 266.87 335.705 252.881C351.502 224.123 357.539 191.012 352.906 158.525C348.274 126.037 333.223 95.9268 310.016 72.7196C286.809 49.5124 256.699 34.4617 224.211 29.8293C191.723 25.197 158.612 31.2332 129.855 47.0308C101.741 62.6255 68.587 66.431 37.6642 57.6126C8.29088 48.862 -23.1585 50.153 -51.7099 61.2814C-80.2613 72.4099 -104.285 92.7404 -119.981 119.058C-135.677 145.375 -142.15 176.177 -138.376 206.591C-134.601 237.005 -120.795 265.296 -99.141 286.989C-86.1901 300.015 -70.7358 310.283 -53.7102 317.175C0.135277 339.582 42.9343 382.381 65.3416 436.227C78.394 469.36 103.765 496.158 136.137 511.002C168.508 525.845 205.365 527.582 238.981 515.848C272.597 504.114 300.36 479.82 316.452 448.059C332.543 416.299 335.711 379.539 325.294 345.485L325.318 345.461ZM134.712 442.911C126.793 435.005 120.56 425.574 116.391 415.189C88.3692 347.747 34.7695 294.147 -32.6731 266.125C-52.5149 258.225 -68.5323 242.954 -77.37 223.511C-86.2077 204.068 -87.1801 181.962 -80.0835 161.823C-72.987 141.684 -58.372 125.075 -39.3001 115.474C-20.2281 105.873 1.82131 104.026 22.2295 110.319C44.509 116.749 67.836 118.724 90.8767 116.132C113.917 113.54 136.22 106.432 156.509 95.2135C174.811 85.1483 195.888 81.2982 216.571 84.2423C237.253 87.1865 256.423 96.7657 271.196 111.539C285.97 126.313 295.549 145.482 298.493 166.165C301.437 186.847 297.587 207.924 287.522 226.227C276.289 246.56 269.18 268.911 266.6 291.999C264.02 315.087 266.022 338.458 272.489 360.774C277.821 378.431 277.095 397.363 270.428 414.556C263.761 431.75 251.536 446.22 235.696 455.662C219.857 465.105 201.313 468.979 183.014 466.669C164.716 464.358 147.714 455.995 134.712 442.911Z" fill="#F06767"/>
</svg>
