<svg width="613" height="712" viewBox="0 0 613 712" fill="none" xmlns="http://www.w3.org/2000/svg">
<path d="M550.443 74.402C533.92 83.9414 520.596 98.1647 512.156 115.273C503.717 132.382 500.54 151.607 503.027 170.518C505.515 189.429 513.555 207.177 526.132 221.516C538.709 235.856 555.257 246.143 573.684 251.078C592.111 256.012 611.588 255.372 629.654 249.238C647.72 243.105 663.562 231.753 675.178 216.619C686.793 201.484 693.66 183.247 694.911 164.213C696.161 145.179 691.738 126.203 682.201 109.686C669.413 87.5358 648.347 71.3748 623.638 64.7579C598.928 58.1409 572.599 61.61 550.443 74.402ZM619.326 193.71C612.244 197.798 604.11 199.696 595.952 199.162C587.793 198.629 579.977 195.688 573.491 190.712C567.005 185.737 562.141 178.949 559.514 171.209C556.887 163.468 556.615 155.122 558.732 147.225C560.849 139.329 565.26 132.236 571.408 126.846C577.556 121.455 585.164 118.007 593.27 116.939C601.376 115.871 609.617 117.231 616.949 120.845C624.282 124.46 630.377 130.168 634.464 137.247C639.944 146.74 641.429 158.021 638.59 168.61C635.751 179.199 628.821 188.228 619.326 193.71ZM180.958 399.078C171.421 382.561 157.199 369.242 140.091 360.808C122.982 352.374 103.754 349.202 84.8397 351.694C65.9251 354.187 48.173 362.231 33.8283 374.809C19.4835 387.388 9.19029 403.936 4.25032 422.361C-0.689649 440.787 -0.0545342 460.261 6.07538 478.323C12.2053 496.384 23.5547 512.221 38.6883 523.831C53.822 535.441 72.0601 542.303 91.0966 543.548C110.133 544.793 129.113 540.366 145.635 530.826C167.792 518.034 183.96 496.967 190.585 472.26C197.209 447.552 193.746 421.228 180.958 399.078ZM118.082 483.103C111.001 487.191 102.867 489.089 94.7086 488.555C86.5501 488.021 78.7337 485.081 72.2479 480.105C65.762 475.13 60.898 468.342 58.2709 460.602C55.6438 452.861 55.3716 444.515 57.4887 436.618C59.6059 428.722 64.0172 421.629 70.165 416.239C76.3128 410.848 83.9208 407.4 92.027 406.332C100.133 405.264 108.374 406.623 115.706 410.238C123.038 413.853 129.134 419.561 133.221 426.64C138.701 436.132 140.185 447.414 137.346 458.003C134.507 468.592 127.578 477.621 118.082 483.103ZM206.189 304.973C222.711 295.433 236.035 281.21 244.475 264.102C252.915 246.993 256.092 227.768 253.604 208.856C251.117 189.945 243.076 172.198 230.499 157.859C217.922 143.519 201.374 133.232 182.948 128.297C164.521 123.363 145.043 124.003 126.977 130.136C108.912 136.27 93.0693 147.622 81.4537 162.756C69.8382 177.891 62.9711 196.128 61.7209 215.162C60.4708 234.196 64.8936 253.171 74.4302 269.689C87.2184 291.839 108.284 308 132.994 314.617C157.703 321.234 184.032 317.765 206.189 304.973ZM137.306 185.665C144.387 181.576 152.521 179.679 160.68 180.213C168.838 180.746 176.655 183.687 183.14 188.662C189.626 193.638 194.49 200.425 197.117 208.166C199.745 215.907 200.017 224.253 197.9 232.15C195.782 240.046 191.371 247.138 185.223 252.529C179.076 257.92 171.468 261.367 163.361 262.435C155.255 263.504 147.015 262.144 139.682 258.53C132.35 254.915 126.255 249.207 122.168 242.128C116.687 232.635 115.203 221.354 118.042 210.765C120.881 200.176 127.81 191.147 137.306 185.665ZM421.007 180.947C437.53 171.408 450.854 157.185 459.294 140.076C467.733 122.967 470.91 103.742 468.423 84.831C465.935 65.9199 457.895 48.1725 445.318 33.8331C432.741 19.4937 416.193 9.20626 397.766 4.27176C379.339 -0.662734 359.862 -0.0226719 341.796 6.11098C323.73 12.2446 307.888 23.5964 296.272 38.7308C284.657 53.8651 277.79 72.1024 276.539 91.1363C275.289 110.17 279.712 129.146 289.249 145.664C302.037 167.813 323.103 183.974 347.812 190.591C372.522 197.208 398.851 193.739 421.007 180.947ZM352.124 61.6391C359.206 57.5508 367.34 55.6535 375.498 56.1871C383.657 56.7207 391.473 59.6613 397.959 64.637C404.445 69.6127 409.309 76.4 411.936 84.1406C414.563 91.8813 414.835 100.228 412.718 108.124C410.601 116.021 406.19 123.113 400.042 128.504C393.894 133.894 386.286 137.342 378.18 138.41C370.074 139.478 361.833 138.119 354.501 134.504C347.168 130.889 341.073 125.182 336.986 118.103C331.506 108.61 330.021 97.328 332.86 86.739C335.699 76.1501 342.629 67.1214 352.124 61.6391ZM594.793 322.649C578.808 322.962 562.92 320.121 548.036 314.288C533.153 308.454 519.567 299.744 508.055 288.654C484.366 265.952 453.946 251.552 421.366 247.618C388.786 243.684 355.807 250.429 327.384 266.839C298.961 283.249 276.63 308.437 263.747 338.619C250.864 368.801 248.125 402.346 255.942 434.212C263.729 465.404 258.823 498.413 242.302 526C226.247 552.108 219.355 582.82 222.714 613.278C226.074 643.737 239.494 672.204 260.852 694.177C282.21 716.15 310.287 730.374 340.642 734.6C370.996 738.826 401.897 732.813 428.455 717.511C444.389 708.373 458.307 696.102 469.37 681.441C504.95 635.229 557.368 604.966 615.178 597.258C650.561 593.226 683.013 575.655 705.729 548.229C728.445 520.802 739.662 485.651 737.028 450.143C734.394 414.636 718.113 381.53 691.6 357.767C665.087 334.004 630.399 321.429 594.81 322.679L594.793 322.649ZM639.589 531.982C629.903 537.585 619.18 541.165 608.071 542.503C535.674 552.115 470.028 590.016 425.505 647.908C412.738 665.029 393.842 676.548 372.774 680.052C351.707 683.557 330.102 678.774 312.486 666.707C294.87 654.64 282.609 636.225 278.272 615.318C273.935 594.411 277.857 572.634 289.218 554.551C301.195 534.694 309.14 512.673 312.6 489.747C316.059 466.82 314.966 443.438 309.381 420.937C304.396 400.653 306.132 379.298 314.329 360.082C322.526 340.866 336.74 324.829 354.834 314.383C372.928 303.936 393.923 299.645 414.663 302.154C435.402 304.663 454.765 313.837 469.839 328.297C486.572 344.409 506.321 357.061 527.954 365.529C549.588 373.996 572.681 378.112 595.911 377.641C614.346 377.061 632.445 382.661 647.327 393.551C662.21 404.441 673.022 419.995 678.043 437.739C683.065 455.483 682.007 474.397 675.039 491.474C668.072 508.551 655.593 522.81 639.589 531.982Z" fill="#F06767"/>
</svg>
