<?xml version="1.0" encoding="UTF-8"?>
<svg id="Laag_2" data-name="Laag 2" xmlns="http://www.w3.org/2000/svg" viewBox="0 0 33.44 38.44">
  <defs>
    <style>
      .cls-1 {
        fill: #8d685c;
      }

      .cls-2 {
        fill: #493431;
      }

      .cls-3 {
        fill: #a6796f;
      }

      .cls-4 {
        fill: #cc8e6a;
      }

      .cls-5 {
        fill: #8c665a;
      }

      .cls-6 {
        fill: #66524a;
      }

      .cls-7 {
        fill: #362c2b;
      }

      .cls-8 {
        fill: #e5b385;
      }

      .cls-9 {
        fill: #e2b184;
      }

      .cls-10 {
        fill: #f36a58;
      }

      .cls-11 {
        fill: #fac695;
      }

      .cls-12 {
        fill: #493605;
      }
    </style>
  </defs>
  <g id="Laag_1-2" data-name="Laag 1">
    <g>
      <path class="cls-9" d="M10.66,1.13c-.15.72,2.45,3.21,2.81,3.32.93.27,3.22-.99,4.75-.68.61.12.58.67.98.94,1.24.84,1.72-.8,2.6-.71.97.1,2.11,2.25,3.25,2.17-.02.32,0,.64,0,.96v.96c-1.06.12-2.34-1.53-3.24-.72-1.33,1.2.01,5.79-.07,7.51.46.94,1.45,1.08,2.28,1.45.11.05.05.39.07.4v.24c-.51-.32-2.76-1.1-2.88-1.2-.08-.06-.05-1.04-.95-1.33-.96-.31-1.58-.07-2.41.13-1.43.34-1.18.8-1.44.96-1.36.83-4.37,1.43-5.93,2.35-.27.16-.45.31-.68.52-.44.4-2.61,3.81-2.72,4.27-.12.52.58.92.45,1.5-1.72-.87-.96-1.44-1.92-2.88.04-.66,0-1.04,0-1.56v-6c0-.15-.25-.7-.26-1.2-.02-.62.21-1.2.26-1.8.07-.04.22-.42.48-.59,1.08-.66,4.24-2.47,4.92-3.25,1.08-1.23.17-2.61-.87-3.47-.32-.27-2.65-1.77-2.86-1.82.58-.82,2.34-.47,3.36-.48ZM16.63,5.66c.38-.62-.14-1.31-.99-1.13-1.36.28-2.31,2.46-.82,2.08.1-.03,1.77-.86,1.82-.94ZM21.03,5.89c.11.19,2.35,1.51,2.59.64.38-1.37-3.77-2.68-2.59-.64ZM15.15,6.93c-.47,0-4.82,1.92-4.93,2.27-.05,1.5-.96,6.95.44,7.66.5.25,5.53-1.9,5.72-2.45-.26-2.25.85-4.95-.48-6.88-.2-.29-.33-.6-.76-.59Z"/>
      <path class="cls-8" d="M11.38,27.77c.59.06.8.51,1.2.61.74.18,3.45.62,3.84.83.05.03.17.36.24.48-1.84-.49-2.85.3-3.96,1.68-.96,1.19-.8,1.64-.54,3.19.16.96.53,3.5,1.86,3.06,0,.16.01.32,0,.48-1.04-.02-2.4.38-2.64-.96-.09-.49.11-2.78,0-2.88-.5.06-3.7.35-3.84.48-.19.19.15.92.48,1.08,1.11.52,2.06-.68,2.16,1.32-.76,0-5.34.21-5.52,0-.06-.07.06-.54,0-.78-.09-.29-.53,0-.48-.66.07-.82-.01-1.14,0-1.92,0-.32-.02-.64,0-.96.17-2.95.91-6.02,1.2-8.88.41.74.7,3.08,1.44,3.48.68.36,3.24.47,4.2.57.17.02.33-.21.35-.2Z"/>
      <path class="cls-11" d="M10.66,1.13c1.1-.01,6.22.22,6.66-.31.14-.16.08-.63.29-.79.14-.11.55.14.82.11,1.67-.16.96.25,1.26.28s.95-.36,1.05-.26c.04.04.03.96.36.96h6c.14,0,1.96.18,2.04.24.05.04-.05.44,0,.48-.96.83-3.72,1.85-4.03,3.06-.11.42-.03.84-.05,1.26-1.14.08-2.28-2.07-3.25-2.17-.88-.09-1.36,1.55-2.6.71-.4-.27-.38-.82-.98-.94-1.53-.31-3.82.95-4.75.68-.37-.11-2.96-2.6-2.81-3.32Z"/>
      <path class="cls-1" d="M7.3,1.61c.21.05,2.54,1.55,2.86,1.82,1.03.86,1.95,2.24.87,3.47-.68.78-3.85,2.58-4.92,3.25-.26.16-.41.54-.48.59-.36.21-2.13.93-2.39.71-.47-1.45-.16-2.68.06-4.11.11-.69.95-4.64,1.19-4.93.25-.32,2.37-.88,2.82-.78Z"/>
      <path class="cls-3" d="M29.14,1.85c.23.19,2.19-.01,2.83,1.13.47.84,1.46,6.11,1.46,7.18.02,2.88-2.39.83-3.58.09-1.6-1-3.07-2.33-4.8-3.12,0-.32-.02-.64,0-.96.02-.42-.06-.84.05-1.26.31-1.21,3.07-2.23,4.03-3.06Z"/>
      <path class="cls-11" d="M29.86,10.25c-.06,1.95.08,3.93,0,5.88s-.27,5.42-.78,7.14c-.31,1.06-1.12,1.11-2.1,1.14.33-.89,1.17-1.67.91-2.7-.11-.43-1.74-3.01-2.11-3.42-.39-.43-1.18-1.01-1.68-1.32v-.24c.33.18,2.09.18,2.63.48.07-.36.21-.7.25-1.08.13-1.44.01-4.79-.29-6.19-.2-.93-1.12-1.18-1.63-1.85v-.96c1.73.79,3.2,2.12,4.8,3.12Z"/>
      <path class="cls-11" d="M18.58,28.97c.05.19-.06.67,0,.72.08.07.72-.05.96,0,1.3.26,2.46.31,3.84.24.2.18-.87,1.88-.95,2.29-.11.58.05,1.21-.01,1.79-.1.9-.42,1.86-.24,2.88-2.74.71-.99-4.72-2.07-5.02l-5.95.91c-.28.18-.13.71-.14.99-.05,1.11.06,2.25,0,3.36,0,.16,0,.32,0,.48-1.33.44-1.7-2.1-1.86-3.06-.26-1.54-.42-2,.54-3.19,1.11-1.37,2.12-2.16,3.96-1.68.28.48.48,1.76,1.41,1.17.36-.23.06-1.58.51-1.89Z"/>
      <path class="cls-11" d="M23.62,37.13c.36-.42.57-.87.48-1.44.47-.01.97-.03,1.44,0,.04,0,.78.61.48-.12s-1.43-1.71-1.7-2.39c-.19-.49-.51-2.87-.34-3.25.11-.23.5-.46.66-.8.16-.32.12-.77.18-.89.19-.35.78-.81,1.09-1.43.25-.51.52-1.12.59-1.69.01-.08,0-.16,0-.24h.24c.11,1.93,1.04,4.48,1.2,6.6.07.96.18,4.79-.03,5.48-.08.27-.22.36-.51.35-1.26-.06-2.52-.14-3.78-.19Z"/>
      <path class="cls-3" d="M24.1,16.97c.5.31,1.29.89,1.68,1.32s2,3,2.11,3.42c.26,1.02-.58,1.81-.91,2.7-.03.08-.26.14-.24.48h-.24c0-.94-.35-.62-.46-.91-.72-1.78-.45-1.89-1.94-3.17-.34-.3-.57-.36-.72-.48-.55-.44-1.55-1.45-2.16-2.03-.3-.28-.57-.48-.96-.61.32-.53.71-1.34.96-1.92.12.1,2.37.88,2.88,1.2Z"/>
      <path class="cls-4" d="M14.02,33.77l5.76-.96c.3.3-.25,3.66-.24,4.32h-5.52c.06-1.11-.05-2.25,0-3.36Z"/>
      <path class="cls-4" d="M7.54,24.17c.09.05.42-.02.71.12,1.07.52,1.02,1.65,2.65,1.56l.48,1.92s-.18.22-.35.2c-.96-.1-3.53-.2-4.2-.57-.75-.4-1.04-2.74-1.44-3.48.02-.16-.02-.32,0-.48v-.24c.06-.61.21-1.43.24-1.92.96,1.44.2,2.01,1.92,2.88Z"/>
      <path class="cls-8" d="M14.02,33.77c.01-.28-.14-.8.14-.99l5.95-.91c1.08.3-.67,5.73,2.07,5.02.09.06.17.21.24.24-.21,1.75-2.85,1.75-2.88,0-.01-.66.54-4.02.24-4.32l-5.76.96Z"/>
      <path class="cls-4" d="M3.22,33.77c.31.04.65-.03.96,0-.01.78.07,1.1,0,1.92-.6.22-3.88-.98-4.04-1.24-.49-.79.44-1.97.68-2.6.48.3.03,1.27.46,1.58.08.06,1.61.3,1.94.34Z"/>
      <path class="cls-4" d="M10.18,37.13c-.09-2-1.05-.8-2.16-1.32-.33-.16-.67-.89-.48-1.08.14-.14,3.34-.43,3.84-.48.11.11-.09,2.39,0,2.88h-1.2Z"/>
      <path class="cls-8" d="M1.78,29.69c.81,0,.94.97,1.2,1.44-.97-.24-.74.42-.48,1.2.22.64.59.84.72,1.44-.32-.04-1.85-.29-1.94-.34-.44-.3.01-1.27-.46-1.58.32-.83.51-1.36.96-2.16Z"/>
      <path class="cls-4" d="M25.54,35.69c-.47-.03-.97-.01-1.44,0-1.55.03-.63.08-1.2,1.44-.15-.01-.39.04-.48,0-.07-.03-.15-.18-.24-.24-.18-1.02.14-1.98.24-2.88,1.02.46,2.51.68,3.12,1.68Z"/>
      <path class="cls-11" d="M1.78,29.69c.12-.22,0-.75.56-.69.22.02,1.63.97,1.73,1.17.23.45-.41,2.21-1.09.96-.26-.47-.39-1.43-1.2-1.44Z"/>
      <path class="cls-11" d="M4.18,32.81c-.02.32,0,.64,0,.96-.31-.03-.65.04-.96,0-.13-.6-.5-.8-.72-1.44l1.68.48Z"/>
      <path class="cls-9" d="M24.1,35.69c.09.57-.12,1.02-.48,1.44-.24,0-.48.02-.72,0,.57-1.36-.35-1.41,1.2-1.44Z"/>
      <path class="cls-8" d="M5.38,23.45s-.01-.1,0-.24v.24Z"/>
      <path class="cls-5" d="M16.42,15.53c.15.54.65,1.89,1.06,2.18.53.38,1.04.16,1.58.22.51.06.61.71,1.2-.24.39.13.66.33.96.61.61.58,1.62,1.59,2.16,2.03-1.53.07,1.03,2.28.72.48,1.49,1.29,1.22,1.4,1.94,3.17.11.28.46-.04.46.91,0,.08.01.16,0,.24-1.12.15-2.22.2-3.36.24-.86.03-1.77-.03-2.64,0-.12-1.01-1.25-1.01-1.56-1.68-.27-.6-.07-1.3-.12-1.92-1.17-.3-.52.92-1.09,1.67s-2.76,1.1-2.99,2.17c-.55.04-.83-.21-.72.48-.56-.78-1.59-.52-2.54-.49-.31,0-.54.25-.58.25-1.63.09-1.59-1.03-2.65-1.56-.29-.14-.61-.08-.71-.12.14-.58-.57-.98-.45-1.5.11-.46,2.28-3.87,2.72-4.27.23-.21.41-.36.68-.52,1.56-.93,4.56-1.52,5.93-2.35ZM17.14,18.17c-1.93-.2-2.12,1.35,0,.96v-.96ZM20.02,18.65l.84,1.2c.86-.77.14-1.37-.84-1.2ZM12.82,20.81c.14-.91-.41-1.05-1.2-.96v.96s1.2,0,1.2,0ZM21.7,21.29h-1.08c-.46.78.33,1.09,1.08.96v-.96Z"/>
      <path class="cls-5" d="M15.15,6.93c.42,0,.56.3.76.59,1.33,1.93.22,4.63.48,6.88-.19.55-5.22,2.7-5.72,2.45-1.4-.7-.49-6.15-.44-7.66.11-.35,4.46-2.27,4.93-2.27ZM14.74,13.97c.22-1.05,0-3.55,0-4.8,0-.74-2.87-1.07-3.12,1.2-.09.86-.11,2.76-.01,3.62.16,1.36,2.89,1.15,3.13-.01Z"/>
      <path class="cls-3" d="M25.06,8.09c.51.67,1.43.92,1.63,1.85.3,1.4.43,4.75.29,6.19-.04.38-.18.72-.25,1.08-.55-.3-2.3-.3-2.63-.48-.02,0,.04-.35-.07-.4-.83-.37-1.82-.51-2.28-1.45.08-1.72-1.26-6.31.07-7.51.9-.81,2.18.84,3.24.72ZM24.82,9.53c-.34-.37-.15-.99-1.33-.98-2.31.02-.75,4.62-1.05,5.99.16.19,2.64.4,2.83.24.29-.25.37-4.09.27-4.66-.13-.7-.64-.5-.72-.59Z"/>
      <path class="cls-2" d="M21.22,15.77c-.25.58-.64,1.39-.96,1.92-.59.95-.69.3-1.2.24.29-1.66-.32-2.19-1.2-3.36.83-.2,1.46-.45,2.41-.13.9.29.86,1.27.95,1.33Z"/>
      <path class="cls-7" d="M17.86,14.57c.88,1.17,1.49,1.7,1.2,3.36-.54-.06-1.05.16-1.58-.22-.41-.29-.91-1.64-1.06-2.18.26-.16.01-.62,1.44-.96Z"/>
      <path class="cls-6" d="M21.03,5.89c-1.17-2.04,2.98-.73,2.59.64-.25.88-2.49-.45-2.59-.64Z"/>
      <path class="cls-6" d="M16.63,5.66c-.05.09-1.72.92-1.82.94-1.48.38-.54-1.79.82-2.08.86-.18,1.38.51.99,1.13Z"/>
      <path class="cls-2" d="M23.14,25.37l-.96,2.88c-.65.1-2.24.88-2.64,1.44-.24-.05-.88.07-.96,0-.06-.05.05-.53,0-.72-.17-.69-.49-.93-1.29-.73-.39.1-.14,1.23-.87.97-.39-.22-3.11-.66-3.84-.83-.4-.1-.61-.54-1.2-.61l-.48-1.92s.27-.24.58-.25c.95-.03,1.98-.29,2.54.49.09.13-.07.42.39.68.36.2,3.35.98,3.75.95,1.29-.11,2.5-.93,2.34-2.35.87-.03,1.78.03,2.64,0Z"/>
      <path class="cls-10" d="M18.58,28.97c-.45.3-.15,1.66-.51,1.89-.93.59-1.13-.68-1.41-1.17-.07-.12-.19-.45-.24-.48.74.25.49-.88.87-.97.79-.2,1.12.04,1.29.73Z"/>
      <path class="cls-9" d="M24.82,28.25c-.06.12-.02.57-.18.89-.17.34-.56.57-.66.8-.17.38.15,2.76.34,3.25.27.68,1.4,1.66,1.7,2.39s-.44.12-.48.12c-.61-1-2.1-1.22-3.12-1.68.06-.58-.09-1.21.01-1.79.08-.42,1.15-2.11.95-2.29-1.38.06-2.54.02-3.84-.24.4-.56,1.99-1.34,2.64-1.44.79-.12,1.81.09,2.64,0Z"/>
      <path class="cls-4" d="M26.5,25.13c-.07.57-.34,1.18-.59,1.69-.31.62-.9,1.08-1.09,1.43-.83.09-1.85-.12-2.64,0l.96-2.88c1.14-.04,2.24-.09,3.36-.24Z"/>
      <path class="cls-6" d="M23.38,20.33c.15.12.38.18.72.48.31,1.8-2.25-.41-.72-.48Z"/>
      <path class="cls-4" d="M20.5,25.37c.16,1.42-1.04,2.24-2.34,2.35-.4.03-3.39-.75-3.75-.95-.47-.26-.3-.55-.39-.68-.11-.69.17-.44.72-.48s1.12.02,1.68,0c1.04-.03,2.18-.2,3.12-.24.32-.01.64.01.96,0Z"/>
      <path class="cls-7" d="M14.74,25.61c.23-1.07,2.44-1.45,2.99-2.17s-.08-1.97,1.09-1.67c.05.62-.15,1.32.12,1.92.3.67,1.44.67,1.56,1.68-.32.01-.64-.01-.96,0-1.1-1.09-1.17-1.13-2.49-.43-.34.18-.76.09-.63.67-.56.02-1.13-.04-1.68,0Z"/>
      <path class="cls-6" d="M17.14,18.17v.96c-2.12.4-1.93-1.16,0-.96Z"/>
      <path class="cls-6" d="M20.02,18.65c.97-.17,1.7.43.84,1.2l-.84-1.2Z"/>
      <path class="cls-6" d="M12.82,20.81h-1.2s0-.96,0-.96c.78-.09,1.34.05,1.2.96Z"/>
      <path class="cls-6" d="M21.7,21.29v.96c-.75.13-1.54-.17-1.08-.96h1.08Z"/>
      <path class="cls-7" d="M14.74,13.97c-.24,1.17-2.97,1.37-3.13.01-.1-.85-.08-2.75.01-3.62.25-2.27,3.12-1.94,3.12-1.2,0,1.25.22,3.75,0,4.8ZM13.3,9.05v4.56c.85.06,1.14.05,1.22-.84.02-.21-.21-3.16-.25-3.32-.06-.24-.89-.49-.97-.4Z"/>
      <path class="cls-7" d="M24.82,9.53s-.92-.03-.96,0c-.14.13.1,3.28,0,3.84h1.2c-.28-.62-.1-3.71-.24-3.84.09.09.6-.11.72.59.1.57.02,4.41-.27,4.66-.19.16-2.66-.05-2.83-.24.29-1.38-1.27-5.97,1.05-5.99,1.18-.01.99.61,1.33.98Z"/>
      <path class="cls-5" d="M19.54,25.37c-.94.04-2.08.21-3.12.24-.13-.58.29-.5.63-.67,1.32-.7,1.39-.66,2.49.43Z"/>
      <path class="cls-12" d="M13.3,9.05c.08-.09.91.17.97.4.04.16.27,3.11.25,3.32-.08.88-.37.89-1.22.84v-4.56Z"/>
      <path class="cls-12" d="M24.82,9.53c.14.13-.04,3.22.24,3.84h-1.2c.1-.56-.14-3.71,0-3.84.03-.03.92-.03.96,0Z"/>
    </g>
  </g>
</svg>