<?xml version="1.0" encoding="UTF-8"?>
<svg id="Laag_2" data-name="Laag 2" xmlns="http://www.w3.org/2000/svg" viewBox="0 0 40.47 28.48">
  <defs>
    <style>
      .cls-1 {
        fill: #8d685c;
      }

      .cls-2 {
        fill: #493431;
      }

      .cls-3 {
        fill: #a6796f;
      }

      .cls-4 {
        fill: #cc8e6a;
      }

      .cls-5 {
        fill: #772a2a;
      }

      .cls-6 {
        fill: #8c665a;
      }

      .cls-7 {
        fill: #66524a;
      }

      .cls-8 {
        fill: #362c2b;
      }

      .cls-9 {
        fill: #85cef7;
      }

      .cls-10 {
        fill: #e5b385;
      }

      .cls-11 {
        fill: #e2b184;
      }

      .cls-12 {
        fill: #f36a58;
      }

      .cls-13 {
        fill: #fac695;
      }

      .cls-14 {
        fill: #493605;
      }
    </style>
  </defs>
  <g id="Laag_1-2" data-name="Laag 1">
    <g>
      <path class="cls-11" d="M18.87,1.94c-.03.84-1.76.94-.58,1.91.37.1,2.62-.84,2.26-1.67.59.3.38.07.72,0,.88,1.36,1.9,1.86,3.36.96.41.53,2.91,1.35,2.4,0,.31.1,1.04-.19,1.34.22.33.47-.02,2.44.1,3.14-.78.03-2.98.05-3.13.84-.08.44.39,4.16.6,4.44.09.12,1.7.63,2.04.72l-.24,1.44c-.73-.33-1.64-.06-2.16-1.2-.02-.48-.18-.94-.26-1.42-1.09.03-1.83-.27-2.86-.02-.86.2-1.49.36-1.44,1.44-1.4.07-3.71.06-4.97.67-.46.22-4.73,3.76-4.82,4.06-.13.43-.13,2.12-.04,2.59.14.72,4.46,5.49,5.17,5.64.4.08.89-.02,1.31,0,.35.43,1.62.71,2.16.72-.06.65-.08.87.48,1.2-.59-.16-.5.57-.87.68-.89.29-4.72.2-5.63-.07-.53-.15-.49-.62-.7-.73-.4-.21-.94,0-1.2-.37,2.17-.04.69-.36,1.3-1.22.23-.32.91,0,.86-.46-3.01-.03-3.86-.55-4.29-3.51-.52-3.59-.26-7.94-.26-11.62v-1.2c1.28-1.51,4.93-2.78,6.02-4.2.59-.77-.12-2.27-.5-3,.97.16,2.77.03,3.84,0ZM20.79,10.1c0-.82-.07-3.32-.89-3.55-.22-.06-2.08-.27-2.3-.24-.5.06-3.29,1.22-3.29,1.75v4.92c2.06-.04,3.98-1.07,6.06-1.2.38-.17.39-.84.42-1.2.01-.16,0-.32,0-.48ZM19.35,27.14h-4.2c-.25,0-.46.68-.36.96h4.2c.25,0,.46-.68.36-.96Z"/>
      <path class="cls-10" d="M.87,8.66c.59-.09,1.39.03,2.04,0,.29-.01,1.01-.3,1.08-.24.42.4-.71.53-.48.96-1.2.57.19,1.47.24,1.92.04.34-.5,1.09-.12,1.44.6-.48,2.11-.63,2.28-1.44.37-.05,1.02-.38,1.44-.48l.23,9.49c.45,1.51-.05,3.63.83,4.93.55.81,1.81,1,2.06,1.9-2.28.05-4.31.96-6.58.69-1.22-.15-1.37-.58-1.56-1.79-.6-3.84.05-8.59-.51-12.2-.17-1.08-3.29-4.81-.94-5.18ZM7.83,25.94c.41-1.74-.85-1.88-2.29-1.93-1.21-.04-1.49.27-1.31,1.45,1.25-.14,2.41.15,3.6.48Z"/>
      <path class="cls-13" d="M29.67,2.18c-.4.46-.72,2.33-.43,2.83.12.21,3.42,2.28,3.97,2.63.34.22.55.64.78.78l-.48,12.96c-.12.03-1.66.75-1.68.85-.09.71,1.15,1.24,1.2,1.31.07.11-.05.73,0,.96-.06.08-.24.42-.24.48-1.22.36-2.2.07-3.36.72-.25-.52-1.41.03-1.44-.48.08-.07.22-.15.24-.24.03-.13,0-.33,0-.48.57.03.63-.34.85-.71.69-1.15,2.38-4.41,2.29-5.65-.03-.41-1.06-3.01-1.28-3.18-.18-.15-1.14-.32-1.55-.49-.34-.15-.6-.44-.79-.53l.24-1.44c.25.07.71-.05,1.06.01.66.13,1.62.85,2.32.36.78-.54-.31-5.29-.52-6.35-.78-.03-1.59-.05-2.38-.02-.13-.7.23-2.67-.1-3.14-.29-.41-1.03-.12-1.34-.22-.08-.03-1.08-.97-1.2-1.2,1.28.01,2.61-.15,3.84.24Z"/>
      <path class="cls-1" d="M15.03,1.94c.38.73,1.1,2.23.5,3-1.1,1.42-4.74,2.68-6.02,4.2-.68.27-1.22.63-2.01.5-.2-.05-.39-1.13-.39-1.35,0-.93,1.28-7.29,1.75-7.73.52-.49,2.18-.64,2.88-.49,1.12.24,2.25,1.7,3.29,1.86Z"/>
      <path class="cls-3" d="M29.67,2.18c.36-.41,3.15-2.06,3.74-2.15.84-.13,2.22.09,2.72.85.61.92,2.02,8.19,1.19,8.7-.2.12-.74.04-.99-.02-.14-.04-2.12-1.02-2.33-1.15-.23-.14-.44-.56-.78-.78-.54-.35-3.85-2.43-3.97-2.63-.29-.5.03-2.37.43-2.83Z"/>
      <path class="cls-4" d="M9.51,10.34c0,3.67-.26,8.03.26,11.62.43,2.96,1.28,3.48,4.29,3.51.05.45-.63.14-.86.46-.61.86.87,1.18-1.3,1.22-.48,0-.96-.01-1.44,0-.25-.9-1.5-1.09-2.06-1.9-.89-1.3-.38-3.42-.83-4.93l-.23-9.49c.71-.17,1.41-.45,2.16-.48Z"/>
      <path class="cls-9" d="M33.51,21.38c.56-.15,2.68-.47,3.01-.01.61.83-1.97,2.55-1.57,2.89.43.08,2.25-.12,2.39.02s.48,1.52-.35,1.67-4.24.18-4.2-.96c0-.06.18-.4.24-.48.26-.35,1.16-.83,1.44-1.32l-1.44.36c-.05-.08-1.29-.6-1.2-1.31.02-.09,1.56-.81,1.68-.85Z"/>
      <path class="cls-9" d="M38.79,19.46h1.68s0,1.44,0,1.44l-3.36-.24c-.37-.57.55-1.62.48-1.68-.14-.13-1.44-.15-1.2-1.44.93-.06,2.78-1.16,3.61-.61,1.03.69-1.68,2.13-1.21,2.53Z"/>
      <path class="cls-13" d="M.87,8.66c.11-.82,2.64-2.22,3.21-2.11,1.01.19,2.23,3.27.51,3.57l-1.08-.74c-.23-.43.9-.56.48-.96-.06-.06-.79.23-1.08.24-.65.03-1.45-.09-2.04,0Z"/>
      <path class="cls-11" d="M27.75,25.46c.06.17.16.32.24.48-.98-.15-1.37.95-1.9,1.1-.73.21-2.25.17-3.09.15-.61-.01-.19.54-.3.91h-1.2c-.08-.02-.17-.21-.24-.24-.14-.61.6-.62.7-.75.07-.1-.19-.33-.22-.45.87.08,1.89-.19,2.4-.96.33-.03.69-.21,1.08-.24.78-.06,1.84.13,2.52,0Z"/>
      <path class="cls-9" d="M38.31,11.78c.22.93-.95,1.08-.96,1.92,1.31.02,1.6-.72,1.68.96-.68-.12-2.4.23-2.89-.11-.41-.28,0-.79-.12-1.1-.13-.36-.96-.59-.83-1.19,1.05-.34,1.99-.62,3.12-.48Z"/>
      <path class="cls-13" d="M27.99,25.94c.06.12.24.45.24.48.05.38.07,1.42-.11,1.7-.23.29-.55.19-.85.22-1.36-.44-3.11-.24-4.56-.24.11-.37-.32-.92.3-.91.83.02,2.35.06,3.09-.15.52-.15.92-1.24,1.9-1.1Z"/>
      <path class="cls-13" d="M24.39,1.94c-.01.38,0,.89.24,1.2-1.46.9-2.48.4-3.36-.96,1.19-.23,1.89-.22,3.12-.24Z"/>
      <path class="cls-7" d="M20.55,2.18c.36.83-1.89,1.77-2.26,1.67-1.19-.97.55-1.07.58-1.91.31,0,.69-.28,1.08-.24.5.05.53.45.6.48Z"/>
      <path class="cls-7" d="M25.83,1.94c.12.23,1.12,1.17,1.2,1.2.51,1.35-1.99.53-2.4,0-.24-.31-.25-.82-.24-1.2.48,0,.96,0,1.44,0Z"/>
      <path class="cls-12" d="M20.79,25.94c.16,0,.32,0,.48,0s.32,0,.48,0c.03.23-.04.51,0,.72.02.12.29.35.22.45-.09.13-.84.14-.7.75-.26-.09-.43.07-.96-.24-.56-.33-.54-.55-.48-1.2.4,0,.56-.04.48-.48.16,0,.32,0,.48,0Z"/>
      <path class="cls-13" d="M5.91,11.3c-.17.81-1.68.96-2.28,1.44-.39-.35.16-1.11.12-1.44.6-.34,1.95.03,2.16,0Z"/>
      <path class="cls-10" d="M22.71,28.1c1.45,0,3.2-.2,4.56.24-1.53.16-4.35.11-5.76-.24h1.2Z"/>
      <path class="cls-4" d="M29.43,25.7c-.21.12-.46.97-1.2.72,0-.03-.18-.36-.24-.48-.08-.16-.18-.31-.24-.48.03,0,.16-.17.24-.24.03.51,1.19-.04,1.44.48Z"/>
      <path class="cls-6" d="M21.03,12.74c.02.36,1.06,2.48,1.25,2.59.25.15.81.04,1.15.05s.52.14.96-.24c.25,1.18,2.01,1.87,2.4.48.32.43,1.29,1.27,1.39,1.61.19.63.03,1.75.05,2.47-1.82-.35-1.57,1.11,0,.96,0,1.31-.04,2.61,0,3.84,0,.15.03.35,0,.48-.18-.02-.25.06-.24.24-.08.07-.21.23-.24.24-.68.14-1.74-.06-2.52,0-.39.03-.75.21-1.08.24-.72.06-1.86.22-2.4.24-.16,0-.32,0-.48,0,.13-.75-.63-.71-.48,0-.16,0-.32,0-.48,0-.59,0-1.81-.2-2.64-.24-.42-.02-.91.08-1.31,0-.7-.15-5.03-4.92-5.17-5.64-.09-.46-.08-2.15.04-2.59.09-.3,4.36-3.84,4.82-4.06,1.26-.61,3.57-.6,4.97-.67ZM21.51,16.82l-1.2.84c.77.86,1.37.14,1.2-.84ZM25.79,17.34c-.03-.05-.67-.29-.78-.27-.91.73-.15,1.37.82,1.19-.03-.28.09-.7-.04-.92ZM18.15,19.46c.41-.56-1.18-.96-1.44-.72-.61.57.96,1.36,1.44.72ZM21.51,19.94l-1.2.84c.77.86,1.37.14,1.2-.84ZM26.07,20.9c.62-.63-1.22-1.52-1.44-.6-.16.66,1.31.72,1.44.6ZM23.43,21.38c-.86-.21-.81,1.39-1.01,1.62-.1.12-.56.1-.78.29-1.07.92-1.43,2.08.41,1.87,2.66-.3,1.15-1.94,1.39-3.78Z"/>
      <path class="cls-6" d="M20.79,10.1c-.91-.82-5.32.42-5.52,1.08-.15.47.27.4.59.35,1.52-.27,3.1-1.42,4.93-.95-.03.36-.04,1.03-.42,1.2-2.08.13-4,1.16-6.06,1.2v-4.92c0-.53,2.79-1.69,3.29-1.75.21-.03,2.07.18,2.3.24.82.23.88,2.74.89,3.55Z"/>
      <path class="cls-3" d="M28.47,6.5c.79-.03,1.59,0,2.38.02.21,1.06,1.3,5.81.52,6.35-.7.49-1.66-.23-2.32-.36-.35-.07-.8.05-1.06-.01-.34-.09-1.95-.6-2.04-.72-.21-.28-.68-4-.6-4.44.15-.8,2.34-.81,3.13-.84ZM31.1,10.59c-.06-.07-1.62-.5-1.8-.51-.85-.04-2.02.51-3,.26v.72c.94.26,2.18-.32,2.98-.24.56.06,1.12.68,1.82.48-.03-.2.06-.63,0-.71Z"/>
      <path class="cls-3" d="M27.75,13.94c.19.08.44.38.79.53.41.18,1.37.35,1.55.49.22.18,1.25,2.77,1.28,3.18.09,1.23-1.6,4.5-2.29,5.65-.22.38-.28.74-.85.71-.04-1.23,0-2.53,0-3.84,0-.32,0-.64,0-.96-.02-.73.14-1.85-.05-2.47-.1-.33-1.07-1.18-1.39-1.61-.05-.06.08-.46-.24-.83-.21-.24-.85-.56-1.2-.61.14-.47.27-.94.24-1.44.52,1.14,1.43.87,2.16,1.2Z"/>
      <path class="cls-8" d="M22.47,11.3c.31.75.82.99,1.09,1.91.19.63.55,1.73-.13,2.17-.34,0-.9.1-1.15-.05-.19-.11-1.24-2.23-1.25-2.59-.05-1.08.58-1.24,1.44-1.44Z"/>
      <path class="cls-2" d="M22.47,11.3c1.03-.24,1.77.05,2.86.02.08.47.24.93.26,1.42s-.1.97-.24,1.44c-.92-.14-1.16-.01-.96.96-.44.38-.63.25-.96.24.68-.44.31-1.53.13-2.17-.27-.92-.78-1.16-1.09-1.91ZM23.67,11.78c-.55.55.99,1.52,1.2.6.13-.59-1.04-.75-1.2-.6Z"/>
      <path class="cls-13" d="M19.35,27.14c.1.28-.11.96-.36.96h-4.2c-.1-.28.11-.96.36-.96h4.2Z"/>
      <path class="cls-2" d="M20.79,10.1c0,.16.01.32,0,.48-1.84-.47-3.41.68-4.93.95-.32.06-.73.12-.59-.35.2-.66,4.61-1.91,5.52-1.08Z"/>
      <path class="cls-7" d="M20.31,25.94c.08.44-.08.49-.48.48-.54-.01-1.81-.29-2.16-.72.83.04,2.05.23,2.64.24Z"/>
      <path class="cls-4" d="M7.83,25.94c-1.19-.33-2.34-.61-3.6-.48-.18-1.18.1-1.49,1.31-1.45,1.44.04,2.7.19,2.29,1.93Z"/>
      <path class="cls-14" d="M33.03,24.5c-.05-.23.07-.85,0-.96l1.44-.36c-.28.49-1.18.97-1.44,1.32Z"/>
      <path class="cls-3" d="M27.99,25.22c-.01-.18.06-.26.24-.24-.02.09-.16.17-.24.24Z"/>
      <path class="cls-2" d="M24.15,25.7c-.51.77-1.53,1.04-2.4.96-.04-.21.03-.49,0-.72.54-.02,1.68-.18,2.4-.24Z"/>
      <path class="cls-7" d="M20.79,25.94c-.15-.71.61-.75.48,0-.16,0-.32,0-.48,0Z"/>
      <path class="cls-5" d="M23.43,21.38c-.24,1.85,1.27,3.48-1.39,3.78-1.84.21-1.48-.95-.41-1.87.22-.19.68-.17.78-.29.2-.24.15-1.83,1.01-1.62Z"/>
      <path class="cls-14" d="M25.35,14.18c.34.05.98.37,1.2.61.32.37.2.77.24.83-.39,1.39-2.15.7-2.4-.48-.2-.97.04-1.1.96-.96Z"/>
      <path class="cls-7" d="M25.79,17.34c.13.22,0,.64.04.92-.96.18-1.72-.46-.82-1.19.11-.02.75.22.78.27Z"/>
      <path class="cls-7" d="M26.07,20.9c-.12.12-1.6.07-1.44-.6.22-.92,2.06-.03,1.44.6Z"/>
      <path class="cls-7" d="M21.51,19.94c.17.97-.43,1.7-1.2.84l1.2-.84Z"/>
      <path class="cls-7" d="M18.15,19.46c-.48.64-2.04-.14-1.44-.72.26-.25,1.85.16,1.44.72Z"/>
      <path class="cls-7" d="M21.51,16.82c.17.97-.43,1.7-1.2.84l1.2-.84Z"/>
      <path class="cls-7" d="M28.23,19.7c0,.32,0,.64,0,.96-1.57.15-1.82-1.31,0-.96Z"/>
      <path class="cls-2" d="M31.1,10.59c.06.08-.02.51,0,.71-.7.2-1.26-.42-1.82-.48-.8-.08-2.04.5-2.98.24v-.72c.98.25,2.15-.3,3-.26.17,0,1.74.44,1.8.51Z"/>
      <path class="cls-14" d="M23.67,11.78c.16-.16,1.33,0,1.2.6-.21.92-1.75-.05-1.2-.6Z"/>
    </g>
  </g>
</svg>