<?xml version="1.0" encoding="UTF-8"?>
<svg id="Laag_2" data-name="Laag 2" xmlns="http://www.w3.org/2000/svg" viewBox="0 0 50.95 36.16">
  <defs>
    <style>
      .cls-1 {
        fill: #881b4f;
      }

      .cls-2 {
        fill: #ea4179;
      }

      .cls-3 {
        fill: #f5bace;
      }

      .cls-4 {
        fill: #fdfbfc;
      }

      .cls-5 {
        fill: #f18fb2;
      }

      .cls-6 {
        fill: #ed6392;
      }
    </style>
  </defs>
  <g id="Laag_1-2" data-name="Laag 1">
    <g id="_2GlYEV.tif" data-name="2GlYEV.tif">
      <g>
        <path class="cls-1" d="M48.75,5.07c2.03.53,2.86,3.09,1.58,4.75-.1.13-.52.46-.54.56-.02.08.3.92.32,1.18.12,1.11-.25,2.12-.94,2.97,1.22,1.25.98,3.43-.41,4.45-.18.14-.95.46-.98.51-.04.06-.06.48-.1.62-.24.79-.74,1.16-1.42,1.56l-.02,8.92c-.17,1.15-.82,2.28-1.84,2.87-1.43.82-2.2.38-3.67.16-1.31-.19-2.63-.4-3.95-.55-8.24-1-16.59-.92-24.82.13.32,1.82-1.63,3.16-3.15,2.01-.11-.09-.34-.39-.43-.4-.05-.01-.65.25-.8.29-.67.17-1.23.17-1.88-.08-.89,1.64-3.25,1.51-3.77-.34-.04-.13.02-.33-.05-.44-.03-.04-.71-.33-.9-.48-1.13-.9-1.3-2.54-.45-3.7.09-.13.37-.31.41-.43.03-.11-.24-.91-.26-1.17-.06-.83.26-1.74.82-2.36-1.05-1.22-.84-3.09.52-3.97.14-.09.65-.29.67-.32.08-.11.06-.4.11-.57.18-.53.47-.73.78-1.16l.02-11.48c.21-1.46,1.37-2.87,2.82-3.21,1.03-.24,2.94.29,4.06.44,8.84,1.21,17.76,1.39,26.62.29-.49-2.53,2.64-3.69,4.12-1.67.94-.68,2.1-.6,3.18-.34,1.14-2.19,4.26-1.5,4.35.97ZM45.83,3.63c-.27.12-.43.19-.62.45s-.25.83-.52.87c-.22.03-.85-.3-1.18-.34-.5-.06-1.01,0-1.48.17-.27.1-.81.52-1,.52-.3,0-.3-.32-.46-.52-1.2-1.48-3.34-.32-2.75,1.44.17.51.76.94,1.28,1,.3.04.45-.07.68-.06.44.02.27.62.33.92.28,1.52,1.4,2.34,2.88,2.53.38.05.69-.19.63.46-.11,1.18-.3,1.9.56,2.92.21.25.95.7.97.91.02.18-.3.53-.38.72-.16.39-.22.93-.17,1.35.04.33.35.71.26,1.03-.06.18-.35.3-.47.43-.68.75-.5,1.87.35,2.39.74.45,1.61.31,2.11-.42.34-.5.15-1.13.31-1.35.1-.14.67-.26.88-.36,1.21-.62,1.63-2.14.94-3.32-.13-.22-.66-.7-.64-.88,0-.1.58-.67.71-.89.48-.82.57-1.73.25-2.63-.07-.2-.35-.57-.3-.74s.6-.55.77-.76c.93-1.14.55-3.02-.82-3.62-.2-.09-.72-.17-.82-.29-.17-.22.07-1.02-.48-1.6-.49-.53-1.17-.59-1.8-.31ZM4.48,7.99c-.1.26-.2.51-.21.79-.07,3.53.11,7.07,0,10.6,0,.13-.09.33-.07.41.05.19.3.03.44.04.11,0,.34.05.45.07.68.15,1.29.7,1.45,1.39.14.56.08,1-.2,1.5-.07.14-.41.51-.41.55-.01.07.2.78.2,1.03,0,.41-.21.87-.35,1.25,0,.1.44.41.55.55.54.65.67,1.3.69,2.11,0,.18,0,.37,0,.55.78.05,1.55.43,2.08,1,.15.17.45.71.59.73.93-.12,1.85-.3,2.78-.41,8.82-1.08,17.57-1,26.37.21,1.09.15,3.18.7,4.15.59,1.63-.18,2.52-1.77,2.62-3.27s.14-4.18,0-5.68c0-.1-.03-.21-.08-.3-1.79.05-2.86-2.01-1.85-3.49.11-.15.39-.35.4-.5.03-.26-.23-.8-.21-1.25s.37-1.24.35-1.45-.43-.42-.58-.6c-.64-.73-.9-1.78-.87-2.73,0-.14.16-.39,0-.45-.23-.09-.7-.06-.97-.21.12.63.07,1.3.07,1.94,0,2.64-.02,5.31,0,7.93,0,1.5.38,4.54-.32,5.78-1.33,2.35-3.82,1.31-5.96,1.06-7.49-.9-14.59-.85-22.08.07-1.25.15-2.68.66-3.85.13-.81-.37-1.5-1.2-1.66-2.08,0-3.99-.24-8.09-.07-12.09.01-.34.11-1.8.2-2.01.17-.37.31-.03.35.22.6,4.18-.19,9.06.14,13.3.1,1.26,1.04,2.23,2.33,2.18s2.98-.47,4.36-.63,2.71-.26,4.05-.35c5.3-.34,10.68-.22,15.97.42,1.06.13,2.61.55,3.61.56s1.87-.73,2.14-1.66c.17-3.69.13-7.44.1-11.15,0-.95.05-1.97,0-2.91-.07-1.23-.9-2.1-2.12-2.28-6.91,1.06-13.98,1.52-20.94.69l-.14-.21c.45-.11.86,0,1.28,0,4.98.04,9.94.04,14.9-.49,1.51-.16,3.28-.6,4.73-.67.22-.01.47.1.71.05-.06-.15-.15-.92-.22-.96-.03-.02-.58-.02-.79-.07-.26-.07-.73-.37-.93-.56-.32-.3-.06-.43-.73-.42-1.26.03-2.72.32-4.02.42-7.03.54-14.33.35-21.32-.56-1.31-.17-3.29-.69-4.51-.69s-2.21.95-2.6,2.02ZM11.2,33.21c-.17-.44-.52-.77-1.01-.83-.41-.05-.8.26-.91-.33-.17-.92-.08-1.28-.88-1.96-.72-.6-1.11-.48-1.92-.64-.46-.09-.04-.88-.04-1.26-.01-.83-.44-1.44-1.01-1.97-.17-.16-.44-.18-.45-.46,0-.21.45-.76.48-1.24.04-.54-.3-1.08-.26-1.37.02-.19.27-.27.41-.43,1.09-1.26-.49-2.88-1.73-1.87-.68.55-.32,1.1-.52,1.42-.07.12-.58.22-.74.29-.97.46-1.35,1.63-.91,2.61.13.29.65.76.65.94,0,.1-.55.65-.66.86-.31.59-.38,1.26-.23,1.9.06.27.38.74.31.94-.05.16-.58.52-.74.73-.1.13-.09.2-.14.31-.43.92-.19,1.91.67,2.48.22.14.87.31.93.39.11.14.05.79.28,1.17.44.7,1.52.84,2.07.2.32-.37.18-.95.78-.83.86.17,1.14.48,2.13.09.22-.09.56-.38.73-.39.41-.03.4.37.61.61.63.68,1.8.45,2.14-.41.17-.44.16-.51-.01-.95ZM45.17,30.54c-1.95,1.86-3.75.86-6.1.53-8.43-1.17-17.09-1.34-25.55-.35-1.17.14-2.35.35-3.52.5-.19.05-.12.4,0,.48.15.09.55.07.83.19.25.11.75.62.82.64.47.09.94-.09,1.39-.13,8.4-.85,16.54-.97,24.92.14,1.44.19,3.03.62,4.45.75,1.75.16,3.17-1.42,3.14-3.11-.13.12-.25.25-.38.38Z"/>
        <path class="cls-1" d="M40.94,2.98c-1.5-1.58.82-4.02,2.47-2.51,1.75,1.61-.84,4.22-2.47,2.51ZM41.94.74c-1.18.24-.94,2.27.38,2.12,1.42-.17,1.19-2.44-.38-2.12Z"/>
        <path class="cls-6" d="M37.66,7.23c.2.19.67.48.93.56.21.06.76.05.79.07.07.04.16.81.22.96-.24.05-.49-.06-.71-.05-1.45.07-3.22.51-4.73.67-4.95.53-9.91.53-14.9.49-.42,0-.82-.12-1.28,0l.14.21c-.15.09-.23.15-.02.26.87.12,1.74.29,2.62.36,5.6.49,11.6-.08,17.17-.77.79-.1,1.05-.33,1.9-.01.34.13,1.1.76,1.18,1.11.02.08-.06.18-.04.21,0,.01.11.02.13.06.05.13.04.27.14.37.05.94,0,1.96,0,2.91-.34,0-.48.45-.66.69-.88,1.13-1.99,2.35-3.12,3.22-.06.05.03.19-.16.04.19-.84-.08-1.57-.69-2.15-.02-.02-.03-.07-.07-.1-.05-.03-.11-.02-.14-.04-.02,0-.05,0-.07,0,.03-.09-.23-.33-.26-.34-.68-.33-2.99-.34-3.79-.28-.13,0-.25.02-.37.08v5.9s.27.12.27.12v.14c-.11.03-.88.5-1.09.6-3.68,1.7-7.5,2.92-11.45,3.79-.12.03-.24,0-.2.17-1.35.09-2.71.19-4.05.35s-3.03.57-4.36.63-2.23-.93-2.33-2.18c-.33-4.24.46-9.11-.14-13.3-.04-.25-.18-.59-.35-.22-.09.21-.19,1.67-.2,2.01-.17,4,.08,8.1.07,12.09-.27.46.27.89.38,1.25.05.17-.15.2.15.22l.65.74c-.71.1-1.44.12-2.15.21-.03-.82-.16-1.46-.69-2.11-.12-.14-.55-.46-.55-.55.14-.38.35-.84.35-1.25,0-.25-.21-.96-.2-1.03,0-.04.34-.41.41-.55.27-.5.33-.94.2-1.5.13-.09.15-.26.19-.4.43-1.7.42-5.54-.21-7.16-.09-.23-.29-.82-.63-.74-.41.11-.67,1.38-.73,1.77-.29,1.67-.28,3.47-.08,5.15-.11-.03-.34-.07-.45-.07-.15,0-.4.15-.44-.04-.02-.08.07-.28.07-.41.1-3.53-.08-7.07,0-10.6.01-.28.11-.53.21-.79.22-.03.3-.34.45-.48,1.61-1.57,3.59-.69,5.55-.43,8.8,1.17,17.97,1.41,26.79.28.13-.02.29-.04.39-.13ZM9.94,8.29c-.42.03-2.55.26-2.55.78,0,.31.9.53,1.15.58,1.24.25,5.54.4,6.49-.35.41-.32.06-.52-.29-.66-1.06-.42-3.64-.43-4.81-.35ZM17.02,16.17c-1.2-.99-4.38-.79-4.64,1.15-.04.27.21,1.18.43,1.34.02.01.05-.06.06-.06.26.14.44.41.78.57.71.33,1.63.31,2.26.75-.15,1.22-1.82.7-2.63.48-.08-.05-.08-.07-.21-.14-.53-.28-.38.01-.56.43-.04.09-.25.17-.19.42.02.15.22.15.27.19,1.47,1.26,5.49.99,4.89-1.6-.06-.26-.3-.48-.46-.69v-.14c-.05-.01-.06.07-.07.07-.09,0-.12-.06-.14-.07.1-.41-.31-.32-.59-.41-.3-.1-1.27-.45-1.45-.47-.11-.01-.37.05-.52-.01-.01-.01-.09.03-.14-.05-.25-.42.13-.81.54-.9.79-.18,1.51.1,2.23.4,0-.3.36-.76.35-1.01,0-.08-.15-.19-.21-.24ZM18.4,20.39c.77,1.59,3.07,2.02,4.56,1.27,2.25-1.12,2.21-4.46-.06-5.5.04-.18-.09-.14-.19-.19-2.61-1.3-5.6.81-4.74,3.76.06.2.18.64.43.65ZM28.79,15.96c.03-.18-.3-.26-.45-.28-.22-.02-1.02.01-1.18.14-.64,1.44-1.29,2.87-1.92,4.31-.1.22-.2.44-.3.67-.05.13-.43.85-.38.9.02.02.19-.02.21,0,.02.02-.04.19.04.21.09.02,1.35.02,1.41-.02.15-.4.33-.78.5-1.17.67.11,1.97-.16,2.57.03.4.13.25.91.69,1.08.26.1,1.05.11,1.35.07.1-.01.12.04.1-.1-.84-1.97-1.69-3.94-2.63-5.86Z"/>
        <path class="cls-2" d="M42.79,11.25c.16.06,0,.31,0,.45-.03.96.23,2,.87,2.73.15.18.56.39.58.6s-.33,1.03-.35,1.45c-.02.44.24.99.21,1.25-.02.15-.3.34-.4.5-1.01,1.49.06,3.54,1.85,3.49.05.09.07.2.08.3.14,1.5.1,4.15,0,5.68s-.99,3.09-2.62,3.27c-.97.1-3.06-.44-4.15-.59-8.81-1.21-17.55-1.29-26.37-.21-.93.11-1.85.29-2.78.41-.14-.02-.44-.56-.59-.73-.53-.57-1.3-.95-2.08-1,0-.18,0-.37,0-.55.71-.09,1.44-.11,2.15-.21.16-.02.36-.03.48-.14,1.17.53,2.61.03,3.85-.13,7.49-.92,14.58-.97,22.08-.07,2.13.26,4.62,1.29,5.96-1.06.7-1.23.33-4.28.32-5.78-.01-2.62,0-5.29,0-7.93.17,0,.18-.09.24-.21.25-.47.35-1.07.66-1.52Z"/>
        <path class="cls-2" d="M41.19,14.64c.02,3.71.07,7.46-.1,11.15-.28.94-1.14,1.67-2.14,1.66s-2.54-.43-3.61-.56c-5.29-.64-10.66-.76-15.97-.42-.04-.17.09-.15.2-.17,3.95-.88,7.77-2.1,11.45-3.79.21-.1.98-.58,1.09-.6.21-.05,1.34.05,1.39,0,0-.21,0-.42,0-.62.36-.35.87-.54,1.28-.83.08-.06.21-.05.17-.21,1.12-.07,2.02-.5,2.29-1.66.19.15.1,0,.16-.04,1.13-.87,2.24-2.09,3.12-3.22.19-.24.32-.7.66-.69Z"/>
        <path class="cls-4" d="M45.83,3.63c.44.13.26.15.35.43.02.07.14.05.18.18.06.21,0,.43.05.65.1.6.55.56.98.83,1.66,1.03,1.6,3.5-.03,4.53.72,1.46.57,3.07-.61,4.23,1.28,1.39,1.2,3.5-.52,4.46-.16.09-.71.26-.77.34-.07.12-.02.4-.05.57-.06.32-.28.95-.67.95-.85-.52-1.03-1.64-.35-2.39.12-.13.42-.25.47-.43.09-.32-.21-.7-.26-1.03-.06-.42,0-.95.17-1.35.08-.19.4-.55.38-.72-.02-.21-.76-.66-.97-.91-.86-1.02-.68-1.74-.56-2.92.06-.65-.24-.41-.63-.46-1.48-.19-2.6-1-2.88-2.53-.06-.31.11-.91-.33-.92-.22,0-.38.09-.68.06-.52-.06-1.12-.5-1.28-1-.58-1.76,1.55-2.92,2.75-1.44.16.2.15.52.46.52.19,0,.73-.42,1-.52.47-.17.98-.23,1.48-.17.33.04.96.37,1.18.34.27-.04.34-.61.52-.87s.35-.33.62-.45ZM39.88,4.81c-.05-.39-.68-.39-.97-.31-.75.2-.98,1.6-.14,1.77-.3-.81.27-1.51,1.11-1.45ZM44.45,11.11c-.47,0-.65.77-.63,1.14.07.95,1.32,1.57,2.08.97.04-.03.14-.1.14-.14.05-.25-.29-.1-.37-.11-.98-.11-1.49-.92-1.22-1.86Z"/>
        <path class="cls-4" d="M.88,30.85c.05-.11.04-.18.14-.31.15-.21.68-.56.74-.73.06-.2-.25-.68-.31-.94-.15-.64-.08-1.31.23-1.9.11-.21.66-.76.66-.86,0-.18-.52-.66-.65-.94-.44-.98-.06-2.15.91-2.61.17-.08.67-.17.74-.29.2-.32-.16-.87.52-1.42,1.25-1.01,2.83.61,1.73,1.87-.13.16-.38.24-.41.43-.04.29.31.83.26,1.37-.04.48-.49,1.03-.48,1.24,0,.28.28.3.45.46.58.54,1,1.14,1.01,1.97,0,.39-.42,1.18.04,1.26.82.16,1.21.04,1.92.64.8.67.72,1.04.88,1.96.11.6.5.29.91.33.49.06.84.39,1.01.83-.49.55-1.44.36-1.94-.1-.13-.12-.36-.52-.39-.53-.09-.01-.84.4-1.06.46-.72.18-1.28.03-1.97-.16-.5.88-1.07,1.36-2.15,1.16-.65-.12-1.31-1.22-1.08-1.87-.72-.01-1.52-.63-1.73-1.32ZM5.52,21.64c0-1.12-1.61-1.23-1.66-.1-.01.32.19-.06.21-.07.26-.25.62-.33.96-.19.19.08.28.36.5.36ZM5.91,27.14c-.16-.18-.62-.47-.86-.49-.11,0-.75.09-.77.13-.15.25.32.21.54.31.86.4.78,1.36.49,2.11.83-.21,1.13-1.45.6-2.05Z"/>
        <path class="cls-2" d="M45.17,30.54c.13-.12.25-.25.38-.38.03,1.69-1.39,3.26-3.14,3.11-1.42-.13-3.01-.56-4.45-.75-8.38-1.1-16.52-.99-24.92-.14-.45.05-.92.22-1.39.13-.07-.01-.56-.52-.82-.64-.28-.12-.68-.1-.83-.19-.12-.07-.19-.43,0-.48,1.17-.15,2.35-.36,3.52-.5,8.46-.99,17.12-.82,25.55.35,2.36.33,4.15,1.33,6.1-.53Z"/>
        <path class="cls-3" d="M44.73,20.81c.4,0,.61-.63.67-.95.03-.17-.02-.45.05-.57.05-.09.61-.25.77-.34,1.72-.96,1.81-3.07.52-4.46,1.18-1.15,1.33-2.77.61-4.23,1.63-1.03,1.69-3.5.03-4.53-.42-.26-.87-.23-.98-.83-.04-.22.01-.44-.05-.65-.04-.13-.15-.11-.18-.18-.09-.28.09-.3-.35-.43.63-.28,1.31-.23,1.8.31.54.59.31,1.38.48,1.6.1.13.62.21.82.29,1.37.6,1.75,2.47.82,3.62-.17.21-.73.59-.77.76s.23.54.3.74c.32.9.23,1.81-.25,2.63-.13.22-.7.79-.71.89-.02.19.51.66.64.88.69,1.17.27,2.7-.94,3.32-.21.11-.78.22-.88.36-.16.22.03.85-.31,1.35-.5.73-1.37.87-2.11.42Z"/>
        <path class="cls-5" d="M37.66,7.23c-.1.09-.26.11-.39.13-8.82,1.13-17.99.9-26.79-.28-1.96-.26-3.94-1.15-5.55.43-.15.15-.23.46-.45.48.39-1.06,1.41-2.01,2.6-2.02s3.2.52,4.51.69c6.99.91,14.29,1.11,21.32.56,1.29-.1,2.75-.39,4.02-.42.67-.02.41.12.73.42Z"/>
        <path class="cls-3" d="M.88,30.85c.21.68,1.01,1.31,1.73,1.32-.24.65.43,1.75,1.08,1.87,1.08.2,1.65-.29,2.15-1.16.69.2,1.25.34,1.97.16.23-.06.97-.47,1.06-.46.03,0,.26.41.39.53.5.46,1.45.65,1.94.1.17.43.18.5.01.95-.34.87-1.51,1.09-2.14.41-.22-.23-.2-.63-.61-.61-.17.01-.51.3-.73.39-.99.39-1.27.08-2.13-.09-.6-.12-.46.46-.78.83-.55.64-1.63.5-2.07-.2-.23-.38-.17-1.04-.28-1.17-.06-.08-.72-.24-.93-.39-.86-.57-1.1-1.56-.67-2.48Z"/>
        <path class="cls-5" d="M6.56,21.29c-.17-.69-.77-1.23-1.45-1.39-.2-1.68-.21-3.48.08-5.15.07-.38.32-1.66.73-1.77.33-.09.54.5.63.74.62,1.63.63,5.47.21,7.16-.04.14-.06.31-.19.4Z"/>
        <path class="cls-5" d="M41.19,11.73c-.1-.1-.08-.24-.14-.37-.02-.04-.12-.04-.13-.06-.01-.03.06-.13.04-.21-.08-.35-.84-.98-1.18-1.11-.84-.32-1.1-.09-1.9.01-5.57.69-11.57,1.26-17.17.77-.87-.08-1.75-.24-2.62-.36-.21-.11-.13-.17.02-.26,6.96.84,14.03.37,20.94-.69,1.22.18,2.05,1.05,2.12,2.28Z"/>
        <path class="cls-6" d="M42.79,11.25c-.3.45-.41,1.06-.66,1.52-.06.12-.08.21-.24.21,0-.64.05-1.31-.07-1.94.27.14.74.12.97.21Z"/>
        <path class="cls-5" d="M9.68,27.94c-.13.11-.32.12-.48.14l-.65-.74c-.31-.02-.1-.05-.15-.22-.11-.36-.65-.79-.38-1.25.16.88.86,1.71,1.66,2.08Z"/>
        <path class="cls-4" d="M41.94.74c1.57-.33,1.8,1.95.38,2.12-1.32.15-1.56-1.87-.38-2.12ZM42.72,1.14c-.41-.16-.83-.26-1.14.14-.36.46.04,1.11.17.97-.05-.39.05-.63.34-.87l.63-.24Z"/>
        <path class="cls-1" d="M22.91,16.17c2.27,1.04,2.31,4.38.06,5.5-1.49.75-3.79.32-4.56-1.27-1.41-2.92,1.68-5.52,4.5-4.23ZM20.2,20.46c1.88,1.4,4.09-1.1,2.49-2.84-.01-.01-.06.01-.07,0s.01-.06,0-.07c-2.1-1.9-4.37,1.46-2.42,2.91Z"/>
        <path class="cls-1" d="M36.27,16.31s.05,0,.07,0l.21.14c.61.58.88,1.31.69,2.15-.26,1.16-1.16,1.6-2.29,1.66-.48.03-.97-.02-1.45,0,0,.35,0,.69,0,1.04,0,.21,0,.42,0,.62-.05.05-1.18-.05-1.39,0v-5.96h3.22c.14,0,.76.27.94.35ZM33.5,18.94c0,.07,0,.14,0,.21.6-.05,1.58.15,2.08-.25.35-.28.43-1.1.15-1.44-.06-.07-.13-.04-.14-.05-.14-.12-.4-.35-.59-.35h-1.49c.01.62-.02,1.25,0,1.87Z"/>
        <path class="cls-1" d="M28.79,15.96c.94,1.92,1.79,3.89,2.63,5.86.02.14,0,.09-.1.1-.3.04-1.09.03-1.35-.07-.02-.2-.41-1.21-.53-1.23h-2.73s.01.1,0,.12c-.16.39-.35.77-.5,1.17-.06.04-1.32.04-1.41.02-.08-.02-.02-.19-.04-.21.16.03.15-.08.2-.18.84-1.84,1.63-3.71,2.44-5.56h1.38ZM28.03,17.62c-.26.59-.48,1.13-.69,1.73-.01.03-.19.07-.14.21h1.8c.08-.07-.65-1.82-.75-1.99-.25-.43-.19-.03-.22.05Z"/>
        <path class="cls-1" d="M17.02,16.17c.07.05.21.16.21.24,0,.24-.36.71-.35,1.01-.72-.3-1.44-.58-2.23-.4-.4.09-.78.48-.54.9.05.08.13.04.14.05.45.39,1.16.42,1.73.59.29.09.55.22.83.31.02,0,.04.07.14.07.02.03.05.05.07.07.16.2.4.43.46.69.6,2.59-3.41,2.86-4.89,1.6.13-.36.26-.73.48-1.04.13.07.13.09.21.14.3.19.65.41,1.02.47.59.09,2.19.13,1.77-.87-.05-.13-.14-.07-.16-.08-.63-.43-1.55-.42-2.26-.75-.34-.16-.52-.42-.78-.57-.83-2.21,1.3-3.01,3.13-2.68.35.06.67.23,1.02.26Z"/>
        <path class="cls-5" d="M9.94,8.29c1.17-.09,3.75-.07,4.81.35.35.14.69.34.29.66-.95.75-5.25.6-6.49.35-.26-.05-1.15-.26-1.15-.58,0-.52,2.13-.75,2.55-.78Z"/>
        <path class="cls-5" d="M32.12,21.78l-.28-.12v-5.9c.13-.06.25-.07.38-.08.8-.06,3.11-.05,3.79.28.04.02.29.26.26.34-.18-.08-.79-.35-.94-.35h-3.22v5.82Z"/>
        <path class="cls-5" d="M24.78,21.71s-.19.02-.21,0c-.05-.05.33-.77.38-.9.1-.23.2-.45.3-.67.63-1.44,1.28-2.88,1.92-4.31.16-.13.96-.17,1.18-.14.15.02.48.09.45.28h-1.38c-.82,1.86-1.6,3.73-2.44,5.57-.05.1-.04.22-.2.18Z"/>
        <path class="cls-5" d="M18.4,20.39c-.25,0-.37-.44-.43-.65-.87-2.96,2.13-5.07,4.74-3.76.1.05.23,0,.19.19-2.82-1.29-5.92,1.31-4.5,4.23Z"/>
        <path class="cls-5" d="M17.02,16.17c-.35-.03-.67-.2-1.02-.26-1.84-.33-3.96.47-3.13,2.68,0,0-.04.08-.06.06-.21-.16-.46-1.06-.43-1.34.26-1.94,3.43-2.14,4.64-1.15Z"/>
        <path class="cls-5" d="M15.91,19.91s.11-.04.16.08c.42,1-1.18.96-1.77.87-.37-.06-.72-.28-1.02-.47.81.22,2.48.74,2.63-.48Z"/>
        <path class="cls-5" d="M29.97,21.85c-.44-.17-.29-.95-.69-1.08-.59-.19-1.89.08-2.57-.03.01-.03-.01-.1,0-.14h2.73c.12.04.51,1.04.53,1.25Z"/>
        <path class="cls-5" d="M14.25,17.97c.15.06.41,0,.52.01.18.02,1.15.38,1.45.47.28.09.69,0,.59.41-.28-.09-.54-.23-.83-.31-.57-.17-1.28-.2-1.73-.59Z"/>
        <path class="cls-5" d="M13.07,20.25c-.22.31-.35.68-.48,1.04-.04-.04-.25-.03-.27-.19-.06-.25.15-.34.19-.42.18-.42.03-.71.56-.43Z"/>
        <path class="cls-5" d="M36.55,16.44l-.21-.14s.09,0,.14.04c.04.03.05.08.07.1Z"/>
        <path class="cls-5" d="M17.02,19.01s-.05-.04-.07-.07c0,0,.02-.08.07-.07v.14Z"/>
        <path class="cls-6" d="M34.96,20.25c.03.16-.09.15-.17.21-.42.29-.92.48-1.28.83,0-.35,0-.69,0-1.04.48-.02.97.03,1.45,0Z"/>
        <path class="cls-3" d="M44.45,11.11c-.27.95.24,1.75,1.22,1.86.09.01.43-.14.37.11,0,.03-.1.1-.14.14-.75.6-2.01-.01-2.08-.97-.03-.37.15-1.14.63-1.14Z"/>
        <path class="cls-3" d="M39.88,4.81c-.84-.06-1.41.64-1.11,1.45-.84-.17-.62-1.57.14-1.77.29-.08.92-.08.97.31Z"/>
        <path class="cls-3" d="M5.91,27.14c.53.6.23,1.84-.6,2.05.29-.75.37-1.71-.49-2.11-.23-.11-.7-.07-.54-.31.02-.04.66-.14.77-.13.25.02.7.31.86.49Z"/>
        <path class="cls-3" d="M5.52,21.64c-.23,0-.31-.29-.5-.36-.34-.14-.7-.06-.96.19-.01.01-.22.39-.21.07.05-1.13,1.67-1.02,1.66.1Z"/>
        <path class="cls-3" d="M42.72,1.14l-.63.24c-.29.24-.39.48-.34.87-.13.14-.53-.51-.17-.97.31-.4.73-.3,1.14-.14Z"/>
        <path class="cls-6" d="M22.63,17.55l-.07.03.07.03s.06-.01.07,0c.23.58.42,1.31.12,1.89-.05.09-.15.1-.17.14-.07.12-.06.22-.16.36-.32.43-1.11.67-1.63.59l-.66-.14c-1.95-1.45.33-4.81,2.42-2.91Z"/>
        <path class="cls-5" d="M20.2,20.46l.66.14c.52.08,1.31-.16,1.63-.59.1-.14.1-.24.16-.36.02-.03.12-.05.17-.14.29-.59.11-1.32-.12-1.89,1.59,1.73-.62,4.24-2.49,2.84Z"/>
        <path class="cls-5" d="M22.63,17.62l-.07-.03.07-.03s-.01.06,0,.07Z"/>
        <path class="cls-6" d="M35.58,17.41c.36,1.58-.92,1.51-2.08,1.52-.02-.62.01-1.25,0-1.87h1.49c.19,0,.45.23.59.35Z"/>
        <path class="cls-5" d="M35.58,17.41s.08-.03.14.05c.28.35.21,1.16-.15,1.44-.49.4-1.48.2-2.08.25,0-.07,0-.14,0-.21,1.16-.02,2.44.06,2.08-1.52Z"/>
        <path class="cls-6" d="M28.03,17.62c.33.51.52,1.16.76,1.73h-1.45c.21-.6.44-1.14.69-1.73Z"/>
        <path class="cls-5" d="M28.03,17.62c.03-.08-.03-.47.22-.05.1.17.82,1.91.75,1.99h-1.8c-.05-.14.13-.18.14-.21h1.45c-.24-.57-.43-1.22-.76-1.73Z"/>
      </g>
    </g>
  </g>
</svg>