<?xml version="1.0" encoding="UTF-8"?>
<svg id="Laag_2" data-name="Laag 2" xmlns="http://www.w3.org/2000/svg" viewBox="0 0 39.13 38.93">
  <defs>
    <style>
      .cls-1 {
        fill: #8d685c;
      }

      .cls-2 {
        fill: #493431;
      }

      .cls-3 {
        fill: #a6796f;
      }

      .cls-4 {
        fill: #cc8e6a;
      }

      .cls-5 {
        fill: #772a2a;
      }

      .cls-6 {
        fill: #8c665a;
      }

      .cls-7 {
        fill: #66524a;
      }

      .cls-8 {
        fill: #362c2b;
      }

      .cls-9 {
        fill: #e5b385;
      }

      .cls-10 {
        fill: #e2b184;
      }

      .cls-11 {
        fill: #f36a58;
      }

      .cls-12 {
        fill: #fac695;
      }

      .cls-13 {
        fill: #493605;
      }
    </style>
  </defs>
  <g id="Laag_1-2" data-name="Laag 1">
    <g>
      <path class="cls-9" d="M5.97,13.14c-.86.11-.43-.94-.75-1.17-.28-.2-1.26.09-1.62.24-.4.92.5,1.61.69,2.13.06.16-.08.57.01.82.97,2.39,2.63,1.61,4.31.38.16,0,.32,0,.48,0,.03.68-.05,1.36,0,2.04.18,2.25,1.1,9.78,2.4,11.28.66.76,2.38.72,3.49.8.18.01.32-.21.35-.21.32.03.65-.03.96,0,.02,0,.07.21.24.24,1.22.2,2.39.48,3.6.72-.23.94.51,2.14,1.2,1.68.08-.05.46-1.73.48-1.92.36.94,1.77.11,2.4-.24.69.27,2.2.22,2.88,0,.08.32-.15.5-.24.72-.82-.07-.98.69-1.4.94-.38.23-1.06.32-1.4.58-1.63,1.23-.94,4.49-1.28,6.4-.22.03-1.13.04-1.19-.01-.24-.22-.42-4-.71-4.2-.22-.16-.57-.11-.83-.12-.88.19.31,5.86-2.55,4.45-.74-.36-.53-3.39-.95-4.29-.15-.29-.49-.14-.73-.15-.02-.55-.31-.63-.72-.84-2.37-1.21-5.6-2.08-7.85-3.43-1.18-.71-1.46-2.13-2.71-2.21-.1,1.63.9,3.68,2.16,4.68.29.23.93.33.96.37.11.14-.97,2.22-.96,3.11-1.43,1.59-.44,2.92-3.36,2.4-.27-2.03-.2-4.35-.5-6.34-.57-3.76-2.19-6.75-1.89-10.82.11-1.46.67-2.76.48-4.33-.16-1.33-1.99-4.77-1.22-5.78.22-.29.59-.23.74-.33,2.79.11,5.7-2.09,5.04,2.4ZM19.4,34.26h-1.44c.05.82-.08,1.7,0,2.52.05.54.33,2.07.78,1.02.42-.98.39-2.48.66-3.54Z"/>
      <path class="cls-10" d="M21.81,2.34c.13.64,1.02.32,1.23.62.43.61.45,2.89.45,3.7,1.25-.31,2.71-.23,3.61-1.32.18-.22.16-.6.3-.78.11-.13.36-.03.41-.06-.52,1.09,2.51,1.3,2.64,1.2.03-.15-.04-.35,0-.48.54-.09.81.27,1.2.48l.48,1.68c-.75-.05-2.52.06-3.2.28-.61.2-.46,2.58-.4,3.2.23,2.3.88,2.19,2.88,2.28l-.48,2.4s-.48-.1-.74-.34c-.71-.66,0-.58-1.18-.86-.35-1.13-.11-.34-.48-.72-.14-.15.3-.2-.48-.48-.07-.02-.15-.19-.24-.24.07-1.83-1.41-2.31-2.98-2.14-.4.04-1,.11-.86.7-1.04.08-1.13.92-1.2.96-.08.05-.43,0-.69.14-1.58.91-5.99,3.14-7.06,4.17-.78.75-1.35,3.59-1.08,4.63.29,1.11,2.87,3.18,3.54,4.26-.05,0-.32.3-.96.24-.68-.07-1.5-.13-2.16-.24l-.12-.24-.12.24c-.15-.03-.35.04-.48,0-.15-.04-.85-.46-.97-.59-1.36-1.45-1.17-7.63-1.19-9.73s.02-4.16,0-6.24c.68-.39,5.46-3.55,5.64-3.84.45-.76.01-2.14-.36-2.88,1.34.21,3.56-.02,5.04,0ZM21.78,3.57c-.35-.51-2.3.12-2.71.44-1.63,1.28,3.91,1.3,2.71-.44ZM15.57,9.18c-.13,1.17.09,2.52,0,3.72l6.01-.59c.34-.23.52-4.39.19-4.89-.4-.61-4.86-.71-5.62-.06-.24.2-.54,1.48-.58,1.82Z"/>
      <path class="cls-12" d="M31.65,5.7c1.6.86,2.84,1.97,4.32,2.88-.53,2.86-.11,5.86-.23,8.77-.02.51-.22.96-.25,1.43-.08,1.27.07,5.76-.97,6.47-.88.6-4.53.51-5.75.61v-.24c.76-.19.85-.86.96-.96,1.16-1.06,2.17-2.17,2.92-3.68,1.29-2.58.22-2.99-1.49-4.85-.18-.19-.19-.55-.23-.6l.48-2.4c1.04.05,2.84.37,3.24-.72.65-1.73.12-2.94-.48-4.57l-2.04-.48-.48-1.68Z"/>
      <path class="cls-1" d="M16.77,2.34c.37.74.81,2.12.36,2.88-.18.29-4.96,3.45-5.64,3.84-2.48,1.42-2.86,1.51-2.64-1.8.07-.99,1.03-5.76,1.56-6.36.49-.56,1.86-.82,2.58-.68,1.31.26,2.76,1.95,3.78,2.11Z"/>
      <path class="cls-3" d="M35.97,8.58c-1.48-.91-2.72-2.02-4.32-2.88-.39-.21-.66-.57-1.2-.48.04-.13-.03-.33,0-.48.16-.87.21-1.66.72-2.4,1.67-.98,4.59-3.77,6.35-1.43.78,1.03,1.91,7.31,1.53,8.48-.36,1.09-2.45-.42-3.08-.8Z"/>
      <path class="cls-4" d="M11.49,15.3c.03,2.1-.16,8.28,1.19,9.73.12.13.82.55.97.59l1.68,3.84s-.17.22-.35.21c-1.11-.08-2.83-.04-3.49-.8-1.3-1.5-2.21-9.04-2.4-11.28-.05-.68.03-1.36,0-2.04.87.02,1.56-.18,2.4-.24Z"/>
      <path class="cls-4" d="M15.81,34.26c-2.1-.14-4.19-.22-6.24-.72,0,.7-.25,4.71-.63,4.81-.18.05-1.7.04-1.76-.03-.09-.09-.49-2.07-.49-2.39,0-.89,1.06-2.97.96-3.11-.03-.04-.67-.14-.96-.37-1.26-1-2.25-3.04-2.16-4.68,1.24.08,1.52,1.5,2.71,2.21,2.26,1.35,5.49,2.22,7.85,3.43.41.21.69.29.72.84Z"/>
      <path class="cls-12" d="M31.17,2.34c-.51.74-.56,1.53-.72,2.4-.36-.42-1.27-.74-1.81-.74-.7,0-.6.34-.83.5-.05.03-.3-.07-.41.06-.14.17-.12.56-.3.78-.9,1.09-2.36,1.01-3.61,1.32,0-.8-.03-3.09-.45-3.7-.21-.3-1.1.02-1.23-.62,3.12.04,6.24-.03,9.36,0Z"/>
      <path class="cls-12" d="M26.85,30.66c-.51,1.21-1.96,2.2-2.27,2.89-.65,1.45.11,4.81-1.81,5.03.35-1.91-.35-5.17,1.28-6.4.34-.26,1.02-.34,1.4-.58.42-.26.58-1.01,1.4-.94Z"/>
      <path class="cls-4" d="M28.77,25.62v.24c-.65.9-.53,3.71-1.68,4.08-.68.22-2.19.27-2.88,0,1.76-.97,1.87-2.27,2.4-4.08.6-.08,1.72-.13,2.16-.24Z"/>
      <path class="cls-12" d="M.93,10.74c.88-.58,4.51-2.22,5.28-1.81.49.26,1.4,2.07,1.41,2.66.02.69-1.02,1.47-1.65,1.55.66-4.49-2.25-2.29-5.04-2.4Z"/>
      <path class="cls-12" d="M8.61,15.54c-1.67,1.23-3.34,2.01-4.31-.38-.1-.25.04-.65-.01-.82,1.37.87,2.3.77,3.74.95.31.04.55.25.58.25Z"/>
      <path class="cls-2" d="M14.13,25.62c.08.01.16-.01.24,0,.66.11,1.48.17,2.16.24.29.34.82,1.7,1.02,1.86.14.11,3.12,1.02,3.43,1.03,2.01.07,2.72-.89,3.23-2.65.94-.05,1.51-.11,2.4-.24-.53,1.81-.64,3.11-2.4,4.08-.63.35-2.04,1.18-2.4.24.14-1.35-1.26-1.45-1.68.24-1.21-.24-2.38-.52-3.6-.72l-.24-.24c-.31-.03-.64.03-.96,0l-1.68-3.84c.13.04.33-.03.48,0Z"/>
      <path class="cls-12" d="M19.4,34.26c-.27,1.06-.24,2.56-.66,3.54-.45,1.05-.72-.48-.78-1.02-.08-.82.05-1.69,0-2.52h1.44Z"/>
      <path class="cls-11" d="M21.81,30.18c-.02.19-.4,1.86-.48,1.92-.69.46-1.43-.74-1.2-1.68.42-1.69,1.82-1.59,1.68-.24Z"/>
      <path class="cls-4" d="M16.53,29.7c-.17-.03-.22-.24-.24-.24l.24.24Z"/>
      <path class="cls-6" d="M22.77,12.42c.25.32,1.12,2.29,1.24,2.36.19.12,1.28.06,1.64.04.46-.03.93.11,1.34-.22.07-.05.8-1.38.82-1.46h.24c.78.28.34.33.48.48-.63.37.01.61.48.72.46,1.48,1.82,3.13,1.93,4.44.16,1.77-1.2,4.05-1.21,5.88-.11.1-.2.77-.96.96-.44.11-1.56.16-2.16.24-.89.13-1.46.19-2.4.24-2.55.12-4.5-.34-6.72-.48-.67-1.08-3.25-3.15-3.54-4.26-.27-1.04.3-3.88,1.08-4.63,1.07-1.03,5.48-3.26,7.06-4.17.25-.15.61-.09.69-.14ZM22.52,19.38c.48-.49-.84-1.56-1.2-.6-.34.89,1.13.66,1.2.6ZM25.88,19.38c-.57-.13-.52.42-.8.65-.13.11-.5.01-.59.11-.12.13-.05,1.17-.41,1.16-.09,0-.72-1-1.2.01-.56,1.17.89,2.37,2.11,2.11,1.82-.38,1.64-2.76.89-4.04Z"/>
      <path class="cls-1" d="M15.57,9.18c.04-.34.34-1.61.58-1.82.76-.65,5.22-.55,5.62.06.33.5.15,4.67-.19,4.89l-6.01.59c.09-1.2-.13-2.55,0-3.72ZM20.33,8.62c-3.3-.99-4.05.14-3.46,3.34.21.3,2.99.34,3.22.19.41-.26.28-2.92.24-3.53Z"/>
      <path class="cls-3" d="M32.13,7.38l2.04.48c.6,1.62,1.13,2.83.48,4.57-.41,1.08-2.2.77-3.24.72-2-.09-2.64.02-2.88-2.28-.06-.62-.21-2.99.4-3.2.68-.22,2.45-.33,3.2-.28ZM32.37,8.82c-.54-.85-2.17-.52-3.09-.21-.44,3.28-.51,4.51,3.3,3.54-.07-1,.31-2.51-.21-3.33Z"/>
      <path class="cls-3" d="M28.53,13.62c.37.38.13-.41.48.72,1.18.28.47.2,1.18.86.26.24.7.3.74.34.05.05.05.4.23.6,1.71,1.85,2.79,2.26,1.49,4.85-.75,1.5-1.76,2.62-2.92,3.68.01-1.83,1.37-4.11,1.21-5.88-.12-1.31-1.47-2.96-1.93-4.44-.47-.11-1.11-.35-.48-.72Z"/>
      <path class="cls-4" d="M24.21,26.1c-.52,1.76-1.23,2.72-3.23,2.65-.31-.01-3.29-.92-3.43-1.03-.2-.16-.73-1.52-1.02-1.86.64.06.91-.24.96-.24,2.22.14,4.17.6,6.72.48Z"/>
      <path class="cls-2" d="M27.81,12.9c0,.08.02.17,0,.24-.02.08-.75,1.41-.82,1.46-.41.33-.88.19-1.34.22-.06-1.55.56-3.54-1.68-3.36-.14-.59.46-.65.86-.7,1.57-.17,3.05.31,2.98,2.14Z"/>
      <path class="cls-8" d="M23.97,11.46c2.24-.18,1.62,1.81,1.68,3.36-.36.02-1.45.08-1.64-.04-.11-.07-.99-2.04-1.24-2.36.07-.04.16-.88,1.2-.96Z"/>
      <path class="cls-7" d="M21.78,3.57c1.19,1.74-4.34,1.72-2.71.44.41-.32,2.36-.95,2.71-.44Z"/>
      <path class="cls-7" d="M30.45,4.74c-.03.15.04.35,0,.48s.03.33,0,.48c-.13.1-3.16-.11-2.64-1.2.22-.16.13-.5.83-.5.54,0,1.45.32,1.81.74Z"/>
      <path class="cls-4" d="M14.37,25.62c-.08-.01-.16.01-.24,0l.12-.24.12.24Z"/>
      <path class="cls-3" d="M28.05,13.14h-.24c.02-.07,0-.16,0-.24.09.05.17.22.24.24Z"/>
      <path class="cls-5" d="M25.88,19.38c.74,1.27.93,3.66-.89,4.04-1.22.25-2.66-.94-2.11-2.11.48-1.01,1.11-.01,1.2-.01.37.02.29-1.03.41-1.16.09-.09.46,0,.59-.11.28-.23.23-.78.8-.65Z"/>
      <path class="cls-7" d="M22.52,19.38c-.06.06-1.53.3-1.2-.6.36-.96,1.68.11,1.2.6Z"/>
      <path class="cls-2" d="M20.33,8.62c.04.62.17,3.28-.24,3.53-.23.15-3.01.11-3.22-.19-.59-3.2.16-4.34,3.46-3.34ZM19.88,8.84s-.89-.32-.95-.25v1.68c.75.53,1.1-1.22.95-1.43Z"/>
      <path class="cls-2" d="M32.37,8.82c-.06-.06-.53-.01-.73.12-.38.25-.1,2.06.72,1.57-.05-.33.08-1.61,0-1.68.52.82.15,2.34.21,3.33-3.81.97-3.74-.26-3.3-3.54.91-.31,2.54-.65,3.09.21Z"/>
      <path class="cls-13" d="M19.88,8.84c.15.2-.2,1.96-.95,1.43v-1.68c.06-.07.92.21.95.25Z"/>
      <path class="cls-13" d="M32.37,8.82c.08.08-.05,1.35,0,1.68-.82.5-1.11-1.31-.72-1.57.2-.13.66-.18.73-.12Z"/>
    </g>
  </g>
</svg>