<?xml version="1.0" encoding="UTF-8"?>
<svg id="Laag_2" data-name="Laag 2" xmlns="http://www.w3.org/2000/svg" viewBox="0 0 41 37.97">
  <defs>
    <style>
      .cls-1 {
        fill: #8d685c;
      }

      .cls-2 {
        fill: #493431;
      }

      .cls-3 {
        fill: #a6796f;
      }

      .cls-4 {
        fill: #cc8e6a;
      }

      .cls-5 {
        fill: #8c665a;
      }

      .cls-6 {
        fill: #66524a;
      }

      .cls-7 {
        fill: #362c2b;
      }

      .cls-8 {
        fill: #e5b385;
      }

      .cls-9 {
        fill: #e2b184;
      }

      .cls-10 {
        fill: #f36a58;
      }

      .cls-11 {
        fill: #fac695;
      }
    </style>
  </defs>
  <g id="Laag_1-2" data-name="Laag 1">
    <g>
      <path class="cls-8" d="M12.48,15.77c-.38,2.43.46,5.32.24,7.8.1,1.16.74,6.36,1.26,7.02.67.85,8.11,1.37,9.63,1.53.6.06,1.39.4,1.83.45-.15.43-.79.49-.92.88-.09.27-.12,3.23-.04,3.53.05.19.32.17.48.16l-.72.48c-.36-.37-.48-3.29-.72-4.08-.69-.2-1.44.4-1.92.48-.39.07-1.83-.09-1.92,0l.24,3.6c-.23-.05-.57.16-.73-.15-.25-.49-.33-2.49-.52-2.69-.14-.15-.59.02-.67-.03-.03-.02.04-.48-.4-.67-.24-.1-4.94-.99-5.22-.99-1.16.04-2.54.95-3.74.94-.07.58,0,.38.33.51.67.24,1.58.07,2.07.69-.03,0-.17.22-.37.23-.35.03-1.15-.48-1.3.14-.13.51.71,1.36.48,2.03-1.81-.1-3.73.13-5.52,0h-.24c-.7-.16-4.08-2.22-4.08-2.76v-4.68c0-.19,3.9-.72,3.25.49-.39.73-1.77.42-1.57,1.78.14,1,1.39.86,2.16,1.09.24-.28-.15-6.18.02-7.3.14-.93.69-1.11.94-1.58,3.08-1.84,6.14-5.06,6.96-8.64.23-.12.46-.21.72-.24Z"/>
      <path class="cls-9" d="M22.32,1.61l3.2,2.46c.81,1.39-.59,6.66,1.91,5.91,1.99-.6-.69-5.7,1.84-6.1s1.48,3.36,2.41,4.7c-.16-.02-.32.02-.48,0-.59-.07-1.77-.58-2.41-.13-.74.51-.09,1.34.73,1.33-.08,1.32.02,2.58.51,3.81,1.26.03,2.55.08,3.81.03.19,1.06.89,1.98.72,3.12-1.44-.79-3.47-1.62-5.04-2.16-.28-1.69-1.72-1.58-3.12-1.44-1.07.11-1.04.66-1.68,1.44-1.16.79-7.93,3.9-8.35,4.61-.26.45-.02,3.45.32,4.02l2.27,1.93c-.57-.1-1.35.1-1.92,0-.31-.05-1.7-.47-1.91-.61-.79-.52-1.12-3.77-1.21-4.79-.13-1.48-.24-3.68-.24-5.16,0-1.8.64-3.76,0-5.52.7-.38,5.72-3.74,5.88-4.08.2-.4.18-1.1.1-1.55-.16-.92-1.06-.93-.95-1.81,1.13.1,2.44-.02,3.6,0ZM22.8,8.57v.24c-.19-.05-3.46.19-3.96.24-.38.04-1.79.24-1.94.46-.4.56.31,3.91.4,4.79.25.22,5.78-.24,6.22-.57.58-.44.47-3.36.72-4.2.4.03.8-.02,1.2,0,.4-1.43-1.43-1.4-2.4-1.2l-.24.24Z"/>
      <path class="cls-5" d="M24.72,14.57c.56,1.52,1.39,2.45,3.12,2.16.48-.08,1.55-1.1,1.68-1.44.76-.14.81.51,1.46.82.28.13.78.09.89.18.14.12.1.71.27.99.28.46,1.69,1.14,2.12,2.03.24.48.14,3.55.06,4.27-.05.53-.39.82-.49,1.31-.94.05-1.92.18-2.88.24-.62.04-1.19.21-1.68.24-.87.05-1.77-.05-2.64,0-2.14.11-4.37.64-6.48.24-.38-.07-.95-.44-1.2-.48l-2.27-1.93c-.34-.57-.59-3.57-.32-4.02.42-.71,7.19-3.82,8.35-4.61ZM22.92,18.89c-.59.13-.42,1.34.23,1.2.59-.13.42-1.34-.23-1.2ZM26.4,19.13c-.53.78,1.19,1.43,1.44.59.31-1.04-1.25-.86-1.44-.59ZM32.15,20.07c.33-.47-.57-1.43-1.19-1.19-.08.07.35.58.24.71-.51.69-4.49.58-2.04,2.64.47-.27.66-.91,1.02-1.2.34-.27,1.91-.88,1.97-.97Z"/>
      <path class="cls-11" d="M22.32,1.61c3.39.05,6.82-.13,10.21,0,.46.02.96-.25.83.48-.74.79-1.04,1.81-.59,2.88.16.39,4.67,3.42,5.39,3.84-.07,2.27.1,4.57,0,6.85s-.26,5.94-.75,8.13c-.3,1.37-1.44,1.2-2.76,1.3-.18.01-.32-.21-.35-.21,1.05-2.42,3.14-4.38,1.79-7.19-.53-.22-1.13-.74-1.55-.97.17-1.14-.53-2.06-.72-3.12.58-.02,1.97.13,2.34-.3.49-.56.37-3.53.08-4.36-.24-.34-3.35-.06-4.01-.13-.32-.03-.54-.25-.58-.25-.93-1.33.12-5.1-2.41-4.7s.15,5.5-1.84,6.1c-2.5.75-1.1-4.52-1.91-5.91l-3.2-2.46Z"/>
      <path class="cls-4" d="M13.68,14.57c0,1.48.11,3.68.24,5.16.09,1.03.42,4.28,1.21,4.79.21.14,1.6.55,1.91.61.09.96.75,2.38,1.61,2.83.37.19,3.73,1.06,4.03,1.02.91-.11.52-1.26,1.18-1.2,1.13.1.9.55.86,1.2-1.43-1.53-2.2,2.02-.16.97.34-.18.1-.48.16-.73,2.36-.15,4.28-1.35,4.56-3.84.49-.03,1.06-.2,1.68-.24-.25,1.12-.07,2.59-.62,3.58-.24.42-2.26,2.4-2.73,2.79-.17.14-1.36,1.05-1.45,1.07-.12.04-.55.02-.72,0-.44-.05-1.24-.39-1.83-.45-1.51-.16-8.96-.68-9.63-1.53-.52-.66-1.16-5.86-1.26-7.02.22-2.48-.62-5.37-.24-7.8.1-.64.54-1.12,1.2-1.2Z"/>
      <path class="cls-1" d="M18.72,1.61c-.12.89.79.9.95,1.81.08.45.09,1.14-.1,1.55-.16.34-5.18,3.7-5.88,4.08-2.7,1.46-2.62.46-2.37-2.25.08-.82,1.06-5.51,1.4-5.98C12.96.45,14.51-.03,14.97,0c1.33.08,2.3,1.47,3.75,1.6Z"/>
      <path class="cls-3" d="M33.36,2.09c.26-.28,2.31-1.54,2.72-1.72.97-.43,2.55-.48,3.3.39s2.32,8.75,1.29,9.03c-.87.07-1.74-.53-2.5-.98s-5.23-3.46-5.39-3.84c-.45-1.07-.14-2.08.59-2.88Z"/>
      <path class="cls-4" d="M18,34.73c-.13.4-.87.4-.95.49-.07.08.04.43,0,.47-.61.44-1.86-1.11-1.44,1.92-1.11-.05-2.25.03-3.36,0h-.24c.02-.16-.02-.33,0-.48.65.24.84-1.14.74-1.54-.04-.16-1.02-.38-1.22-.38-.16,0-.32,0-.48,0-.49-.62-1.4-.45-2.07-.69-.34-.12-.4.07-.33-.51,1.21,0,2.58-.9,3.74-.94.28,0,4.98.88,5.22.99.44.19.36.65.4.67Z"/>
      <path class="cls-3" d="M34.56,16.73c.42.23,1.02.75,1.55.97,1.35,2.81-.74,4.77-1.79,7.19-.16.01-.32,0-.48,0,.1-.49.44-.78.49-1.31.07-.72.17-3.79-.06-4.27-.43-.89-1.84-1.57-2.12-2.03-.17-.28-.13-.87-.27-.99-.11-.1-.62-.05-.89-.18-.65-.31-.7-.96-1.46-.82.03-.09.02-.58,0-.72,1.57.54,3.6,1.37,5.04,2.16Z"/>
      <path class="cls-11" d="M11.76,16.01c-.82,3.58-3.88,6.8-6.96,8.64,1.17-2.13,4.84-7.55,6.96-8.64Z"/>
      <path class="cls-11" d="M26.16,32.57v.48c-.38.16-.38,1.04,0,1.2-.08.9-.37,4.94-1.92,3.36l.72-.48c-.16.01-.43.03-.48-.16-.08-.3-.05-3.25.04-3.53.13-.39.78-.45.92-.88.17.02.6.04.72,0Z"/>
      <path class="cls-11" d="M11.04,35.21c.16,0,.32,0,.48,0-.22.76.6.37.71.49.16.17-.18,1.13-.23,1.43-.02.15.02.32,0,.48v.24c-.9.13-1.59-.21-2.16-.24.23-.67-.61-1.52-.48-2.03.15-.61.96-.11,1.3-.14.21-.02.35-.23.37-.23Z"/>
      <path class="cls-11" d="M21.6,34.01c-.12.95,0,3.7-1.15,3.8-.38.03-.45-.18-.53-.2l-.24-3.6c.09-.09,1.53.07,1.92,0Z"/>
      <path class="cls-8" d="M17.04,35.69c.35.35.37,1.59.13,1.93-.45.63-1.35,0-1.57-.01-.42-3.03.83-1.48,1.44-1.92Z"/>
      <path class="cls-8" d="M26.16,34.25c-.38-.16-.38-1.04,0-1.2,0,.39.03.81,0,1.2Z"/>
      <path class="cls-1" d="M22.8,8.81c.21.05.3.63,1.44.72-.24.84-.14,3.76-.72,4.2-.43.33-5.96.79-6.22.57-.09-.88-.8-4.23-.4-4.79.15-.21,1.56-.42,1.94-.46.5-.05,3.76-.29,3.96-.24ZM18.24,12.17h3.48s.42-.36.36-.47c-.64.14-.37-.68-.62-.74-.82-.21-3.86-.28-3.22,1.22Z"/>
      <path class="cls-3" d="M31.68,8.57s.26.22.58.25c.66.07,3.77-.21,4.01.13.28.83.4,3.8-.08,4.36-.37.43-1.76.28-2.34.3-1.26.05-2.55,0-3.81-.03-.49-1.23-.59-2.49-.51-3.81.59,0,2.05-.43,1.68-1.2.16.02.32-.02.48,0ZM34.08,12.17c.88-1.96-2.19-.98-3.36-1.2v1.2h3.36Z"/>
      <path class="cls-2" d="M18.96,25.13c.25.04.82.41,1.2.48.02.49.22.7.66.9,1.72.77,5.94,1.85,5.82-1.14.87-.05,1.77.05,2.64,0-.28,2.49-2.2,3.69-4.56,3.84.02-.07,0-.16,0-.24.04-.64.27-1.1-.86-1.2-.67-.06-.28,1.1-1.18,1.2-.29.03-3.66-.83-4.03-1.02-.86-.44-1.52-1.87-1.61-2.83.57.1,1.35-.1,1.92,0Z"/>
      <path class="cls-7" d="M26.4,13.13c.04.6,1.33,1.76,1.4,2.09.1.43-.42,1.03.04,1.51-1.73.29-2.56-.64-3.12-2.16.64-.78.61-1.33,1.68-1.44Z"/>
      <path class="cls-2" d="M26.4,13.13c1.4-.14,2.84-.25,3.12,1.44.02.14.03.63,0,.72-.13.34-1.2,1.36-1.68,1.44-.46-.49.06-1.09-.04-1.51-.08-.33-1.36-1.48-1.4-2.09Z"/>
      <path class="cls-6" d="M31.2,8.57c.37.77-1.09,1.2-1.68,1.2-.82,0-1.47-.82-.73-1.33.64-.45,1.82.06,2.41.13Z"/>
      <path class="cls-6" d="M23.04,8.33c.98-.2,2.8-.23,2.4,1.2-.4-.01-.81.03-1.2,0-1.14-.09-1.23-.67-1.44-.72v-.24c.1-.04.19-.23.24-.24Z"/>
      <path class="cls-1" d="M22.8,8.57l.24-.24s-.14.2-.24.24Z"/>
      <path class="cls-4" d="M26.64,25.37c.12,2.99-4.1,1.91-5.82,1.14-.44-.19-.64-.41-.66-.9,2.11.4,4.34-.13,6.48-.24Z"/>
      <path class="cls-7" d="M32.15,20.07c-.06.09-1.63.7-1.97.97-.36.29-.55.93-1.02,1.2-2.45-2.06,1.53-1.95,2.04-2.64.1-.14-.33-.64-.24-.71.62-.24,1.52.72,1.19,1.19Z"/>
      <path class="cls-6" d="M26.4,19.13c.18-.27,1.75-.45,1.44.59-.25.83-1.97.19-1.44-.59Z"/>
      <path class="cls-6" d="M22.92,18.89c.65-.15.82,1.06.23,1.2-.65.15-.82-1.06-.23-1.2Z"/>
      <path class="cls-10" d="M24.72,28.97c0,.08.02.17,0,.24-.06.25.18.55-.16.73-2.04,1.06-1.27-2.5.16-.97Z"/>
      <path class="cls-8" d="M11.52,35.21c.2,0,1.18.23,1.22.38.11.4-.08,1.77-.74,1.54.05-.31.4-1.27.23-1.43-.11-.11-.93.27-.71-.49Z"/>
      <path class="cls-2" d="M18.24,12.17c-.64-1.5,2.4-1.43,3.22-1.22.25.06-.02.88.62.74.06.11-.32.47-.36.47h-3.48Z"/>
      <path class="cls-2" d="M34.08,12.17h-3.36v-1.2c1.17.23,4.24-.76,3.36,1.2Z"/>
    </g>
  </g>
</svg>