<?xml version="1.0" encoding="UTF-8"?>
<svg id="Laag_2" data-name="Laag 2" xmlns="http://www.w3.org/2000/svg" viewBox="0 0 33.58 39.93">
  <defs>
    <style>
      .cls-1 {
        fill: #8d685c;
      }

      .cls-2 {
        fill: #493431;
      }

      .cls-3 {
        fill: #a6796f;
      }

      .cls-4 {
        fill: #cc8e6a;
      }

      .cls-5 {
        fill: #772a2a;
      }

      .cls-6 {
        fill: #8c665a;
      }

      .cls-7 {
        fill: #66524a;
      }

      .cls-8 {
        fill: #362c2b;
      }

      .cls-9 {
        fill: #e5b385;
      }

      .cls-10 {
        fill: #913736;
      }

      .cls-11 {
        fill: #e2b184;
      }

      .cls-12 {
        fill: #f36a58;
      }

      .cls-13 {
        fill: #fac695;
      }

      .cls-14 {
        fill: #493605;
      }
    </style>
  </defs>
  <g id="Laag_1-2" data-name="Laag 1">
    <g>
      <path class="cls-11" d="M15.6,2.19c-.11.06-.97,1.12-.97,1.32,0,1.45,3.21-.29,2.65-1.56.16-.01.32,0,.48,0-.23.42,1.1,1.76,1.2,1.82.16.08,1.65-.28,1.92-.38-.17.98,2.08,2.38,2.64,1.2.07.06.57.05.81.27.35.3,1.04,1,1.11,1.41-.54-.03-3.89.26-4.05.51-.25,1.26.18,2.48.22,3.69.02.45.2.98-.49.84-.82-.16-1.65.03-2.4.24-1.56.43-1.21,1.06-1.44,1.2-.06.04-.66,0-.96.11-1.73.62-4.39,1.21-5.89,2.04-.83.46-2.99,2.94-3.2,3.79-.17.68,2.99,4.8,3.58,5.68.24.36.57.56.46,1.1-.06-.01-.58.11-1.2,0-.8-.14-2.36-.12-2.99-.73-.32-.31-1.03-2.63-1.09-3.11-.13-1.11-.24-3.59-.24-4.68v-5.52c0-.45.49-1.57.24-2.28.07-.04.23-.42.49-.58.77-.47,4.94-3.07,5.17-3.5.3-.59-.46-2.51-.85-3.12,1.5.21,3.36-.35,4.8.24ZM14.82,4.89c-.77.09-3.77.84-3.98,1.55-.49,1.65.59,4.6.19,6.43.02.28.11.48.4.58.79.26,4.98-.83,5.39-1.75.43-.99.02-5.09-.38-6.15-.34-.91-.78-.76-1.62-.66Z"/>
      <path class="cls-9" d="M11.76,29.55c.87.84,3.59.93,4.8,1.44-.02.07,0,.16,0,.24-.56.52-2-.32-2.37.04-.06.06.01.44-.11.58-.45.53-2.16,1.65-2.26,2.16.49,1.36,0,5.33,2.1,5.13-.18.22.15.75-.81.71-.72-.03-1.47-.21-1.59-.95-.12-.69.05-3.1-.82-3.11-.43,0-3.2.54-3.26.83-.05.24.36.97.64,1.05.92.26,1.93-1.29,2,1.23-.88,0-5.12.18-5.41-.24-.1-.15-.09-.59-.21-.89-.04-.11-.39-.23-.38-.32,0-.03.29-.23.25-.58-.34-2.93-2.87-.65-3.33-2.23-.2-.68.64-1.64-.28-1.51.25-.63.6-1.12.96-1.68.3.66,1.19.16,1.2,1.2-.26.03-.35-.07-.48.24-.02.05,0,.15,0,.24l-.24.13.24.35c.21.52,1.43.96,1.68.72.32-.31.83-7.6.98-8.74.03-.2.21-.33.22-.38.4.91.56,3.1,1.45,3.71s3.84.44,5.03.61Z"/>
      <path class="cls-9" d="M3.6,32.67c-.25.25.49.6-.72.24v-.24c.23-.03.48.02.72,0Z"/>
      <path class="cls-13" d="M25.92,1.95c-.67.62-1.09,2.34-.67,3.07s4.53,2.63,5.23,3.65c-.4.25-.24.91-.24,1.32-.04,3.4.09,6.96-.24,10.32-.07.76-.56,4.62-1,4.88-.8-.12-1.68.25-2.36.28-.92.05-1.49-.18-2.16-.24.93-1.28,3.25-4.93,3.3-6.4,0-.27-1.19-2.77-1.41-3.05-.16-.21-1.13-.93-1.41-1.11l.24-1.68c.43.07.99-.05,1.44,0-.06-1.26.86-6.02-.3-6.56-.27-.12-.61-.14-.9-.16-.07-.41-.76-1.11-1.11-1.41-.25-.21-.74-.2-.81-.27-.02-.02.01-.3-.18-.46-.58-.46-1.25-1.42-2.06-1.19-.27.08-.37.44-.4.45-.27.1-1.76.46-1.92.38-.1-.05-1.43-1.4-1.2-1.82,2.71-.1,5.45.08,8.16,0Z"/>
      <path class="cls-1" d="M10.8,1.95c.39.61,1.16,2.53.85,3.12-.22.43-4.4,3.03-5.17,3.5-.26.16-.42.54-.49.58-3.27,1.96-2.94-.44-2.57-2.93.11-.76.99-4.84,1.27-5.21.52-.7,2.04-.84,2.85-.72,1.21.19,2.1,1.5,3.25,1.66Z"/>
      <path class="cls-3" d="M25.92,1.95c1.26-1.16,4.76-3.01,6.11-1.19.53.72,1.62,6.7,1.55,7.76-.16,2.27-1.84.6-3.1.15-.69-1.02-4.81-2.93-5.23-3.65s0-2.45.67-3.07Z"/>
      <path class="cls-13" d="M16.56,31.23c-.03.49.06,1.14.6,1.22,1.15.16,1.2-.13,1.32-1.22.39.04.82-.05,1.2,0,1.12.16,2.38.61,3.6.48.16.84-.7,1.46-.9,2.1-.21.69-.02,1.51-.06,1.98-.07.82-.4,1.88-.24,2.64-.29-.05-1.36.08-1.44,0-.17-.17-.2-4.21-.24-4.8-2.11-.16-4.13.61-6.21.75-.31.25-.45,3.9-.03,4.53-.02,0-.2.2-.24.24-2.1.2-1.61-3.77-2.1-5.13.1-.51,1.81-1.64,2.26-2.16.13-.15.05-.53.11-.58.38-.36,1.82.48,2.37-.04Z"/>
      <path class="cls-11" d="M14.16,38.91c-.43-.63-.28-4.28.03-4.53,2.09-.14,4.1-.91,6.21-.75.04.59.07,4.63.24,4.8.08.08,1.15-.05,1.44,0,0,.03.22.47.24.48-.63.3-.25.89-.82.98-2.01.29-1.88-.9-2.23-.98-.32-.08-4.82-.08-5.11,0Z"/>
      <path class="cls-13" d="M26.88,27.87c.32,1.71.83,3.4.96,5.16.06.91.17,4.87-.03,5.48s-3.27.42-4.05.39c-.15-.75.66-.99.72-1.68.23,0,.5-.03.72,0,.09.01.52.55.72.12.14-.51-.66-.51-.72-.6-.04-.05,0-.45-.14-.69-.87-1.43-1.27-1.91-1.08-3.76.07-.69.84-1.96,1.21-2.74.08-.16-.04-.21.24-.48.07-.07.58-.18.87-.58.2-.27-.08-.79.57-.62Z"/>
      <path class="cls-4" d="M10.08,25.47c.36,1.06.94,3.36,1.68,4.08-1.19-.17-4.15,0-5.03-.61s-1.05-2.8-1.45-3.71c.15-1.14-.11-2.56.72-3.6.06.48.77,2.81,1.09,3.11.63.6,2.19.58,2.99.73Z"/>
      <path class="cls-4" d="M26.64,25.47c.04.38-.06.83,0,1.2-.14,0-.4-.06-.46.02-.08.11-.54,2.02-.74,2.38-.28.27-.16.32-.24.48-.96.36-2.17.28-3.12.48l1.44-4.32c.34-.06.63-.45.72-.48.06-.02.17,0,.24,0,.67.06,1.24.29,2.16.24Z"/>
      <path class="cls-4" d="M.72,33.15c.92-.14.08.83.28,1.51.46,1.58,2.99-.69,3.33,2.23.04.35-.25.55-.25.58-.68-.06-3.72-1.03-3.97-1.44-.38-.62.33-2.19.61-2.88Z"/>
      <path class="cls-4" d="M11.52,38.91h-1.44c-.07-2.52-1.08-.97-2-1.23-.28-.08-.69-.81-.64-1.05.06-.3,2.83-.84,3.26-.83.86.01.7,2.42.82,3.11Z"/>
      <path class="cls-4" d="M25.2,36.75s-.03.35,0,.48c-.22-.03-.49,0-.72,0-1.57-.05-1.82-.05-1.68,1.68-.15-.02-.41.04-.48,0-.02-.01-.23-.45-.24-.48-.16-.76.17-1.82.24-2.64.4.18,2.77.86,2.88.96Z"/>
      <path class="cls-7" d="M17.28,1.95c.56,1.26-2.66,3-2.65,1.56,0-.19.86-1.26.97-1.32.4-.23,1.2-.21,1.68-.24Z"/>
      <path class="cls-13" d="M2.88,32.67v.24c-.13-.04-.33.03-.48,0,.13-.31.22-.21.48-.24Z"/>
      <path class="cls-13" d="M1.68,31.47c.09-.14-.03-.57.38-.7.51-.16,1.81.69,1.98,1.1.4.94-.4.76-.44.8-.24.02-.49-.03-.72,0-.01-1.04-.9-.54-1.2-1.2Z"/>
      <path class="cls-11" d="M24.48,37.23c-.06.69-.87.93-.72,1.68-.31,0-.66.04-.96,0-.14-1.73.11-1.73,1.68-1.68Z"/>
      <path class="cls-9" d="M26.64,26.67c.05.31.17.81.24,1.2-.65-.17-.38.35-.57.62-.29.4-.8.51-.87.58.2-.36.66-2.27.74-2.38.06-.08.32-.01.46-.02Z"/>
      <path class="cls-13" d="M2.4,33.63l-.24-.35.24-.13c-.01.12-.03.41,0,.48Z"/>
      <path class="cls-6" d="M17.28,12.75c.31.81.66,1.3,1.2,1.92.04.05-.14.42.15.49.81.2,2.82.18,3.21-.73.99-.07.81.99.96,1.2-.17-.36-1.59-.38-1.44.36.13.67,1.78.38,1.44-.36.03.04.54.13.85.46.38.4.62,1.23,1.05.95.08-.05-.16-.68.5-.45l-.96,8.64c-.09.03-.38.42-.72.48-.79.15-1.6.21-2.4.24-.85.03-1.87.13-2.64-.24,0-.11-.22-1.14-.24-1.2.05-.09.21-.17.24-.24.41-.01,2.75-.63,2.85-.75.37-.42-1.07-4.44-1.4-4.67-.58-.41-.97.56-1.14.62-.19.07-.46-.04-.55,0-.43.19-.68.46-.72.48-.05.02-.16,0-.24,0-.27,0-.62-.32-.95-.13-.7,1.08-3.67,2.42-4.21,3.24-.35.52.23.53.37.72.04.06-.09.34.15.5.28.19.99.09,1.07.37.15.52-.12,1.46-.25,2.01-.24-.57-1.57-1.1-2.16-1.2.1-.54-.22-.74-.46-1.1-.6-.88-3.75-5-3.58-5.68.21-.85,2.36-3.32,3.2-3.79,1.5-.84,4.16-1.42,5.89-2.04.3-.11.9-.07.96-.11ZM17.28,14.19c-.08-.07-1.14.04-1.44,0v.96c.62.33,1.98-.43,1.44-.96ZM13.44,16.35c-.31-2.56-2.01-.08-1.32,0h1.32ZM16.32,17.07c-.59-.06-1.26-.02-1.2.72h1.2s0-.72,0-.72ZM24,18.75c.21-1.7-1.79-.62-1.2,0,.07.07.94-.04,1.2,0Z"/>
      <path class="cls-1" d="M14.82,4.89c.84-.1,1.28-.26,1.62.66.4,1.06.81,5.16.38,6.15-.4.93-4.6,2.01-5.39,1.75-.28-.09-.38-.3-.4-.58.39-1.84-.69-4.79-.19-6.43.21-.71,3.21-1.45,3.98-1.55ZM12.96,6.75c-.07.03-.21,0-.24.12.42,1.61.19,3.28.24,4.92,1.51-.12,2.33.52,2.4-1.2.04-1.1.17-2.64-.24-3.6,0-.08,0-.16,0-.24-.02-.15.02-.32,0-.48-.16,0-.32-.01-.48,0-.26.02-.69.15-.96.24-.13-.52-.62-.14-.72.24Z"/>
      <path class="cls-2" d="M11.28,25.47c.59.1,1.92.63,2.16,1.2.31.72-.06,1.77,1.02,2.22.57.24,3.11.49,3.78.42,2.01-.21,2.39-1.65,2.88-3.36.8-.03,1.61-.09,2.4-.24l-1.44,4.32c-.86.18-1.84.41-2.4,1.2-.38-.05-.81.04-1.2,0,0-.08,0-.16,0-.24,0-.15.03-.36,0-.48-.33-1.51-1.68-.44-1.92.48-1.21-.51-3.93-.6-4.8-1.44-.74-.72-1.32-3.02-1.68-4.08.62.11,1.14-.01,1.2,0Z"/>
      <path class="cls-3" d="M25.44,6.27c.29.02.63.03.9.16,1.16.54.25,5.3.3,6.56-.46-.05-1.01.07-1.44,0-.73-.12-2.42-.91-3.36-1.2-.21-.06-.56-.45-.72-.48.69.14.51-.39.49-.84-.04-1.21-.47-2.43-.22-3.69.15-.25,3.51-.55,4.05-.51ZM24.48,7.71c0-.07.33-.42.24-.48-.24-.1-1.92.14-1.92.24v3.72c0,.74,1.97.59,2.29.13.2-.29.26-2.27-.13-2.65-.03-.2-.46-.81-.48-.96Z"/>
      <path class="cls-2" d="M21.12,11.31c.16.03.51.42.72.48.14.47.27.94.24,1.44,0,.15-.2,1.1-.24,1.2-.39.9-2.4.93-3.21.73-.29-.07-.11-.44-.15-.49h1.09c-.02-.22.21-2.1.12-2.16-.26-.17-.96.28-.96-.96.75-.21,1.58-.4,2.4-.24Z"/>
      <path class="cls-8" d="M18.72,11.55c0,1.24.71.8.96.96.09.06-.13,1.94-.12,2.17h-1.09c-.54-.63-.89-1.12-1.2-1.93.23-.14-.12-.77,1.44-1.2Z"/>
      <path class="cls-7" d="M20.88,3.39s.13-.37.4-.45c.81-.24,1.48.73,2.06,1.19.2.16.16.44.18.46-.56,1.18-2.81-.22-2.64-1.2Z"/>
      <path class="cls-12" d="M18.48,30.51l-.24.36.24.12c0,.08,0,.16,0,.24-.13,1.08-.17,1.38-1.32,1.22-.53-.08-.63-.72-.6-1.22,0-.08-.02-.17,0-.24.24-.92,1.59-1.99,1.92-.48Z"/>
      <path class="cls-3" d="M24.96,14.67c.28.18,1.24.91,1.41,1.11.22.27,1.42,2.78,1.41,3.05-.05,1.47-2.37,5.12-3.3,6.4-.07,0-.18-.02-.24,0l.96-8.64c-.66-.23-.41.4-.5.45-.43.28-.67-.55-1.05-.95-.31-.33-.82-.42-.85-.46-.15-.21.03-1.27-.96-1.2.04-.1.23-1.05.24-1.2.81.42,2.17.98,2.88,1.44Z"/>
      <path class="cls-11" d="M25.2,12.99l-.24,1.68c-.71-.46-2.07-1.02-2.88-1.44.03-.5-.1-.97-.24-1.44.94.29,2.63,1.08,3.36,1.2Z"/>
      <path class="cls-11" d="M25.2,29.55c-.38.78-1.14,2.05-1.21,2.74-.19,1.85.21,2.33,1.08,3.76.14.24.1.64.14.69.07.09.87.09.72.6-.2.43-.64-.11-.72-.12-.03-.13.04-.44,0-.48-.11-.1-2.48-.78-2.88-.96.04-.47-.15-1.29.06-1.98.2-.64,1.06-1.26.9-2.1-1.22.13-2.47-.32-3.6-.48.56-.79,1.54-1.02,2.4-1.2.95-.2,2.16-.12,3.12-.48Z"/>
      <path class="cls-12" d="M18.24,24.51c.02.06.23,1.09.24,1.2.04.4.12.79-.24.96-.08.04-.37-.08-.45.02-.06.09-.33,2.05-.26,2.14.06.07.4-.04.47,0,.22.15.29.17.24.48-.67.07-3.21-.18-3.78-.42-1.08-.45-.71-1.5-1.02-2.22.14-.55.4-1.49.25-2.01-.08-.28-.78-.18-1.07-.37-.24-.16-.11-.44-.15-.5.74-.18,2.06-.77,2.75-.71.38.03.67.32,1.03.42.73.2,1.53,0,1.98,1.02Z"/>
      <path class="cls-5" d="M18.24,19.47c-.28,1.49.57.82.91,1.04.06.04.97.96.99,1.03.05.18-1.39,2.02-1.66,2.73-.03.07-.19.15-.24.24-.45-1.02-1.25-.82-1.98-1.02-.36-.1-.65-.39-1.03-.42-.69-.05-2.01.54-2.75.71-.14-.2-.71-.2-.37-.72.55-.82,3.52-2.16,4.21-3.24.33-.2.69.13.95.13-.11,1,.35,1,.24,0,.04-.02.29-.29.72-.48Z"/>
      <path class="cls-10" d="M18.24,19.47c.09-.04.36.06.55,0,.17-.06.56-1.03,1.14-.62.33.24,1.77,4.25,1.4,4.67-.1.12-2.44.73-2.85.75.27-.71,1.71-2.55,1.66-2.73-.02-.07-.93-.99-.99-1.03-.33-.22-1.19.45-.91-1.04Z"/>
      <path class="cls-4" d="M21.12,25.95c-.49,1.71-.87,3.15-2.88,3.36.05-.31-.02-.33-.24-.48.3-.69.73-1.45.24-2.16.36-.17.28-.56.24-.96.77.37,1.79.27,2.64.24Z"/>
      <path class="cls-7" d="M13.44,16.35h-1.32c-.69-.08,1.01-2.56,1.32,0Z"/>
      <path class="cls-7" d="M17.28,14.19c.54.53-.82,1.29-1.44.96v-.96c.3.04,1.36-.07,1.44,0Z"/>
      <path class="cls-7" d="M22.8,15.63c.34.73-1.3,1.02-1.44.36-.15-.74,1.27-.72,1.44-.36Z"/>
      <path class="cls-7" d="M24,18.75c-.26-.04-1.13.07-1.2,0-.59-.62,1.41-1.7,1.2,0Z"/>
      <path class="cls-7" d="M16.32,17.07v.72s-1.2,0-1.2,0c-.07-.73.6-.78,1.2-.72Z"/>
      <path class="cls-10" d="M17.52,19.95c.11,1-.35,1-.24,0,.08,0,.19.02.24,0Z"/>
      <path class="cls-8" d="M14.64,6.27v.48c-.79.02-.53,1.29-.48,2.04.06.8.09,2.17.96,1.8h.24c-.07,1.72-.89,1.08-2.4,1.2-.05-1.64.18-3.31-.24-4.92.03-.13.17-.09.24-.12s.55-.18.72-.24c.27-.09.7-.22.96-.24Z"/>
      <path class="cls-14" d="M14.64,6.75c.16,0,.32,0,.48,0,0,.08,0,.16,0,.24.06,1.19-.04,2.41,0,3.6-.87.36-.9-1-.96-1.8-.06-.75-.31-2.02.48-2.04Z"/>
      <path class="cls-2" d="M15.36,10.59h-.24c-.04-1.19.06-2.41,0-3.6.41.96.28,2.5.24,3.6Z"/>
      <path class="cls-2" d="M13.68,6.51c-.17.06-.65.21-.72.24.1-.38.59-.76.72-.24Z"/>
      <path class="cls-2" d="M14.64,6.27c.16-.01.32,0,.48,0,.02.16-.02.33,0,.48-.16,0-.32,0-.48,0v-.48Z"/>
      <path class="cls-13" d="M18.48,30.99l-.24-.12.24-.36c.03.12,0,.33,0,.48Z"/>
      <path class="cls-8" d="M24.96,8.67c.39.38.34,2.36.13,2.65-.33.46-2.29.6-2.29-.13v-3.72c0-.1,1.68-.34,1.92-.24.09.06-.25.4-.24.48-.69-.14-.51.39-.49.84.03.79.28,1.5.25,2.28.95.09.8-1.5.72-2.16Z"/>
      <path class="cls-14" d="M24.48,7.71c.02.15.45.76.48.96.09.66.23,2.25-.72,2.16.03-.78-.22-1.49-.25-2.28-.02-.45-.2-.98.49-.84Z"/>
      <path class="cls-14" d="M18.24,26.67c.49.71.06,1.47-.24,2.16-.07-.05-.41.07-.47,0-.07-.09.2-2.05.26-2.14.08-.1.37.02.45-.02Z"/>
    </g>
  </g>
</svg>